# Blender v2.80 (sub 75) OBJ File: 'ven twist piston.blend'
# www.blender.org
mtllib ven twist piston base.mtl
o Cube
v 0.132023 -0.499998 -0.132023
v -0.132022 -0.499998 -0.132023
v 0.132023 -0.499998 0.132023
v 0.000001 -0.599998 -0.000000
v -0.132022 -0.499998 0.132023
v 0.225000 -0.500000 -0.300000
v 0.300000 -0.500000 -0.225000
v 0.225000 0.100000 0.225000
v 0.300000 -0.500000 0.225000
v 0.225000 -0.500000 0.300000
v -0.300000 -0.500000 -0.225000
v -0.225000 -0.500000 -0.300000
v -0.225000 0.100000 0.225000
v -0.225000 -0.500000 0.300000
v -0.300000 -0.500000 0.225000
v 0.225000 0.100000 -0.225000
v -0.225000 0.100000 -0.225000
v 0.050000 0.100000 0.255000
v 0.050000 0.025000 0.300000
v 0.050000 0.025000 -0.300000
v 0.150000 -0.500000 0.300000
v 0.150000 0.100000 0.255000
v 0.150000 0.100000 -0.255000
v -0.050000 0.025000 -0.300000
v -0.150000 -0.500000 0.300000
v -0.150000 0.100000 0.255000
v -0.050000 0.025000 0.300000
v -0.150000 0.100000 -0.255000
v 0.300000 0.025000 -0.050000
v -0.300000 0.025000 -0.050000
v -0.300000 -0.500000 -0.150000
v 0.255000 0.100000 -0.150000
v -0.255000 0.100000 -0.150000
v -0.300000 0.025000 0.050000
v 0.255000 0.100000 0.150000
v 0.300000 0.025000 0.050000
v -0.255000 0.100000 0.050000
v -0.300000 -0.500000 0.150000
v -0.255000 0.100000 0.150000
v 0.300000 0.125000 -0.225000
v 0.225000 0.125000 -0.300000
v 0.225000 0.200000 -0.225000
v 0.225000 0.125000 0.300000
v 0.300000 0.125000 0.225000
v 0.225000 0.200000 0.225000
v -0.225000 0.200000 -0.225000
v -0.225000 0.125000 -0.300000
v -0.300000 0.125000 -0.225000
v -0.225000 0.200000 0.225000
v -0.300000 0.125000 0.225000
v -0.225000 0.125000 0.300000
v -0.150000 0.200000 0.255000
v 0.150000 0.125000 0.300000
v 0.255000 0.200000 0.150000
v 0.300000 0.125000 -0.150000
v -0.255000 0.200000 -0.150000
v -0.300000 0.125000 0.150000
v 0.150000 0.200000 -0.255000
v -0.150000 0.125000 -0.300000
v 0.150000 0.200000 0.255000
v 0.150000 0.125000 -0.300000
v -0.150000 0.125000 0.300000
v -0.150000 0.200000 -0.255000
v 0.255000 0.200000 -0.150000
v -0.300000 0.125000 -0.150000
v 0.300000 0.125000 0.150000
v -0.255000 0.200000 0.150000
v -0.050000 0.035000 0.320000
v 0.050000 0.035000 0.320000
v -0.050000 0.100000 -0.255000
v 0.050000 0.100000 -0.255000
v 0.050000 0.035000 -0.320000
v 0.150000 -0.500000 -0.300000
v -0.050000 0.100000 0.255000
v -0.050000 0.035000 -0.320000
v -0.150000 -0.500000 -0.300000
v 0.320000 0.035000 0.050000
v 0.320000 0.035000 -0.050000
v -0.255000 0.100000 -0.050000
v 0.300000 -0.500000 0.150000
v 0.300000 -0.500000 -0.150000
v -0.320000 0.035000 -0.050000
v 0.255000 0.100000 -0.050000
v 0.255000 0.100000 0.050000
v -0.320000 0.035000 0.050000
vt 0.577644 0.361005
vt 0.563358 0.350290
vt 0.577644 0.336005
vt 0.786197 0.385755
vt 0.715365 0.314922
vt 0.786197 0.244090
vt 0.644533 0.244090
vt 0.644533 0.385755
vt 0.332614 0.263235
vt 0.343329 0.273949
vt 0.279043 0.273949
vt 0.577644 0.296719
vt 0.591930 0.307433
vt 0.591930 0.296719
vt 0.577644 0.296719
vt 0.591930 0.307433
vt 0.577644 0.321719
vt 0.577644 0.361005
vt 0.563358 0.350290
vt 0.577644 0.336005
vt 0.563358 0.307433
vt 0.577644 0.321719
vt 0.563358 0.307433
vt 0.577644 0.321719
vt 0.329861 0.288235
vt 0.315575 0.316806
vt 0.329861 0.302520
vt 0.526138 0.640040
vt 0.460513 0.640040
vt 0.527388 0.642540
vt 0.535513 0.574415
vt 0.526138 0.565040
vt 0.527388 0.562540
vt 0.577644 0.296719
vt 0.591930 0.307433
vt 0.577644 0.321719
vt 0.329861 0.302520
vt 0.315575 0.273949
vt 0.329861 0.288235
vt 0.329861 0.302520
vt 0.315575 0.273949
vt 0.315575 0.316806
vt 0.535513 0.630665
vt 0.460513 0.640040
vt 0.526138 0.640040
vt 0.527388 0.642540
vt 0.329861 0.302520
vt 0.315575 0.273949
vt 0.329861 0.288235
vt 0.601826 0.296719
vt 0.591112 0.296719
vt 0.591112 0.286005
vt 0.526826 0.286005
vt 0.526826 0.296719
vt 0.516112 0.296719
vt 0.601826 0.361005
vt 0.591112 0.371719
vt 0.591112 0.361005
vt 0.526826 0.371719
vt 0.516112 0.361005
vt 0.526826 0.361005
vt 0.537541 0.296719
vt 0.537541 0.286005
vt 0.537541 0.371719
vt 0.537541 0.361005
vt 0.551826 0.361005
vt 0.551826 0.371719
vt 0.526826 0.350290
vt 0.516112 0.350290
vt 0.580398 0.361005
vt 0.580398 0.371719
vt 0.591112 0.350290
vt 0.601826 0.350290
vt 0.580398 0.296719
vt 0.580398 0.286005
vt 0.591112 0.307433
vt 0.601826 0.307433
vt 0.526826 0.307433
vt 0.516112 0.307433
vt 0.591930 0.350290
vt 0.591930 0.361005
vt 0.591930 0.307433
vt 0.591930 0.296719
vt 0.591930 0.350290
vt 0.577644 0.336005
vt 0.591930 0.350290
vt 0.591930 0.361005
vt 0.577644 0.361005
vt 0.591930 0.350290
vt 0.577644 0.336005
vt 0.460513 0.640040
vt 0.526138 0.640040
vt 0.527388 0.642540
vt 0.460513 0.565040
vt 0.535513 0.630665
vt 0.526138 0.640040
vt 0.527388 0.642540
vt 0.526138 0.565040
vt 0.460513 0.565040
vt 0.527388 0.562540
vt 0.535513 0.630665
vt 0.526138 0.565040
vt 0.535513 0.574415
vt 0.527388 0.562540
vt 0.526138 0.565040
vt 0.535513 0.574415
vt 0.527388 0.562540
vt 0.535513 0.574415
vt 0.460513 0.565040
vt 0.460513 0.565040
vt 0.535513 0.630665
vt 0.460513 0.640040
vt 0.315575 0.273949
vt 0.563358 0.307433
vt 0.591930 0.296719
vt 0.563358 0.350290
vt 0.315575 0.316806
vt 0.329861 0.288235
vt 0.563358 0.307433
vt 0.563358 0.350290
vt 0.315575 0.316806
vt 0.591930 0.361005
vt 0.279043 0.263235
vt 0.289757 0.263235
vt 0.343329 0.263235
vt 0.343329 0.316806
vt 0.332614 0.327520
vt 0.343329 0.327520
vt 0.581215 0.296719
vt 0.566930 0.321719
vt 0.491930 0.307433
vt 0.491930 0.296719
vt 0.289757 0.327520
vt 0.279043 0.327520
vt 0.279043 0.316806
vt 0.581215 0.361005
vt 0.566930 0.336005
vt 0.491930 0.350290
vt 0.491930 0.361005
vt 0.566930 0.336005
vt 0.581215 0.350290
vt 0.581215 0.361005
vt 0.479173 0.608790
vt 0.479173 0.596290
vt 0.491048 0.596290
vt 0.491048 0.608790
vt 0.491930 0.296719
vt 0.581215 0.296719
vt 0.581215 0.286005
vt 0.491930 0.286005
vt 0.581215 0.307433
vt 0.566930 0.336005
vt 0.581215 0.361005
vt 0.491930 0.361005
vt 0.491930 0.350290
vt 0.551826 0.286005
vt 0.551826 0.296719
vt 0.566112 0.371719
vt 0.566112 0.361005
vt 0.566112 0.296719
vt 0.566112 0.286005
vt 0.581215 0.296719
vt 0.566930 0.321719
vt 0.491930 0.307433
vt 0.491930 0.296719
vt 0.566930 0.321719
vt 0.581215 0.307433
vt 0.581215 0.296719
vt 0.527388 0.596290
vt 0.460513 0.583790
vt 0.460513 0.621290
vt 0.527388 0.608790
vt 0.460513 0.583790
vt 0.527388 0.596290
vt 0.527388 0.608790
vt 0.460513 0.621290
vt 0.581215 0.307433
vt 0.516112 0.350290
vt 0.500423 0.640040
vt 0.601826 0.307433
vt 0.537541 0.286005
vt 0.491930 0.361005
vt 0.491930 0.350290
vt 0.591112 0.371719
vt 0.601826 0.361005
vt 0.556673 0.621290
vt 0.601826 0.296719
vt 0.537923 0.565040
vt 0.591112 0.286005
vt 0.580398 0.371719
vt 0.516112 0.361005
vt 0.526826 0.371719
vt 0.516112 0.296719
vt 0.481673 0.583790
vt 0.526826 0.286005
vt 0.516112 0.336005
vt 0.526826 0.336005
vt 0.460513 0.621290
vt 0.527388 0.608790
vt 0.527388 0.596290
vt 0.460513 0.583790
vt 0.559173 0.596290
vt 0.559173 0.608790
vt 0.547298 0.608790
vt 0.547298 0.596290
vt 0.581215 0.350290
vt 0.566930 0.321719
vt 0.491930 0.307433
vt 0.601826 0.321719
vt 0.591112 0.321719
vt 0.581215 0.307433
vt 0.581215 0.361005
vt 0.566930 0.336005
vt 0.491930 0.350290
vt 0.491930 0.361005
vt 0.581215 0.350290
vt 0.491930 0.286005
vt 0.581215 0.286005
vt 0.581215 0.350290
vt 0.491930 0.296719
vt 0.491930 0.307433
vt 0.491930 0.371719
vt 0.581215 0.371719
vt 0.512923 0.630665
vt 0.525423 0.630665
vt 0.525423 0.642540
vt 0.512923 0.642540
vt 0.527388 0.608790
vt 0.460513 0.621290
vt 0.460513 0.583790
vt 0.527388 0.596290
vt 0.525423 0.574415
vt 0.512923 0.574415
vt 0.512923 0.562540
vt 0.525423 0.562540
vt 0.491930 0.371719
vt 0.581215 0.371719
vn 0.0000 -1.0000 0.0000
vn -0.6038 -0.7971 0.0000
vn 0.0000 -0.7971 0.6038
vn 0.0000 -0.7971 -0.6038
vn 0.6038 -0.7971 -0.0000
vn 0.0000 1.0000 0.0000
vn -0.2565 0.0962 -0.9618
vn -0.2472 0.1036 -0.9634
vn -0.3714 0.0000 -0.9285
vn -0.2565 0.0962 0.9618
vn -0.2472 0.1036 0.9634
vn -0.1666 0.1666 0.9718
vn 0.0000 0.0000 1.0000
vn 0.0000 0.0000 -1.0000
vn -0.9933 0.1033 -0.0516
vn -0.9781 0.1863 -0.0931
vn -0.9953 0.0868 -0.0434
vn -0.0516 0.1033 0.9933
vn -0.0434 0.0868 0.9953
vn 0.9618 0.0962 0.2565
vn 0.9634 0.1036 0.2472
vn 0.9718 0.1666 0.1666
vn 0.0000 0.7826 0.6224
vn -1.0000 0.0000 0.0000
vn 0.9781 0.1863 -0.0931
vn 0.9933 0.1033 -0.0516
vn 0.9953 0.0868 -0.0434
vn 0.5774 0.5774 -0.5774
vn 0.5774 0.5774 0.5774
vn -0.5774 0.5774 -0.5774
vn -0.5774 0.5774 0.5774
vn 0.7715 0.6172 0.1543
vn -0.7625 0.4575 -0.4575
vn -0.1543 0.6172 0.7715
vn -0.7715 0.6172 -0.1543
vn -0.1543 0.6172 -0.7715
vn 0.7715 0.6172 -0.1543
vn 0.1543 0.6172 -0.7715
vn 0.1543 0.6172 0.7715
vn 0.9618 0.0962 -0.2565
vn 0.9634 0.1036 -0.2472
vn 0.9285 0.0000 -0.3714
vn -0.9618 0.0962 0.2565
vn -0.9634 0.1036 0.2472
vn -0.9285 0.0000 0.3714
vn 0.2565 0.0962 -0.9618
vn 0.2472 0.1036 -0.9634
vn 0.1666 0.1666 -0.9718
vn 0.2565 0.0962 0.9618
vn 0.2472 0.1036 0.9634
vn 0.3714 0.0000 0.9285
vn -0.9618 0.0962 -0.2565
vn -0.9634 0.1036 -0.2472
vn -0.9718 0.1666 -0.1666
vn 0.0931 0.1863 0.9781
vn 0.0516 0.1033 0.9933
vn 0.0434 0.0868 0.9953
vn -0.0931 0.1863 0.9781
vn 0.0516 0.1033 -0.9933
vn 0.0434 0.0868 -0.9953
vn 0.9933 0.1033 0.0516
vn 0.9781 0.1863 0.0931
vn 0.9953 0.0868 0.0434
vn -0.9933 0.1033 0.0516
vn -0.9953 0.0868 0.0434
vn -0.0516 0.1033 -0.9933
vn -0.0434 0.0868 -0.9953
vn 1.0000 0.0000 0.0000
vn -0.9781 0.1863 0.0931
vn -0.0931 0.1863 -0.9781
vn 0.0931 0.1863 -0.9781
vn -0.1666 0.1666 -0.9718
vn -0.3714 0.0000 0.9285
vn 0.9285 0.0000 0.3714
vn 0.9718 0.1666 -0.1666
vn -0.9718 0.1666 0.1666
vn 0.3714 0.0000 -0.9285
vn 0.1666 0.1666 0.9718
vn -0.9285 0.0000 -0.3714
vn 0.0000 0.7071 0.7071
vn 0.7071 0.0000 -0.7071
vn 0.7625 0.4575 -0.4575
vn -0.7625 0.4575 0.4575
vn 0.7625 0.4575 0.4575
vn -0.9993 -0.0374 0.0000
vn 0.0000 -0.0374 0.9993
vn -0.4575 0.4575 0.7625
vn 0.4575 0.4575 0.7625
vn 0.0000 -0.0374 -0.9993
vn 0.0000 0.7071 -0.7071
vn -0.4575 0.4575 -0.7625
vn 0.4575 0.4575 -0.7625
vn -0.7715 0.6172 0.1543
vn 0.7071 0.0000 0.7071
vn -0.7071 0.0000 0.7071
vn -0.7071 0.7071 0.0000
vn 0.9993 -0.0374 0.0000
vn 0.7071 0.7071 0.0000
vn -0.7071 0.0000 -0.7071
usemtl Material
s 1
f 17/1/1 28/2/1 70/3/1
f 2/4/2 4/5/2 5/6/2
f 5/6/3 4/5/3 3/7/3
f 2/4/4 1/8/4 4/5/4
f 4/5/5 1/8/5 3/7/5
f 32/9/6 23/10/6 22/11/6
f 8/12/7 60/13/8 45/14/9
f 16/15/10 58/16/11 71/17/12
f 13/18/1 39/19/1 37/20/1
f 16/15/1 32/21/1 83/22/1
f 8/12/1 22/23/1 18/24/1
f 18/25/13 26/26/14 74/27/13
f 27/28/15 25/29/16 68/30/17
f 84/31/13 36/32/18 77/33/19
f 17/34/20 56/35/21 79/36/22
f 70/37/13 23/38/23 71/39/13
f 84/40/13 32/41/13 35/42/13
f 74/43/24 27/28/15 68/30/17
f 21/44/25 19/45/26 69/46/27
f 37/47/1 33/48/1 79/49/1
f 41/50/28 42/51/28 40/52/28
f 44/53/29 45/54/29 43/55/29
f 47/56/30 48/57/30 46/58/30
f 50/59/31 51/60/31 49/61/31
f 54/62/32 45/54/32 44/53/32 66/63/32
f 57/64/33 67/65/33 37/66/33 34/67/33
f 52/68/34 49/61/34 51/60/34 62/69/34
f 56/70/35 46/58/35 48/57/35 65/71/35
f 63/72/36 59/73/36 47/56/36 46/58/36
f 64/74/37 55/75/37 40/52/37 42/51/37
f 58/76/38 42/51/38 41/50/38 61/77/38
f 60/78/39 53/79/39 43/55/39 45/54/39
f 13/18/40 67/80/41 49/81/42
f 16/15/43 64/82/44 42/83/45
f 13/18/46 52/84/47 74/85/48
f 17/1/49 63/86/50 46/87/51
f 8/88/52 54/89/53 84/90/54
f 38/91/55 34/92/56 85/93/57
f 36/32/18 80/94/58 77/33/19
f 79/95/14 30/96/59 82/97/60
f 20/98/61 73/99/62 72/100/63
f 34/92/56 37/101/13 85/93/57
f 24/102/64 70/103/24 75/104/65
f 29/105/66 83/106/14 78/107/67
f 71/108/68 20/98/61 72/100/63
f 76/109/69 24/102/64 75/104/65
f 81/110/70 29/105/66 78/107/67
f 19/45/26 18/111/68 69/46/27
f 30/96/59 31/112/71 82/97/60
f 8/12/7 18/24/72 60/13/8
f 16/15/10 42/83/73 58/16/11
f 18/25/13 22/113/13 26/26/14
f 16/15/1 71/17/1 23/114/1
f 17/34/20 46/115/74 56/35/21
f 13/18/1 74/85/1 26/116/1
f 70/37/13 28/117/13 23/38/23
f 84/40/6 83/118/6 32/41/6
f 17/34/1 79/36/1 33/119/1
f 8/88/1 84/90/1 35/120/1
f 37/47/13 39/121/13 33/48/13
f 13/18/40 37/20/75 67/80/41
f 16/15/43 83/22/76 64/82/44
f 13/18/46 49/81/77 52/84/47
f 17/1/49 70/3/78 63/86/50
f 8/88/52 45/122/79 54/89/53
f 8/123/6 35/124/6 22/11/6
f 35/124/6 32/9/6 22/11/6
f 32/9/6 16/125/6 23/10/6
f 23/10/6 28/126/6 33/127/6
f 28/126/6 17/128/6 33/127/6
f 40/129/68 29/130/68 81/131/68 7/132/68
f 39/133/6 13/134/6 26/135/6
f 26/135/6 22/11/6 39/133/6
f 47/136/14 24/137/14 76/138/14 12/139/14
f 27/140/13 62/141/13 51/142/13
f 68/143/80 69/144/80 18/145/80 74/146/80
f 6/147/81 41/148/81 40/149/81 7/150/81
f 55/151/68 29/130/68 40/129/68
f 36/152/68 44/153/68 9/154/68 80/155/68
f 66/63/82 36/156/82 84/157/82 54/62/82
f 65/71/83 30/158/83 79/159/83 56/70/83
f 55/75/84 64/74/84 83/160/84 29/161/84
f 43/162/13 19/163/13 21/164/13 10/165/13
f 30/166/24 65/167/24 48/168/24
f 82/169/85 31/170/85 38/171/85 85/172/85
f 21/173/86 69/174/86 68/175/86 25/176/86
f 53/177/87 60/13/87 18/24/87 19/163/87
f 25/178/1 38/179/1 73/180/1 80/181/1
f 53/177/13 19/163/13 43/162/13
f 27/140/13 51/142/13 14/182/13 25/183/13
f 11/184/1 12/185/1 76/186/1
f 73/180/1 6/187/1 81/188/1
f 6/187/1 7/189/1 81/188/1
f 11/184/1 76/186/1 31/190/1
f 76/186/1 73/180/1 31/190/1
f 38/179/1 31/190/1 73/180/1
f 14/191/1 15/192/1 38/179/1
f 10/193/1 21/194/1 9/195/1
f 21/194/1 25/178/1 80/181/1
f 9/195/1 21/194/1 80/181/1
f 25/178/1 14/191/1 38/179/1
f 81/188/1 80/181/1 73/180/1
f 39/133/6 22/11/6 23/10/6 33/127/6
f 62/69/88 27/196/88 74/197/88 52/68/88
f 76/198/89 75/199/89 72/200/89 73/201/89
f 72/202/90 75/203/90 70/204/90 71/205/90
f 59/206/14 24/137/14 47/136/14
f 20/207/14 41/148/14 6/147/14 73/208/14
f 61/77/91 20/209/91 71/210/91 58/76/91
f 59/206/92 63/86/92 70/3/92 24/137/92
f 67/65/93 57/64/93 50/59/93 49/61/93
f 20/207/14 61/211/14 41/148/14
f 50/212/24 34/213/24 38/214/24 15/215/24
f 36/152/68 66/216/68 44/153/68
f 10/165/94 9/217/94 44/218/94 43/162/94
f 57/219/24 34/213/24 50/212/24
f 30/166/24 48/168/24 11/220/24 31/221/24
f 15/222/95 14/182/95 51/142/95 50/223/95
f 37/224/96 79/225/96 82/226/96 85/227/96
f 77/228/97 80/229/97 81/230/97 78/231/97
f 83/232/98 84/233/98 77/234/98 78/235/98
f 12/139/99 11/236/99 48/237/99 47/136/99
