# Blender v2.80 (sub 75) OBJ File: 'ven twist piston.blend'
# www.blender.org
mtllib ven twist piston shaft 1.mtl
o Cylinder_Cylinder.003
v -0.081971 -0.500000 -0.197895
v -0.186303 0.400000 -0.093563
v 0.081971 -0.500000 -0.197895
v -0.065577 0.400000 -0.197895
v 0.197895 -0.500000 -0.081971
v 0.093563 0.400000 -0.186303
v 0.197895 -0.500000 0.081971
v 0.197895 0.400000 -0.065577
v 0.081971 -0.500000 0.197895
v 0.186303 0.400000 0.093563
v -0.081971 -0.500000 0.197895
v 0.065577 0.400000 0.197895
v -0.197895 -0.500000 0.081971
v -0.093563 0.400000 0.186303
v -0.197895 -0.500000 -0.081971
v -0.197895 0.400000 0.065577
v -0.006517 0.189698 0.074492
v -0.006517 0.454073 0.074492
v -0.074492 0.189698 -0.006517
v -0.074492 0.454073 -0.006517
v 0.074492 0.189698 0.006517
v 0.074492 0.454073 0.006517
v 0.006517 0.189698 -0.074492
v 0.006517 0.454073 -0.074492
v 0.097074 0.311542 0.177383
v 0.097074 0.454073 0.177383
v 0.157831 0.454073 0.126402
v 0.157831 0.311542 0.126402
v -0.177383 0.311542 0.097074
v -0.126402 0.311542 0.157831
v -0.126402 0.454073 0.157831
v -0.177383 0.454073 0.097074
v 0.126402 0.454073 -0.157831
v 0.126402 0.311542 -0.157831
v 0.177383 0.311542 -0.097074
v 0.177383 0.454073 -0.097074
v -0.157831 0.454073 -0.126402
v -0.157831 0.311542 -0.126402
v -0.097074 0.311542 -0.177383
v -0.097074 0.454073 -0.177383
vt 0.073047 0.046797
vt 0.048047 0.046797
vt 0.048047 0.046797
vt 0.073047 0.046797
vt 0.073047 0.021797
vt 0.048047 0.021797
vt 0.048047 0.021797
vt 0.073047 0.021797
vt 0.048047 0.096797
vt 0.073047 0.096797
vt 0.073047 0.121797
vt 0.048047 0.121797
vt 0.023047 0.096797
vt 0.048047 0.096797
vt 0.023047 0.096797
vt 0.073047 0.096797
vt 0.048047 0.021797
vt 0.073047 0.021797
vt 0.023047 0.071797
vt 0.023047 0.096797
vt 0.023047 0.071797
vt 0.048047 0.071797
vt 0.073047 0.071797
vt 0.073047 0.096797
vt 0.048047 0.096797
vt 0.048047 0.071797
vt 0.073047 0.071797
vt 0.048047 0.046797
vt 0.073047 0.046797
vt 0.073047 0.071797
vt 0.048047 0.071797
vt 0.023047 0.071797
vt 0.950781 0.208835
vt 0.938281 0.253835
vt 0.938281 0.208835
vt 0.925781 0.253835
vt 0.925781 0.208835
vt 0.913281 0.253835
vt 0.913281 0.208835
vt 0.900781 0.253835
vt 0.900781 0.208835
vt 0.888281 0.253835
vt 0.888281 0.208835
vt 0.875781 0.253835
vt 0.875781 0.208835
vt 0.874084 0.160538
vt 0.891055 0.166162
vt 0.899078 0.182138
vt 0.863281 0.253835
vt 0.863281 0.208835
vt 0.850781 0.253835
vt 0.850781 0.208835
vt 0.950781 0.253835
vt 0.893455 0.199109
vt 0.852484 0.185532
vt 0.877478 0.207132
vt 0.860508 0.201509
vt 0.858108 0.168562
vn -0.7095 0.0000 -0.7047
vn -0.7047 0.0000 0.7095
vn 0.6428 0.0000 0.7660
vn 0.4128 -0.7665 0.4920
vn 0.8211 0.0000 -0.5708
vn -0.7660 0.0000 0.6428
vn 0.5708 0.0000 0.8211
vn -0.4920 -0.7665 0.4128
vn 0.7660 0.0000 -0.6428
vn -0.5708 0.0000 -0.8211
vn 0.7095 0.0000 0.7047
vn 0.4920 -0.7665 -0.4128
vn -0.6428 0.0000 -0.7660
vn -0.8211 0.0000 0.5708
vn 0.7047 0.0000 -0.7095
vn -0.4128 -0.7665 -0.4920
vn 0.0000 1.0000 -0.0000
vn -0.0680 0.0012 -0.9977
vn -0.5996 0.0109 -0.8002
vn 0.0000 0.0000 -1.0000
vn 0.6573 0.0012 -0.7536
vn 0.1419 0.0109 -0.9898
vn 0.7071 0.0000 -0.7071
vn 0.9977 0.0012 -0.0680
vn 0.8002 0.0109 -0.5996
vn 1.0000 0.0000 0.0000
vn 0.7536 0.0012 0.6574
vn 0.9898 0.0109 0.1419
vn 0.7071 0.0000 0.7071
vn 0.0680 0.0012 0.9977
vn 0.5996 0.0109 0.8002
vn -0.0000 0.0000 1.0000
vn -0.6573 0.0012 0.7536
vn -0.1419 0.0109 0.9898
vn -0.7071 0.0000 0.7071
vn -0.9977 0.0012 0.0680
vn -0.8002 0.0109 0.5996
vn -1.0000 -0.0000 0.0000
vn -0.7536 0.0012 -0.6573
vn -0.9898 0.0109 -0.1419
vn -0.7071 0.0000 -0.7071
vn -0.6538 0.0119 -0.7566
vn 0.0726 0.0119 -0.9973
vn 0.7566 0.0119 -0.6538
vn 0.9973 0.0119 0.0726
vn 0.6538 0.0119 0.7566
vn -0.0726 0.0119 0.9973
vn -0.7566 0.0119 0.6538
vn -0.9973 0.0119 -0.0726
usemtl Material
s off
f 20/1/1 19/2/1 29/3/1 32/4/1
f 18/5/2 17/6/2 25/7/2 26/8/2
f 28/9/3 27/10/3 26/11/3 25/12/3
f 17/13/4 21/14/4 28/9/4 25/15/4
f 21/14/5 22/16/5 27/10/5 28/9/5
f 30/17/6 31/18/6 32/4/6 29/3/6
f 17/6/7 18/5/7 31/18/7 30/17/7
f 19/19/8 17/13/8 30/20/8 29/21/8
f 34/22/9 33/23/9 36/24/9 35/25/9
f 23/26/10 24/27/10 33/23/10 34/22/10
f 22/16/11 21/14/11 35/25/11 36/24/11
f 21/14/12 23/26/12 34/22/12 35/25/12
f 38/28/13 37/29/13 40/30/13 39/31/13
f 19/2/14 20/1/14 37/29/14 38/28/14
f 24/27/15 23/26/15 39/31/15 40/30/15
f 23/26/16 19/19/16 38/32/16 39/31/16
f 27/10/17 22/16/17 18/5/17 26/8/17
f 31/18/17 18/5/17 20/1/17 32/4/17
f 37/29/17 20/1/17 24/27/17 40/30/17
f 33/23/17 24/27/17 22/16/17 36/24/17
s 1
f 1/33/18 4/34/19 3/35/20
f 3/35/21 6/36/22 5/37/23
f 5/37/24 8/38/25 7/39/26
f 7/39/27 10/40/28 9/41/29
f 9/41/30 12/42/31 11/43/32
f 11/43/33 14/44/34 13/45/35
f 10/46/17 8/47/17 6/48/17
f 13/45/36 16/49/37 15/50/38
f 15/50/39 2/51/40 1/52/41
f 1/33/18 2/53/42 4/34/19
f 3/35/21 4/34/43 6/36/22
f 5/37/24 6/36/44 8/38/25
f 7/39/27 8/38/45 10/40/28
f 9/41/30 10/40/46 12/42/31
f 11/43/33 12/42/47 14/44/34
f 6/48/17 4/54/17 14/55/17
f 4/54/17 2/56/17 14/55/17
f 2/56/17 16/57/17 14/55/17
f 14/55/17 12/58/17 6/48/17
f 12/58/17 10/46/17 6/48/17
f 13/45/36 14/44/48 16/49/37
f 15/50/39 16/49/49 2/51/40
