# Blender v2.80 (sub 74) OBJ File: 'ven twist piston.blend'
# www.blender.org
mtllib ven twist piston shaft 2.mtl
o Cylinder.001_Cylinder.004
v 0.066893 -0.500000 -0.161494
v -0.066893 0.500000 -0.161494
v 0.161494 -0.500000 -0.066893
v 0.066893 0.500000 -0.161494
v 0.161494 -0.500000 0.066893
v 0.161494 0.500000 -0.066893
v 0.066893 -0.500000 0.161494
v 0.161494 0.500000 0.066893
v -0.066893 -0.500000 0.161494
v 0.066893 0.500000 0.161494
v -0.161494 -0.500000 0.066893
v -0.066893 0.500000 0.161494
v -0.161494 -0.500000 -0.066893
v -0.161494 0.500000 0.066893
v -0.066893 -0.500000 -0.161494
v -0.161494 0.500000 -0.066893
v 0.082277 0.500000 0.198634
v -0.082277 0.500000 0.198634
v 0.198634 0.500000 -0.082277
v 0.198634 0.500000 0.082277
v -0.082277 0.500000 -0.198634
v 0.082277 0.500000 -0.198634
v -0.198634 0.500000 0.082277
v -0.198634 0.500000 -0.082277
vt 0.209531 0.072556
vt 0.243416 0.038672
vt 0.277421 0.038672
vt 0.309531 0.070783
vt 0.309531 0.102012
vt 0.272871 0.138672
vt 0.241950 0.138672
vt 0.209531 0.106253
vt 0.944453 0.227188
vt 0.931953 0.277188
vt 0.931953 0.227188
vt 0.919453 0.277188
vt 0.919453 0.227188
vt 0.906953 0.277188
vt 0.906953 0.227188
vt 0.894453 0.277188
vt 0.894453 0.227188
vt 0.881953 0.277188
vt 0.881953 0.227188
vt 0.869453 0.277188
vt 0.869453 0.227188
vt 0.856953 0.277188
vt 0.856953 0.227188
vt 0.844453 0.277188
vt 0.844453 0.227188
vt 0.944453 0.277188
vn -0.0000 -1.0000 -0.0000
vn 0.6661 0.0000 -0.7459
vn 0.0564 0.0000 -0.9984
vn 0.7071 0.0000 -0.7071
vn 0.9984 -0.0000 -0.0564
vn 0.7459 -0.0000 -0.6661
vn 1.0000 -0.0000 0.0000
vn 0.7459 0.0000 0.6661
vn 0.9984 0.0000 0.0564
vn 0.7071 0.0000 0.7071
vn 0.0564 0.0000 0.9984
vn 0.6661 0.0000 0.7459
vn 0.0000 0.0000 1.0000
vn -0.6661 0.0000 0.7459
vn -0.0564 0.0000 0.9984
vn -0.7071 0.0000 0.7071
vn -0.9984 -0.0000 0.0564
vn -0.7459 -0.0000 0.6661
vn -1.0000 -0.0000 0.0000
vn -0.7459 -0.0000 -0.6661
vn -0.9984 -0.0000 -0.0564
vn -0.7071 0.0000 -0.7071
vn -0.0564 0.0000 -0.9984
vn -0.6661 0.0000 -0.7459
vn 0.0000 0.0000 -1.0000
usemtl Material
s off
f 20/1/1 17/2/1 18/3/1 23/4/1 24/5/1 21/6/1 22/7/1 19/8/1
s 1
f 1/9/2 4/10/3 3/11/4
f 3/11/5 6/12/6 5/13/7
f 5/13/8 8/14/9 7/15/10
f 7/15/11 10/16/12 9/17/13
f 9/17/14 12/18/15 11/19/16
f 11/19/17 14/20/18 13/21/19
f 13/21/20 16/22/21 15/23/22
f 15/23/23 2/24/24 1/25/25
f 1/9/2 2/26/25 4/10/3
f 3/11/5 4/10/4 6/12/6
f 5/13/8 6/12/7 8/14/9
f 7/15/11 8/14/10 10/16/12
f 9/17/14 10/16/13 12/18/15
f 11/19/17 12/18/16 14/20/18
f 13/21/20 14/20/19 16/22/21
f 15/23/23 16/22/22 2/24/24
