# Blender v2.81 (sub 16) OBJ File: 'ven twist piston.blend'
# www.blender.org
mtllib ven twist piston head.mtl
o Cube_AP.001
v -0.225000 0.200000 0.225000
v -0.225000 0.275000 0.300000
v -0.300000 0.275000 0.225000
v -0.300000 0.500000 0.225000
v -0.225000 0.500000 0.300000
v -0.225000 0.200000 -0.225000
v -0.300000 0.275000 -0.225000
v -0.225000 0.275000 -0.300000
v -0.225000 0.500000 -0.300000
v -0.300000 0.500000 -0.225000
v 0.225000 0.200000 0.225000
v 0.300000 0.275000 0.225000
v 0.225000 0.275000 0.300000
v 0.225000 0.500000 0.300000
v 0.300000 0.500000 0.225000
v 0.225000 0.200000 -0.225000
v 0.225000 0.275000 -0.300000
v 0.300000 0.275000 -0.225000
v 0.300000 0.500000 -0.225000
v 0.225000 0.500000 -0.300000
v 0.150000 0.200000 -0.255000
v 0.150000 0.275000 -0.300000
v 0.150000 0.200000 0.255000
v 0.150000 0.275000 0.300000
v 0.150000 0.500000 0.300000
v 0.150000 0.500000 -0.300000
v -0.150000 0.200000 -0.255000
v -0.150000 0.275000 0.300000
v -0.150000 0.500000 0.300000
v -0.150000 0.500000 -0.300000
v -0.150000 0.275000 -0.300000
v -0.150000 0.200000 0.255000
v -0.255000 0.200000 0.150000
v -0.300000 0.275000 0.150000
v 0.255000 0.200000 0.150000
v 0.300000 0.275000 0.150000
v -0.300000 0.500000 0.150000
v 0.300000 0.500000 0.150000
v 0.150000 0.200000 0.150000
v -0.150000 0.200000 0.150000
v -0.300000 0.275000 -0.150000
v 0.255000 0.200000 -0.150000
v -0.300000 0.500000 -0.150000
v 0.300000 0.500000 -0.150000
v -0.255000 0.200000 -0.150000
v 0.300000 0.275000 -0.150000
v 0.150000 0.200000 -0.150000
v -0.150000 0.200000 -0.150000
v -0.187913 -0.100000 0.187913
v 0.100000 -0.100000 -0.200000
v 0.100000 -0.100000 0.200000
v -0.100000 -0.100000 -0.200000
v -0.200000 0.200000 0.200000
v -0.100000 -0.100000 0.200000
v 0.082277 -0.000000 -0.198634
v -0.082277 0.200000 0.198634
v 0.107500 -0.100000 -0.173411
v 0.200000 -0.100000 -0.100000
v -0.082277 -0.000000 -0.198634
v 0.082277 0.000000 0.198634
v 0.082277 0.200000 0.198634
v 0.107500 -0.100000 0.173411
v -0.082277 0.000000 0.198634
v -0.107500 -0.100000 -0.173411
v -0.082277 0.200000 -0.198634
v -0.200000 -0.100000 -0.100000
v -0.107500 -0.100000 0.173411
v 0.082277 0.200000 -0.198634
v -0.200000 0.200000 -0.200000
v -0.107500 -0.030000 -0.173411
v -0.187913 -0.100000 -0.187913
v -0.107500 -0.030000 0.173411
v 0.107500 -0.030000 -0.173411
v 0.200000 0.200000 -0.200000
v 0.187913 -0.100000 -0.187913
v 0.107500 -0.030000 0.173411
v 0.200000 0.200000 0.200000
v 0.187913 -0.100000 0.187913
v 0.076537 0.000000 -0.220000
v -0.076537 0.000000 -0.220000
v -0.076537 -0.000000 0.220000
v 0.076536 -0.000000 0.220000
v -0.200000 -0.100000 0.100000
v 0.200000 -0.100000 0.100000
v -0.198634 -0.000000 -0.082277
v 0.198634 0.200000 0.082277
v -0.173411 -0.100000 -0.107500
v -0.198634 -0.000000 0.082277
v 0.198634 0.000000 -0.082277
v 0.198634 0.200000 -0.082277
v 0.173411 -0.100000 -0.107500
v 0.198634 0.000000 0.082277
v -0.173411 -0.100000 0.107500
v -0.198634 0.200000 0.082277
v 0.173411 -0.100000 0.107500
v -0.198634 0.200000 -0.082277
v -0.173411 -0.030000 0.107500
v 0.173411 -0.030000 0.107500
v -0.173411 -0.030000 -0.107500
v 0.173411 -0.030000 -0.107500
v -0.220000 0.000000 -0.076537
v -0.220000 0.000000 0.076537
v 0.220000 -0.000000 0.076537
v 0.220000 -0.000000 -0.076536
v 0.100000 -0.030000 -0.200000
v 0.200000 -0.030000 -0.100000
v 0.100000 -0.030000 0.200000
v 0.200000 -0.030000 0.100000
v -0.100000 -0.030000 0.200000
v -0.200000 -0.030000 0.100000
v -0.200000 -0.030000 -0.100000
v -0.100000 -0.030000 -0.200000
v -0.050000 0.175000 -0.300000
v 0.050000 0.175000 -0.300000
v -0.050000 0.100000 0.255000
v 0.050000 0.100000 0.255000
v 0.050000 0.175000 0.300000
v 0.050000 0.100000 -0.255000
v -0.050000 0.100000 -0.255000
v -0.050000 0.175000 0.300000
v -0.255000 0.100000 -0.050000
v -0.255000 0.100000 0.050000
v 0.300000 0.175000 -0.050000
v 0.300000 0.175000 0.050000
v 0.255000 0.100000 0.050000
v -0.300000 0.175000 0.050000
v -0.300000 0.175000 -0.050000
v 0.255000 0.100000 -0.050000
v -0.132023 0.499998 -0.132023
v 0.132022 0.499998 -0.132023
v -0.132023 0.499998 0.132023
v -0.000001 0.599998 0.000000
v 0.132022 0.499998 0.132023
vt 0.447578 0.341693
vt 0.435078 0.304193
vt 0.447578 0.304193
vt 0.502005 0.337266
vt 0.464505 0.349766
vt 0.464505 0.337266
vt 0.451997 0.635061
vt 0.432764 0.577363
vt 0.432764 0.615829
vt 0.502005 0.287266
vt 0.464505 0.274766
vt 0.464505 0.287266
vt 0.497578 0.341693
vt 0.510078 0.304193
vt 0.497578 0.304193
vt 0.435078 0.291693
vt 0.422578 0.304193
vt 0.435078 0.274766
vt 0.422578 0.274766
vt 0.435078 0.262266
vt 0.510078 0.291693
vt 0.522578 0.304193
vt 0.510078 0.304193
vt 0.510078 0.274766
vt 0.510078 0.262266
vt 0.522578 0.274766
vt 0.435078 0.337266
vt 0.422578 0.349766
vt 0.422578 0.337266
vt 0.422578 0.341693
vt 0.464505 0.262266
vt 0.502005 0.274766
vt 0.502005 0.262266
vt 0.447578 0.274766
vt 0.447578 0.262266
vt 0.464505 0.274766
vt 0.502005 0.262266
vt 0.502005 0.274766
vt 0.510078 0.287266
vt 0.522578 0.287266
vt 0.522578 0.341693
vt 0.510078 0.341693
vt 0.497578 0.291693
vt 0.497578 0.304193
vt 0.497578 0.337266
vt 0.510078 0.349766
vt 0.497578 0.349766
vt 0.490462 0.615829
vt 0.451997 0.625445
vt 0.451997 0.615829
vt 0.466421 0.615829
vt 0.453600 0.590185
vt 0.466421 0.577363
vt 0.497578 0.274766
vt 0.451997 0.630253
vt 0.490462 0.601404
vt 0.451997 0.601404
vt 0.522578 0.274766
vt 0.497578 0.262266
vt 0.522578 0.287266
vt 0.435078 0.341693
vt 0.447578 0.304193
vt 0.435078 0.304193
vt 0.447578 0.291693
vt 0.447578 0.337266
vt 0.435078 0.349766
vt 0.464819 0.588582
vt 0.490462 0.558131
vt 0.490462 0.635061
vt 0.490462 0.630253
vt 0.451997 0.601404
vt 0.490462 0.601404
vt 0.451997 0.577363
vt 0.442381 0.615829
vt 0.442381 0.577363
vt 0.490462 0.577363
vt 0.500078 0.577363
vt 0.510078 0.337266
vt 0.522578 0.349766
vt 0.490462 0.567747
vt 0.477640 0.558131
vt 0.490462 0.558131
vt 0.464505 0.349766
vt 0.502005 0.337266
vt 0.464505 0.337266
vt 0.476038 0.577363
vt 0.504887 0.615829
vt 0.476038 0.615829
vt 0.464505 0.287266
vt 0.435078 0.287266
vt 0.497578 0.287266
vt 0.451997 0.567747
vt 0.447578 0.287266
vt 0.509695 0.590185
vt 0.500078 0.590185
vt 0.504887 0.615829
vt 0.476038 0.577363
vt 0.476038 0.615829
vt 0.509695 0.615829
vt 0.509695 0.577363
vt 0.522578 0.337266
vt 0.510078 0.362266
vt 0.522578 0.349766
vt 0.422578 0.349766
vt 0.447578 0.362266
vt 0.422578 0.337266
vt 0.447578 0.262266
vt 0.422578 0.274766
vt 0.422578 0.287266
vt 0.237601 0.338651
vt 0.247673 0.350022
vt 0.247673 0.339950
vt 0.247673 0.339950
vt 0.244316 0.339950
vt 0.244316 0.338651
vt 0.244316 0.327819
vt 0.247673 0.323163
vt 0.247673 0.313091
vt 0.237601 0.338651
vt 0.247673 0.313091
vt 0.237601 0.327819
vt 0.244316 0.338651
vt 0.243528 0.339439
vt 0.243528 0.327032
vt 0.238389 0.339439
vt 0.237601 0.338651
vt 0.237601 0.327819
vt 0.244316 0.339950
vt 0.244316 0.327819
vt 0.244316 0.327819
vt 0.244316 0.339950
vt 0.243528 0.339439
vt 0.244316 0.338651
vt 0.244316 0.338651
vt 0.237601 0.338651
vt 0.244316 0.339950
vt 0.237601 0.339950
vt 0.244316 0.326521
vt 0.243528 0.327032
vt 0.243528 0.326521
vt 0.237601 0.339950
vt 0.238389 0.339439
vt 0.238389 0.339950
vt 0.261103 0.339950
vt 0.254388 0.343307
vt 0.261103 0.353379
vt 0.247673 0.353379
vt 0.247673 0.350022
vt 0.247673 0.350022
vt 0.247673 0.343307
vt 0.247673 0.344095
vt 0.247673 0.349234
vt 0.243528 0.339439
vt 0.238389 0.339439
vt 0.244316 0.327819
vt 0.237601 0.327819
vt 0.238389 0.327032
vt 0.243528 0.327032
vt 0.238389 0.327032
vt 0.243528 0.327032
vt 0.238389 0.327032
vt 0.244316 0.326521
vt 0.244316 0.326521
vt 0.238389 0.327032
vt 0.238389 0.339439
vt 0.243528 0.339439
vt 0.237601 0.326521
vt 0.238389 0.326521
vt 0.243528 0.339950
vt 0.237601 0.326521
vt 0.238389 0.326521
vt 0.244316 0.326521
vt 0.243528 0.339950
vt 0.243528 0.326521
vt 0.238389 0.339950
vt 0.247673 0.317236
vt 0.261103 0.326521
vt 0.247673 0.322376
vt 0.247673 0.323163
vt 0.247673 0.316449
vt 0.237601 0.327819
vt 0.237601 0.339950
vt 0.247673 0.316449
vt 0.237601 0.326521
vt 0.254388 0.316449
vt 0.261103 0.313091
vt 0.247673 0.344095
vt 0.261103 0.353379
vt 0.247673 0.349234
vt 0.261103 0.326521
vt 0.247673 0.326521
vt 0.247673 0.323163
vt 0.247673 0.322376
vt 0.247673 0.317236
vt 0.247673 0.343307
vt 0.254388 0.343307
vt 0.261103 0.339950
vt 0.247673 0.353379
vt 0.247673 0.350022
vt 0.254388 0.316449
vt 0.261103 0.313091
vt 0.247673 0.326521
vt 0.247673 0.323163
vt 0.237601 0.326521
vt 0.477640 0.578966
vt 0.464819 0.588582
vt 0.464819 0.578966
vt 0.464819 0.567747
vt 0.477640 0.567747
vt 0.442381 0.590185
vt 0.432764 0.603007
vt 0.432764 0.590185
vt 0.509695 0.603007
vt 0.500078 0.603007
vt 0.463216 0.590185
vt 0.463216 0.603007
vt 0.490462 0.591788
vt 0.451997 0.591788
vt 0.466421 0.615829
vt 0.453600 0.590185
vt 0.453600 0.603007
vt 0.432764 0.577363
vt 0.451997 0.591788
vt 0.477640 0.578966
vt 0.490462 0.591788
vt 0.463216 0.590185
vt 0.500078 0.591788
vt 0.509695 0.588582
vt 0.509695 0.601404
vt 0.477640 0.588582
vt 0.464819 0.558131
vt 0.442381 0.591788
vt 0.432764 0.588582
vt 0.442381 0.578966
vt 0.786197 0.385755
vt 0.715365 0.314922
vt 0.786197 0.244090
vt 0.644533 0.244090
vt 0.644533 0.385755
vt 0.435078 0.341693
vt 0.502005 0.349766
vt 0.451997 0.558131
vt 0.510078 0.341693
vt 0.464505 0.262266
vt 0.490462 0.625445
vt 0.453600 0.603007
vt 0.497578 0.262266
vt 0.490462 0.630253
vt 0.510078 0.262266
vt 0.497578 0.341693
vt 0.447578 0.341693
vt 0.447578 0.349766
vt 0.477640 0.588582
vt 0.451997 0.630253
vt 0.500078 0.615829
vt 0.522578 0.337266
vt 0.502005 0.349766
vt 0.504887 0.577363
vt 0.502005 0.287266
vt 0.422578 0.287266
vt 0.509695 0.577363
vt 0.504887 0.577363
vt 0.497578 0.362266
vt 0.435078 0.362266
vt 0.435078 0.262266
vt 0.237601 0.339950
vt 0.442381 0.603007
vt 0.466421 0.577363
vt 0.464819 0.578966
vt 0.463216 0.603007
vt 0.500078 0.578966
vt 0.451997 0.558131
vt 0.432764 0.601404
vn 0.0000 0.0000 1.0000
vn 1.0000 -0.0000 0.0000
vn -0.0000 1.0000 0.0000
vn -1.0000 0.0000 0.0000
vn 0.0000 0.0000 -1.0000
vn -0.5227 -0.6734 0.5227
vn -0.3168 -0.6101 0.7262
vn -0.7262 -0.6101 0.3168
vn -0.5227 -0.6734 -0.5227
vn -0.7262 -0.6101 -0.3168
vn -0.3168 -0.6101 -0.7262
vn 0.5227 -0.6734 0.5227
vn 0.7262 -0.6101 0.3168
vn 0.3168 -0.6101 0.7262
vn 0.5227 -0.6734 -0.5227
vn 0.3168 -0.6101 -0.7262
vn 0.7262 -0.6101 -0.3168
vn -0.7622 -0.6252 0.1678
vn -0.8575 -0.5145 0.0000
vn -0.7071 0.0000 0.7071
vn -0.7071 -0.0000 -0.7071
vn -0.1678 -0.6252 -0.7622
vn 0.0000 -0.5145 -0.8575
vn 0.7071 0.0000 -0.7071
vn 0.7622 -0.6252 -0.1678
vn 0.8575 -0.5145 0.0000
vn 0.7071 0.0000 0.7071
vn 0.1678 -0.6252 0.7622
vn 0.0000 -0.5145 0.8575
vn 0.0000 -1.0000 0.0000
vn 0.1678 -0.6252 -0.7622
vn -0.1678 -0.6252 0.7622
vn 0.7622 -0.6252 0.1678
vn 0.4575 -0.4575 -0.7625
vn -0.7622 -0.6252 -0.1678
vn 0.7625 -0.4575 -0.4575
vn -0.2715 -0.0000 0.9624
vn -0.8328 -0.5026 -0.2322
vn -0.8339 -0.5030 -0.2271
vn -0.8322 -0.5023 -0.2347
vn -0.9624 0.0000 -0.2715
vn 0.9624 -0.0000 -0.2715
vn 0.2322 -0.5026 0.8328
vn 0.2271 -0.5030 0.8339
vn 0.2242 -0.5032 0.8346
vn -0.2322 -0.5026 -0.8328
vn -0.2271 -0.5030 -0.8339
vn -0.2242 -0.5032 -0.8346
vn 0.1160 -0.0258 0.9929
vn 0.1015 -0.0441 0.9939
vn 0.1130 -0.0296 0.9932
vn -0.1015 -0.0441 0.9939
vn -0.1160 -0.0258 0.9929
vn -0.1130 -0.0296 0.9932
vn -0.1362 -0.0000 0.9907
vn 0.1362 -0.0000 0.9907
vn 0.4703 -0.2045 0.8585
vn -0.4703 -0.2045 0.8585
vn -0.9624 0.0000 0.2715
vn 0.2271 -0.5030 -0.8339
vn 0.2322 -0.5026 -0.8328
vn 0.2242 -0.5032 -0.8346
vn -0.2322 -0.5026 0.8328
vn -0.2271 -0.5030 0.8339
vn -0.2347 -0.5023 0.8322
vn -0.2715 -0.0000 -0.9624
vn 0.8339 -0.5030 0.2271
vn 0.8328 -0.5026 0.2322
vn 0.8346 -0.5032 0.2242
vn 0.2715 0.0000 0.9624
vn -0.8328 -0.5026 0.2322
vn -0.8339 -0.5030 0.2271
vn -0.8346 -0.5032 0.2242
vn 0.8328 -0.5026 -0.2322
vn 0.8339 -0.5030 -0.2271
vn 0.8346 -0.5032 -0.2242
vn -0.0000 0.0995 -0.9950
vn 0.2715 0.0000 -0.9624
vn -0.9907 0.0000 0.1362
vn -0.9929 -0.0258 0.1160
vn -0.9932 -0.0296 0.1130
vn -0.9939 -0.0441 0.1015
vn 0.9950 0.0995 -0.0000
vn -0.9939 -0.0441 -0.1015
vn -0.9929 -0.0258 -0.1160
vn -0.9932 -0.0296 -0.1130
vn -0.8585 -0.2045 -0.4703
vn -0.9907 0.0000 -0.1362
vn -0.8585 -0.2045 0.4703
vn 0.9907 0.0000 -0.1362
vn 0.9929 -0.0258 -0.1160
vn 0.9932 -0.0296 -0.1130
vn 0.9939 -0.0441 -0.1015
vn 0.0000 0.0995 0.9950
vn 0.9939 -0.0441 0.1015
vn 0.9929 -0.0258 0.1160
vn 0.9932 -0.0296 0.1130
vn 0.8585 -0.2045 0.4703
vn 0.9907 -0.0000 0.1362
vn 0.8585 -0.2045 -0.4703
vn -0.1362 0.0000 -0.9907
vn -0.1160 -0.0258 -0.9929
vn -0.1130 -0.0296 -0.9932
vn -0.1015 -0.0441 -0.9939
vn -0.9950 0.0995 0.0000
vn 0.1015 -0.0441 -0.9939
vn 0.1160 -0.0258 -0.9929
vn 0.1130 -0.0296 -0.9932
vn 0.4703 -0.2045 -0.8585
vn 0.1362 0.0000 -0.9907
vn -0.4703 -0.2045 -0.8585
vn 0.9624 0.0000 0.2715
vn -0.7625 -0.4575 -0.4575
vn -0.4575 -0.4575 0.7625
vn 0.7625 -0.4575 0.4575
vn -0.4575 -0.4575 -0.7625
vn -0.7625 -0.4575 0.4575
vn 0.4575 -0.4575 0.7625
vn 0.6038 0.7971 0.0000
vn 0.0000 0.7971 0.6038
vn 0.0000 0.7971 -0.6038
vn -0.6038 0.7971 0.0000
vn -0.8346 -0.5032 -0.2242
vn 0.2347 -0.5023 0.8322
vn -0.2347 -0.5023 -0.8322
vn 0.2347 -0.5023 -0.8322
vn -0.2242 -0.5032 0.8346
vn 0.8322 -0.5023 0.2347
vn -0.8322 -0.5023 0.2347
vn 0.8322 -0.5023 -0.2347
usemtl Material
s 1
f 29/1/1 2/2/1 28/3/1
f 38/4/2 12/5/2 36/6/2
f 29/7/3 43/8/3 37/9/3
f 43/10/4 7/11/4 41/12/4
f 26/13/5 17/14/5 22/15/5
f 1/16/6 2/2/7 3/17/8
f 6/18/9 7/19/10 8/20/11
f 11/21/12 12/22/13 13/23/14
f 16/24/15 17/25/16 18/26/17
f 33/27/18 3/28/8 34/29/19
f 2/2/20 4/30/20 3/17/20
f 8/31/21 10/32/21 9/33/21
f 27/34/22 8/20/11 31/35/23
f 18/36/24 20/37/24 19/38/24
f 42/39/25 18/26/17 46/40/26
f 13/23/27 15/41/27 14/42/27
f 23/43/28 13/23/14 24/44/29
f 39/45/30 11/46/30 23/47/30
f 39/48/30 32/49/30 40/50/30
f 33/51/2 121/52/2 45/53/2
f 21/54/31 17/25/16 16/24/15
f 30/55/5 22/56/5 31/57/5
f 19/58/3 26/59/3 44/60/3
f 14/42/1 24/44/1 13/23/1
f 9/61/5 31/62/5 8/63/5
f 32/64/32 2/2/7 1/16/6
f 40/65/30 1/66/30 33/27/30
f 22/56/5 113/67/5 31/57/5
f 26/68/3 29/7/3 25/69/3
f 25/70/1 28/71/1 24/72/1
f 48/73/30 33/74/30 45/75/30
f 47/76/30 40/50/30 48/73/30
f 42/77/30 39/48/30 47/76/30
f 35/78/33 12/79/13 11/46/12
f 21/80/34 114/81/34 22/82/34
f 3/83/4 37/84/4 34/85/4
f 46/86/2 38/87/2 36/88/2
f 19/38/2 46/89/2 18/36/2
f 45/90/35 7/19/10 6/18/9
f 16/24/30 47/91/30 21/54/30
f 21/80/30 48/73/30 27/92/30
f 6/18/30 48/93/30 45/90/30
f 42/77/36 123/94/36 128/95/36
f 37/96/4 41/97/4 34/98/4
f 26/68/3 38/99/3 44/100/3
f 38/101/3 14/102/3 15/103/3
f 4/104/3 29/105/3 37/106/3
f 30/107/3 10/108/3 43/109/3
f 95/110/30 84/111/30 78/112/30
f 75/113/30 58/114/30 91/115/30
f 87/116/30 66/117/30 71/118/30
f 67/119/30 49/120/30 93/121/30
f 100/122/20 89/123/20 55/124/20
f 63/125/24 72/126/24 97/127/24
f 93/121/24 72/126/24 67/119/24
f 100/122/37 58/114/37 106/128/37
f 57/129/20 100/122/20 73/130/20
f 107/131/38 60/132/39 76/133/40
f 62/134/21 98/135/21 95/110/21
f 107/131/41 62/134/41 51/136/41
f 109/137/42 67/119/42 72/126/42
f 111/138/43 85/139/44 101/140/45
f 108/141/46 92/142/47 103/143/48
f 78/112/49 77/144/50 107/145/51
f 53/146/52 49/147/53 109/148/54
f 49/147/53 54/149/55 109/148/54
f 107/145/51 51/150/56 78/112/49
f 82/151/57 107/145/57 77/144/57
f 53/146/58 109/148/58 81/152/58
f 90/153/4 92/142/4 86/154/4
f 85/139/27 99/155/27 70/156/27
f 90/153/30 94/157/30 96/158/30
f 70/156/27 59/159/27 85/139/27
f 59/159/1 68/160/1 65/161/1
f 92/142/21 98/135/21 76/133/21
f 50/162/59 73/130/59 105/163/59
f 76/133/21 60/132/21 92/142/21
f 88/164/2 96/158/2 94/157/2
f 60/132/5 56/165/5 61/166/5
f 86/154/21 60/132/21 61/166/21
f 88/164/30 101/140/30 85/139/30
f 88/164/60 110/167/61 102/168/62
f 104/169/30 92/142/30 89/123/30
f 106/128/63 89/123/64 100/122/65
f 108/141/66 95/110/66 98/135/66
f 59/159/67 112/170/68 80/171/69
f 66/172/70 99/155/70 111/138/70
f 63/125/24 94/157/24 56/165/24
f 82/173/30 63/125/30 60/132/30
f 105/163/71 55/124/72 79/174/73
f 109/137/74 63/125/75 81/175/76
f 80/176/77 74/177/77 79/178/77
f 78/112/30 51/150/30 62/134/30
f 62/134/30 95/110/30 78/112/30
f 91/115/30 57/129/30 75/113/30
f 57/129/30 50/179/30 75/113/30
f 71/118/30 52/180/30 64/181/30
f 64/181/30 87/116/30 71/118/30
f 54/182/30 49/120/30 67/119/30
f 49/120/30 83/183/30 93/121/30
f 70/156/27 87/116/27 64/181/27
f 55/124/20 73/130/20 100/122/20
f 97/127/78 83/184/78 110/167/78
f 55/124/30 80/171/30 79/174/30
f 97/127/24 88/164/24 63/125/24
f 55/124/20 90/153/20 68/160/20
f 83/183/79 49/120/80 110/185/81
f 49/120/80 53/186/82 110/185/81
f 104/187/83 77/188/83 103/189/83
f 69/190/84 71/191/85 111/192/86
f 101/193/87 69/190/87 111/192/87
f 71/191/85 66/117/88 111/192/86
f 102/194/89 110/185/89 53/186/89
f 58/195/90 75/113/91 106/196/92
f 75/113/91 74/197/93 106/196/92
f 53/146/94 82/151/94 77/144/94
f 77/188/95 78/198/96 108/199/97
f 103/189/98 77/188/98 108/199/98
f 78/198/96 84/111/99 108/199/97
f 104/187/100 106/196/100 74/197/100
f 52/180/101 71/118/102 112/200/103
f 71/118/102 69/201/104 112/200/103
f 102/194/105 69/190/105 101/193/105
f 74/177/106 75/202/107 105/203/108
f 79/178/109 74/177/109 105/203/109
f 75/202/107 50/179/110 105/203/108
f 80/176/111 112/200/111 69/201/111
f 86/154/30 61/166/30 56/165/30
f 56/165/30 94/157/30 86/154/30
f 70/156/112 52/204/112 112/170/112
f 96/158/30 65/161/30 68/160/30
f 68/160/30 90/153/30 96/158/30
f 85/139/27 65/161/27 96/158/27
f 116/205/29 120/206/29 115/207/29
f 119/208/23 114/81/23 118/209/23
f 121/210/19 126/211/19 127/212/19
f 128/95/26 124/213/26 125/214/26
f 34/98/4 127/215/4 126/216/4
f 23/217/5 115/207/5 32/218/5
f 35/219/4 128/220/4 125/221/4
f 45/75/113 127/212/113 41/222/113
f 32/218/114 120/206/114 28/71/114
f 27/223/1 118/224/1 21/225/1
f 36/88/2 123/226/2 46/86/2
f 35/227/115 124/228/115 36/229/115
f 28/71/1 117/230/1 24/72/1
f 27/92/116 113/231/116 119/208/116
f 33/232/117 126/233/117 122/234/117
f 23/217/118 117/230/118 116/205/118
f 130/235/119 132/236/119 133/237/119
f 133/237/120 132/236/120 131/238/120
f 130/235/121 129/239/121 132/236/121
f 132/236/122 129/239/122 131/238/122
f 29/1/1 5/240/1 2/2/1
f 38/4/2 15/241/2 12/5/2
f 29/7/3 30/242/3 43/8/3
f 43/10/4 10/32/4 7/11/4
f 26/13/5 20/243/5 17/14/5
f 33/27/18 1/66/6 3/28/8
f 2/2/20 5/240/20 4/30/20
f 8/31/21 7/11/21 10/32/21
f 27/34/22 6/18/9 8/20/11
f 18/36/24 17/244/24 20/37/24
f 42/39/25 16/24/15 18/26/17
f 13/23/27 12/22/27 15/41/27
f 23/43/28 11/21/12 13/23/14
f 39/45/30 35/78/30 11/46/30
f 39/48/30 23/245/30 32/49/30
f 33/51/2 122/246/2 121/52/2
f 21/54/31 22/247/23 17/25/16
f 30/55/5 26/248/5 22/56/5
f 19/58/3 20/249/3 26/59/3
f 14/42/1 25/250/1 24/44/1
f 9/61/5 30/251/5 31/62/5
f 32/64/32 28/3/29 2/2/7
f 40/65/30 32/252/30 1/66/30
f 22/56/5 114/253/5 113/67/5
f 26/68/3 30/242/3 29/7/3
f 25/70/1 29/254/1 28/71/1
f 48/73/30 40/50/30 33/74/30
f 47/76/30 39/48/30 40/50/30
f 42/77/30 35/255/30 39/48/30
f 35/78/33 36/256/26 12/79/13
f 21/80/34 118/209/34 114/81/34
f 3/83/4 4/257/4 37/84/4
f 46/86/2 44/258/2 38/87/2
f 19/38/2 44/259/2 46/89/2
f 45/90/35 41/260/19 7/19/10
f 16/24/30 42/39/30 47/91/30
f 21/80/30 47/76/30 48/73/30
f 6/18/30 27/34/30 48/93/30
f 42/77/36 46/261/36 123/94/36
f 37/96/4 43/262/4 41/97/4
f 26/68/3 25/69/3 38/99/3
f 38/101/3 25/263/3 14/102/3
f 4/104/3 5/264/3 29/105/3
f 30/107/3 9/265/3 10/108/3
f 93/121/24 97/127/24 72/126/24
f 100/122/37 91/115/37 58/114/37
f 57/129/20 91/115/20 100/122/20
f 107/131/38 82/173/123 60/132/39
f 62/134/21 76/133/21 98/135/21
f 107/131/41 76/133/41 62/134/41
f 109/137/42 54/182/42 67/119/42
f 111/138/43 99/155/124 85/139/44
f 108/141/46 98/135/125 92/142/47
f 90/153/4 89/123/4 92/142/4
f 90/153/30 86/154/30 94/157/30
f 59/159/1 55/124/1 68/160/1
f 50/162/59 57/129/59 73/130/59
f 88/164/2 85/139/2 96/158/2
f 60/132/5 63/125/5 56/165/5
f 86/154/21 92/142/21 60/132/21
f 88/164/30 102/168/30 101/140/30
f 88/164/60 97/127/126 110/167/61
f 104/169/30 103/143/30 92/142/30
f 106/128/63 104/169/127 89/123/64
f 108/141/66 84/266/66 95/110/66
f 59/159/67 70/156/128 112/170/68
f 66/172/70 87/116/70 99/155/70
f 63/125/24 88/164/24 94/157/24
f 82/173/30 81/175/30 63/125/30
f 105/163/71 73/130/129 55/124/72
f 109/137/74 72/126/130 63/125/75
f 80/176/77 69/201/77 74/177/77
f 70/156/27 99/155/27 87/116/27
f 97/127/78 93/121/78 83/184/78
f 55/124/30 59/159/30 80/171/30
f 55/124/20 89/123/20 90/153/20
f 104/187/83 74/197/83 77/188/83
f 53/146/94 81/152/94 82/151/94
f 102/194/105 53/186/105 69/190/105
f 70/156/112 64/181/112 52/204/112
f 85/139/27 59/159/27 65/161/27
f 116/205/29 117/230/29 120/206/29
f 119/208/23 113/231/23 114/81/23
f 121/210/19 122/267/19 126/211/19
f 128/95/26 123/94/26 124/213/26
f 34/98/4 41/97/4 127/215/4
f 23/217/5 116/205/5 115/207/5
f 35/219/4 42/268/4 128/220/4
f 45/75/113 121/210/113 127/212/113
f 32/218/114 115/207/114 120/206/114
f 27/223/1 119/269/1 118/224/1
f 36/88/2 124/270/2 123/226/2
f 35/227/115 125/271/115 124/228/115
f 28/71/1 120/206/1 117/230/1
f 27/92/116 31/272/116 113/231/116
f 33/232/117 34/273/117 126/233/117
f 23/217/118 24/72/118 117/230/118
