# Blender v2.79 (sub 0) OBJ File: 'swivel.blend'
# www.blender.org
mtllib swivel_base.mtl
o Cube_Cube.001
v -0.375000 -0.437500 1.375000
v -0.375000 0.437500 1.375000
v -0.375000 -0.437500 -0.375000
v -0.375000 0.437500 -0.375000
v 1.375000 -0.437500 1.375000
v 1.375000 0.437500 1.375000
v 1.375000 -0.437500 -0.375000
v 1.375000 0.437500 -0.375000
v 0.500000 0.500000 1.500000
v -0.500000 0.500000 0.500000
v 0.500000 0.500000 -0.500000
v 1.500000 0.500000 0.499994
v -0.383339 0.500000 0.974128
v -0.469217 0.500000 0.770220
v -0.496532 0.500000 0.618734
v -0.496532 0.500000 0.381266
v -0.469217 0.500000 0.229779
v -0.383339 0.500000 0.025872
v -0.207106 0.500000 -0.207107
v 0.025872 0.500000 -0.383339
v 0.229780 0.500000 -0.469217
v 0.381266 0.500000 -0.496532
v 0.618734 0.500000 -0.496531
v 0.770220 0.500000 -0.469217
v 0.974128 0.500000 -0.383338
v 1.207107 0.500000 -0.207107
v 1.383338 0.500000 0.025872
v 1.469217 0.500000 0.229780
v 1.496532 0.500000 0.381266
v 1.496531 0.500000 0.618734
v 1.469217 0.500000 0.770220
v 1.383338 0.500000 0.974128
v 1.207107 0.500000 1.207107
v 0.974128 0.500000 1.383338
v 0.770220 0.500000 1.469217
v 0.618734 0.500000 1.496532
v 0.381266 0.500000 1.496531
v 0.229780 0.500000 1.469217
v 0.025872 0.500000 1.383338
v -0.207106 0.500000 1.207107
v -0.162504 0.250000 0.855596
v -0.226913 0.250000 0.702665
v -0.247399 0.250000 0.589050
v -0.250000 0.250000 0.500000
v -0.247399 0.250000 0.410950
v -0.226912 0.250000 0.297335
v -0.162504 0.250000 0.144404
v -0.030330 0.250000 -0.030330
v 0.144404 0.250000 -0.162504
v 0.297335 0.250000 -0.226913
v 0.410950 0.250000 -0.247399
v 0.500000 0.250000 -0.250000
v 0.589050 0.250000 -0.247398
v 0.702665 0.250000 -0.226913
v 0.855596 0.250000 -0.162504
v 1.030330 0.250000 -0.030330
v 1.162504 0.250000 0.144404
v 1.226913 0.250000 0.297335
v 1.247399 0.250000 0.410949
v 1.250000 0.250000 0.499995
v 1.247399 0.250000 0.589050
v 1.226913 0.250000 0.702665
v 1.162504 0.250000 0.855596
v 1.030330 0.250000 1.030330
v 0.855596 0.250000 1.162504
v 0.702665 0.250000 1.226912
v 0.589050 0.250000 1.247399
v 0.500000 0.250000 1.250000
v 0.410950 0.250000 1.247399
v 0.297335 0.250000 1.226912
v 0.144404 0.250000 1.162504
v -0.030330 0.250000 1.030330
v 0.500000 -0.500000 1.500000
v -0.500000 -0.500000 0.500000
v 0.500000 -0.500000 -0.500000
v 1.500000 -0.500000 0.500000
v 1.125000 0.500000 1.500000
v 1.500000 0.500000 1.124997
v 1.125000 0.500000 -0.500000
v 1.500000 0.500000 -0.125003
v -0.500000 0.500000 -0.124999
v -0.125000 0.500000 -0.500000
v -0.125000 0.500000 1.500000
v -0.500000 0.500000 1.125001
v 1.500000 -0.500000 -0.125000
v 1.500000 -0.500000 1.125000
v -0.125000 -0.500000 -0.500000
v 1.125000 -0.500000 -0.500000
v 1.125000 -0.500000 1.500000
v -0.125000 -0.500000 1.500000
v -0.500000 -0.500000 1.124983
v -0.500000 -0.500000 -0.124999
v -0.375000 -0.250000 1.375000
v -0.375000 -0.250000 -0.375000
v 1.375000 -0.250000 -0.375000
v 1.375000 -0.250000 1.375000
v 0.500000 0.250000 1.500000
v -0.500000 0.250000 0.500000
v 0.500000 0.250000 -0.500000
v 1.500000 0.250000 0.499997
v 1.500000 0.250000 -0.125002
v 1.500000 0.250000 1.124998
v -0.125000 0.250000 -0.500000
v 1.125000 0.250000 -0.500000
v 1.125000 0.250000 1.500000
v -0.125000 0.250000 1.500000
v -0.500000 0.250000 1.124992
v -0.500000 0.250000 -0.124999
v -0.391009 0.089891 1.391009
v -0.136435 0.376286 -0.518296
v -0.518296 0.376286 1.136431
v -0.391009 0.089891 -0.391009
v 1.391009 0.089891 -0.391009
v 1.391009 0.089891 1.391009
v 0.500000 0.376286 1.518296
v -0.518296 0.376286 0.500000
v 0.500000 0.376286 -0.518296
v 1.518296 0.376286 0.499995
v 1.518296 0.376286 -0.136437
v 1.518296 0.376286 1.136432
v 1.136435 0.376286 -0.518296
v 1.136435 0.376286 1.518296
v -0.136435 0.376286 1.518296
v -0.518296 0.376286 -0.136434
v 0.867977 -0.132023 1.500001
v 1.132023 -0.132023 1.500001
v 1.132023 0.132023 1.500001
v 0.867977 0.132023 1.500001
v 1.000000 0.000000 1.600002
v 0.000000 0.000000 1.600002
v 0.132023 -0.132023 1.500001
v 0.132023 0.132023 1.500001
v -0.132023 0.132023 1.500001
v -0.132023 -0.132023 1.500001
v -0.500002 -0.132023 0.867980
v -0.500002 -0.132023 1.132026
v -0.500002 0.132023 1.132026
v -0.500002 0.132023 0.867980
v -0.600002 0.000000 1.000004
v -0.500001 -0.132022 -0.132020
v -0.600002 0.000001 0.000004
v -0.500001 -0.132022 0.132026
v -0.500002 0.132023 0.132026
v -0.500002 0.132023 -0.132020
v 0.132020 0.132023 -0.499997
v -0.132026 -0.132022 -0.499997
v -0.132026 0.132023 -0.499997
v -0.000003 0.000001 -0.599998
v 0.132020 -0.132022 -0.499997
v 1.132020 0.132024 -0.499997
v 0.867974 -0.132022 -0.499997
v 0.867974 0.132023 -0.499997
v 0.999996 0.000001 -0.599998
v 1.132020 -0.132022 -0.499997
v 1.499998 -0.132022 0.132023
v 1.499998 0.132023 -0.132023
v 1.599998 0.000001 0.000000
v 1.499998 0.132023 0.132023
v 1.499998 -0.132022 -0.132023
v 1.499998 0.132023 1.132023
v 1.499998 0.132023 0.867977
v 1.499998 -0.132023 0.867977
v 1.599998 0.000000 1.000000
v 1.499998 -0.132023 1.132023
v 0.867977 -0.499998 0.132023
v 1.132023 -0.499998 -0.132023
v 1.000000 -0.599998 0.000000
v 1.132023 -0.499998 0.132023
v 0.867977 -0.499998 -0.132023
v 1.132023 -0.499998 1.132023
v 1.132023 -0.499998 0.867977
v 0.867977 -0.499998 0.867977
v 1.000000 -0.599998 1.000000
v 0.867977 -0.499998 1.132023
v -0.132023 -0.499998 0.132023
v 0.132023 -0.499998 -0.132023
v 0.000000 -0.599998 0.000000
v 0.132023 -0.499998 0.132023
v -0.132023 -0.499998 -0.132023
v 0.132023 -0.499998 1.132023
v 0.132023 -0.499998 0.867977
v -0.132023 -0.499998 0.867977
v 0.000000 -0.599998 1.000000
v -0.132023 -0.499998 1.132023
vt 0.320286 0.850624
vt 0.284543 0.886755
vt 0.320286 0.922777
vt 0.247709 0.850624
vt 0.247709 0.922777
vt 0.320286 0.850624
vt 0.284544 0.886755
vt 0.320286 0.922777
vt 0.247709 0.850624
vt 0.247709 0.922777
vt 0.247709 0.850624
vt 0.284544 0.886755
vt 0.247709 0.922777
vt 0.320286 0.850624
vt 0.320286 0.922777
vt 0.247709 0.850624
vt 0.284544 0.886755
vt 0.247709 0.922777
vt 0.320286 0.850624
vt 0.320286 0.922777
vt 0.247709 0.850624
vt 0.284544 0.886755
vt 0.247709 0.922777
vt 0.320286 0.850624
vt 0.320286 0.922777
vt 0.247709 0.850624
vt 0.284543 0.886755
vt 0.247709 0.922777
vt 0.320286 0.850624
vt 0.320286 0.922777
vt 0.320286 0.850624
vt 0.284544 0.886755
vt 0.320286 0.922777
vt 0.247709 0.850624
vt 0.247709 0.922777
vt 0.320286 0.850624
vt 0.284544 0.886755
vt 0.320286 0.922777
vt 0.247709 0.850624
vt 0.247709 0.922777
vt 0.320286 0.850624
vt 0.284544 0.886755
vt 0.320286 0.922777
vt 0.247709 0.850624
vt 0.247709 0.922777
vt 0.320286 0.850624
vt 0.284544 0.886755
vt 0.320286 0.922777
vt 0.247709 0.850624
vt 0.247709 0.922777
vt 0.320286 0.850624
vt 0.284544 0.886755
vt 0.320286 0.922777
vt 0.247709 0.850624
vt 0.247709 0.922777
vt 0.320286 0.850624
vt 0.284544 0.886755
vt 0.320286 0.922777
vt 0.247709 0.850624
vt 0.247709 0.922777
vt 0.419826 0.955024
vt 0.419245 0.955096
vt 0.419245 0.953144
vt 0.419921 0.953396
vt 0.426329 0.947437
vt 0.426273 0.946809
vt 0.428414 0.946735
vt 0.428150 0.947488
vt 0.434457 0.953904
vt 0.435036 0.953849
vt 0.434918 0.955801
vt 0.434257 0.955523
vt 0.427873 0.961456
vt 0.427910 0.962092
vt 0.425750 0.962044
vt 0.426032 0.961294
vt 0.794726 0.132978
vt 0.802231 0.117561
vt 0.801008 0.148827
vt 0.438202 0.964258
vt 0.435807 0.965046
vt 0.439360 0.962019
vt 0.437760 0.949520
vt 0.435840 0.947728
vt 0.437236 0.946909
vt 0.424726 0.948521
vt 0.422935 0.950449
vt 0.422112 0.949052
vt 0.423725 0.961522
vt 0.425642 0.963310
vt 0.424250 0.964128
vt 0.158483 0.569847
vt 0.170688 0.569847
vt 0.170688 0.504372
vt 0.158483 0.504372
vt 0.261639 0.504372
vt 0.268029 0.504372
vt 0.277229 0.504372
vt 0.289433 0.504372
vt 0.301638 0.504372
vt 0.310838 0.504372
vt 0.317228 0.504372
vt 0.322171 0.504372
vt 0.327114 0.504372
vt 0.333504 0.504372
vt 0.342704 0.504372
vt 0.354909 0.504372
vt 0.367113 0.504372
vt 0.376313 0.504372
vt 0.382703 0.504372
vt 0.387646 0.504372
vt 0.392589 0.504372
vt 0.398979 0.504372
vt 0.408179 0.504372
vt 0.179887 0.504372
vt 0.186278 0.504372
vt 0.191221 0.504372
vt 0.196164 0.504372
vt 0.202554 0.504372
vt 0.211754 0.504372
vt 0.223958 0.504372
vt 0.236163 0.504372
vt 0.245363 0.504372
vt 0.251753 0.504372
vt 0.256696 0.504372
vt 0.261639 0.569847
vt 0.268029 0.569847
vt 0.146279 0.569847
vt 0.146279 0.504372
vt 0.256696 0.569847
vt 0.137079 0.569847
vt 0.137079 0.504372
vt 0.251753 0.569847
vt 0.130689 0.569847
vt 0.130689 0.504372
vt 0.245363 0.569847
vt 0.125746 0.569847
vt 0.125746 0.504372
vt 0.236163 0.569847
vt 0.071604 0.569847
vt 0.080804 0.569847
vt 0.080804 0.504372
vt 0.071604 0.504372
vt 0.120803 0.569847
vt 0.120803 0.504372
vt 0.223958 0.569847
vt 0.065214 0.569847
vt 0.065214 0.504372
vt 0.114412 0.569847
vt 0.114412 0.504372
vt 0.211754 0.569847
vt 0.060271 0.569847
vt 0.060271 0.504372
vt 0.105213 0.569847
vt 0.105213 0.504372
vt 0.202554 0.569847
vt 0.055328 0.569847
vt 0.055328 0.504372
vt 0.093009 0.569847
vt 0.093009 0.504372
vt 0.196164 0.569847
vt 0.048938 0.569847
vt 0.048938 0.504372
vt 0.191221 0.569847
vt 0.039738 0.569847
vt 0.039738 0.504372
vt 0.186278 0.569847
vt 0.289433 0.569847
vt 0.301638 0.569847
vt 0.179887 0.569847
vt 0.277229 0.569847
vt 0.422917 0.959207
vt 0.422419 0.959812
vt 0.419693 0.957018
vt 0.420314 0.956631
vt 0.422076 0.950392
vt 0.421459 0.949881
vt 0.424257 0.947197
vt 0.424620 0.947839
vt 0.431341 0.949583
vt 0.431858 0.948973
vt 0.434596 0.951939
vt 0.433961 0.952334
vt 0.432047 0.958410
vt 0.432639 0.958908
vt 0.429983 0.961712
vt 0.429581 0.961058
vt 0.440262 0.950437
vt 0.439469 0.948055
vt 0.436737 0.962540
vt 0.438539 0.960615
vt 0.421226 0.960609
vt 0.422020 0.962985
vt 0.425643 0.946009
vt 0.423256 0.946809
vt 0.943424 0.147889
vt 0.943787 0.116109
vt 0.950618 0.131979
vt 0.889324 0.059357
vt 0.858888 0.060302
vt 0.874079 0.053201
vt 0.829223 0.087051
vt 0.918346 0.087257
vt 0.918497 0.178625
vt 0.889697 0.205484
vt 0.859011 0.206584
vt 0.829743 0.178262
vt 0.874549 0.212731
vt 0.749014 0.174701
vt 0.778736 0.132401
vt 0.834066 0.257931
vt 0.784201 0.224141
vt 0.915849 0.254266
vt 0.875055 0.227986
vt 0.996035 0.176668
vt 0.960714 0.220549
vt 0.833526 0.011077
vt 0.873762 0.038176
vt 0.751009 0.087113
vt 0.787696 0.043896
vt 0.996035 0.087139
vt 0.966929 0.132077
vt 0.913889 0.010377
vt 0.960080 0.043876
vt 0.424982 0.948480
vt 0.426384 0.948064
vt 0.420597 0.953648
vt 0.422693 0.950904
vt 0.420936 0.956244
vt 0.420407 0.954951
vt 0.426314 0.960544
vt 0.423415 0.958603
vt 0.433327 0.952729
vt 0.433878 0.953959
vt 0.427885 0.948242
vt 0.430823 0.950194
vt 0.429180 0.960403
vt 0.427836 0.960819
vt 0.433595 0.955244
vt 0.431455 0.957911
vt 0.440287 0.956254
vt 0.440233 0.954880
vt 0.439990 0.953513
vt 0.432839 0.946250
vt 0.431488 0.945984
vt 0.434152 0.946702
vt 0.439238 0.951689
vt 0.430111 0.946038
vt 0.428737 0.946282
vt 0.421462 0.953455
vt 0.421200 0.954802
vt 0.421911 0.952141
vt 0.426903 0.947038
vt 0.421254 0.956173
vt 0.421497 0.957537
vt 0.428636 0.964782
vt 0.429980 0.965046
vt 0.427326 0.964333
vt 0.422248 0.959357
vt 0.431351 0.964998
vt 0.432720 0.964761
vt 0.440021 0.957604
vt 0.439568 0.958921
vt 0.434552 0.964014
vn -0.6038 0.0000 0.7971
vn 0.6038 0.0000 0.7971
vn 0.0000 0.6038 0.7971
vn 0.0000 -0.6038 0.7971
vn -0.7971 0.0000 -0.6038
vn -0.7971 0.0000 0.6038
vn -0.7971 0.6038 0.0000
vn -0.7971 -0.6038 -0.0000
vn 0.6038 -0.0000 -0.7971
vn -0.6038 0.0000 -0.7971
vn 0.0000 0.6038 -0.7971
vn 0.0000 -0.6038 -0.7971
vn 0.7971 0.0000 0.6038
vn 0.7971 0.0000 -0.6038
vn 0.7971 0.6038 -0.0000
vn 0.7971 -0.6038 -0.0000
vn 0.0000 -0.7971 0.6038
vn 0.0000 -0.7971 -0.6038
vn 0.6038 -0.7971 -0.0000
vn -0.6038 -0.7971 0.0000
vn -0.7063 -0.0483 0.7063
vn -0.7039 0.0950 0.7039
vn -0.9653 0.1261 0.2285
vn -0.9696 0.0251 0.2433
vn -0.7063 -0.0483 -0.7063
vn -0.7039 0.0950 -0.7039
vn -0.2285 0.1261 -0.9653
vn -0.2433 0.0251 -0.9696
vn 0.7063 -0.0483 -0.7063
vn 0.7039 0.0950 -0.7039
vn 0.9653 0.1261 -0.2285
vn 0.9696 0.0251 -0.2433
vn 0.7063 -0.0483 0.7063
vn 0.7039 0.0950 0.7039
vn 0.2285 0.1261 0.9653
vn 0.2433 0.0251 0.9696
vn -0.4082 -0.8165 -0.4082
vn -0.0590 -0.9965 -0.0590
vn 0.4083 0.8165 -0.4083
vn 0.0590 0.9965 -0.0590
vn 0.0000 1.0000 0.0000
vn 0.0590 0.9965 0.0590
vn -0.0590 0.9965 0.0590
vn -0.0590 0.9965 -0.0590
vn -0.5000 0.7071 -0.5000
vn -0.6125 0.7079 -0.3519
vn -0.3526 0.9132 -0.2042
vn -0.2903 0.9118 -0.2903
vn 0.0409 0.9177 0.3950
vn 0.1152 0.9149 0.3869
vn 0.2042 0.9132 0.3526
vn 0.2903 0.9118 0.2903
vn 0.3526 0.9132 0.2042
vn 0.3869 0.9149 0.1152
vn 0.3950 0.9177 0.0409
vn 0.3887 0.9214 0.0000
vn 0.3950 0.9177 -0.0409
vn 0.3869 0.9149 -0.1152
vn 0.3526 0.9132 -0.2042
vn 0.2903 0.9118 -0.2903
vn 0.2042 0.9132 -0.3526
vn 0.1152 0.9149 -0.3869
vn 0.0409 0.9177 -0.3950
vn 0.0000 0.9214 -0.3887
vn -0.0409 0.9177 -0.3950
vn -0.1152 0.9149 -0.3869
vn -0.2042 0.9132 -0.3526
vn -0.3869 0.9149 -0.1152
vn -0.3950 0.9177 -0.0409
vn -0.3887 0.9214 0.0000
vn -0.3950 0.9177 0.0409
vn -0.3869 0.9149 0.1152
vn -0.3526 0.9132 0.2042
vn -0.2903 0.9118 0.2903
vn -0.2042 0.9132 0.3526
vn -0.1152 0.9149 0.3869
vn -0.0409 0.9177 0.3950
vn -0.0000 0.9214 0.3887
vn 0.0735 0.7083 0.7020
vn 0.2001 0.7092 0.6760
vn -0.3519 0.7079 -0.6125
vn -0.0000 0.7071 0.7071
vn -0.2001 0.7092 -0.6760
vn -0.0735 0.7083 0.7020
vn -0.0735 0.7083 -0.7020
vn -0.2001 0.7092 0.6760
vn 0.0000 0.7071 -0.7071
vn -0.3519 0.7079 0.6125
vn 0.6760 0.7092 -0.2001
vn 0.6125 0.7079 -0.3519
vn 0.0735 0.7083 -0.7020
vn -0.5000 0.7071 0.5000
vn 0.7020 0.7083 -0.0735
vn 0.2001 0.7092 -0.6760
vn -0.6125 0.7079 0.3519
vn 0.7071 0.7071 0.0000
vn 0.3519 0.7079 -0.6125
vn -0.6760 0.7092 0.2001
vn 0.7020 0.7083 0.0735
vn 0.5000 0.7071 -0.5000
vn -0.7020 0.7083 0.0735
vn 0.6760 0.7092 0.2001
vn -0.7071 0.7071 0.0000
vn 0.6125 0.7079 0.3519
vn -0.7020 0.7083 -0.0735
vn 0.5000 0.7071 0.5000
vn -0.6760 0.7092 -0.2001
vn 0.3519 0.7079 0.6125
vn 0.0000 0.0015 1.0000
vn 0.0000 0.1463 0.9892
vn -0.2285 0.1261 0.9653
vn -0.2433 0.0251 0.9696
vn -1.0000 0.0015 0.0000
vn -0.9892 0.1463 0.0000
vn -0.9653 0.1261 -0.2285
vn -0.9696 0.0251 -0.2433
vn 0.0000 0.0015 -1.0000
vn 0.0000 0.1463 -0.9892
vn 0.2285 0.1261 -0.9653
vn 0.2433 0.0251 -0.9696
vn 1.0000 0.0015 0.0000
vn 0.9892 0.1463 0.0000
vn 0.9653 0.1261 0.2285
vn 0.9696 0.0251 0.2433
vn 0.4082 0.8165 0.4082
vn -0.4082 0.8165 -0.4082
vn -0.4082 0.8165 0.4082
vn 0.0590 -0.9965 0.0590
vn 0.4082 -0.8165 0.4082
vn 0.0590 -0.9965 -0.0590
vn 0.4082 -0.8165 -0.4082
vn 0.0000 -1.0000 0.0000
vn -0.0590 -0.9965 0.0590
vn -0.4082 -0.8165 0.4082
vn -0.9772 0.0000 -0.2124
vn -0.9937 0.0000 -0.1118
vn -0.7071 0.0000 -0.7071
vn -0.9772 -0.0000 0.2124
vn -0.9937 -0.0000 0.1118
vn -1.0000 0.0000 0.0000
vn -0.2124 0.0000 0.9772
vn -0.1118 0.0000 0.9937
vn -0.7071 -0.0000 0.7071
vn 0.2124 0.0000 0.9772
vn 0.1118 0.0000 0.9937
vn 0.0000 0.0000 1.0000
vn 0.2124 0.0000 -0.9772
vn 0.1118 0.0000 -0.9937
vn 0.7071 -0.0000 -0.7071
vn -0.2124 0.0000 -0.9772
vn -0.1118 0.0000 -0.9937
vn 0.0000 0.0000 -1.0000
vn 0.9772 0.0000 0.2124
vn 0.9937 0.0000 0.1118
vn 0.7071 0.0000 0.7071
vn 0.9772 -0.0000 -0.2124
vn 0.9937 -0.0000 -0.1118
vn 1.0000 0.0000 0.0000
vn -0.9724 -0.1116 -0.2049
vn -0.7037 -0.0982 -0.7037
vn -0.9724 -0.1116 0.2049
vn -0.9897 -0.1434 0.0000
vn -0.2049 -0.1116 0.9724
vn -0.7037 -0.0982 0.7037
vn 0.2049 -0.1116 0.9724
vn 0.0000 -0.1434 0.9897
vn 0.2049 -0.1116 -0.9724
vn 0.7037 -0.0982 -0.7037
vn -0.2049 -0.1116 -0.9724
vn 0.0000 -0.1434 -0.9897
vn 0.9724 -0.1116 0.2049
vn 0.7037 -0.0982 0.7037
vn 0.9724 -0.1116 -0.2049
vn 0.9897 -0.1434 0.0000
usemtl Material.001
s off
f 125/1/1 129/2/1 128/3/1
f 126/4/2 127/5/2 129/2/2
f 129/2/3 127/5/3 128/3/3
f 126/4/4 129/2/4 125/1/4
f 134/6/1 130/7/1 133/8/1
f 131/9/2 132/10/2 130/7/2
f 130/7/3 132/10/3 133/8/3
f 131/9/4 130/7/4 134/6/4
f 135/11/5 139/12/5 138/13/5
f 136/14/6 137/15/6 139/12/6
f 139/12/7 137/15/7 138/13/7
f 136/14/8 139/12/8 135/11/8
f 140/16/5 141/17/5 144/18/5
f 142/19/6 143/20/6 141/17/6
f 141/17/7 143/20/7 144/18/7
f 142/19/8 141/17/8 140/16/8
f 149/21/9 148/22/9 145/23/9
f 146/24/10 147/25/10 148/22/10
f 148/22/11 147/25/11 145/23/11
f 146/24/12 148/22/12 149/21/12
f 154/26/9 153/27/9 150/28/9
f 151/29/10 152/30/10 153/27/10
f 153/27/11 152/30/11 150/28/11
f 151/29/12 153/27/12 154/26/12
f 155/31/13 157/32/13 158/33/13
f 159/34/14 156/35/14 157/32/14
f 157/32/15 156/35/15 158/33/15
f 159/34/16 157/32/16 155/31/16
f 164/36/13 163/37/13 160/38/13
f 162/39/14 161/40/14 163/37/14
f 163/37/15 161/40/15 160/38/15
f 162/39/16 163/37/16 164/36/16
f 165/41/17 167/42/17 168/43/17
f 169/44/18 166/45/18 167/42/18
f 167/42/19 166/45/19 168/43/19
f 169/44/20 167/42/20 165/41/20
f 174/46/17 173/47/17 170/48/17
f 172/49/18 171/50/18 173/47/18
f 173/47/19 171/50/19 170/48/19
f 172/49/20 173/47/20 174/46/20
f 175/51/17 177/52/17 178/53/17
f 179/54/18 176/55/18 177/52/18
f 177/52/19 176/55/19 178/53/19
f 179/54/20 177/52/20 175/51/20
f 184/56/17 183/57/17 180/58/17
f 182/59/18 181/60/18 183/57/18
f 183/57/19 181/60/19 180/58/19
f 182/59/20 183/57/20 184/56/20
s 1
f 109/61/21 2/62/22 84/63/23 111/64/24
f 112/65/25 4/66/26 82/67/27 110/68/28
f 113/69/29 8/70/30 80/71/31 119/72/32
f 114/73/33 6/74/34 77/75/35 122/76/36
f 3/77/37 87/78/38 92/79/38
f 8/80/39 79/81/40 80/82/40
f 33/83/41 34/84/41 77/85/42
f 40/86/41 13/87/41 84/88/43
f 19/89/41 20/90/41 82/91/44
f 33/92/45 32/93/46 63/94/47 64/95/48
f 51/96/49 50/97/50 49/98/51 48/99/52 47/100/53 46/101/54 45/102/55 44/103/56 43/104/57 42/105/58 41/106/59 72/107/60 71/108/61 70/109/62 69/110/63 68/111/64 67/112/65 66/113/66 65/114/67 64/95/48 63/94/47 62/115/68 61/116/69 60/117/70 59/118/71 58/119/72 57/120/73 56/121/74 55/122/75 54/123/76 53/124/77 52/125/78
f 22/126/79 21/127/80 50/97/50 51/96/49
f 34/128/81 33/92/45 64/95/48 65/129/67
f 11/130/82 22/126/79 51/96/49 52/125/78
f 35/131/83 34/128/81 65/129/67 66/132/66
f 23/133/84 11/130/82 52/125/78 53/124/77
f 36/134/85 35/131/83 66/132/66 67/135/65
f 24/136/86 23/133/84 53/124/77 54/123/76
f 9/137/87 36/134/85 67/135/65 68/138/64
f 25/139/88 24/136/86 54/123/76 55/122/75
f 14/140/89 13/141/90 41/142/59 42/143/58
f 37/144/91 9/137/87 68/138/64 69/145/63
f 26/146/92 25/139/88 55/122/75 56/121/74
f 15/147/93 14/140/89 42/143/58 43/148/57
f 38/149/94 37/144/91 69/145/63 70/150/62
f 27/151/95 26/146/92 56/121/74 57/120/73
f 10/152/96 15/147/93 43/148/57 44/153/56
f 39/154/97 38/149/94 70/150/62 71/155/61
f 28/156/98 27/151/95 57/120/73 58/119/72
f 16/157/99 10/152/96 44/153/56 45/158/55
f 40/159/100 39/154/97 71/155/61 72/160/60
f 29/161/101 28/156/98 58/119/72 59/118/71
f 17/162/102 16/157/99 45/158/55 46/163/54
f 13/141/90 40/159/100 72/160/60 41/142/59
f 12/164/103 29/161/101 59/118/71 60/117/70
f 18/165/104 17/162/102 46/163/54 47/166/53
f 30/167/105 12/164/103 60/117/70 61/116/69
f 19/168/106 18/169/104 47/100/53 48/99/52
f 31/170/107 30/167/105 61/116/69 62/115/68
f 20/171/108 19/168/106 48/99/52 49/98/51
f 32/93/46 31/170/107 62/115/68 63/94/47
f 21/127/80 20/171/108 49/98/51 50/97/50
f 115/172/109 9/173/110 83/174/111 123/175/112
f 116/176/113 10/177/114 81/178/115 124/179/116
f 117/180/117 11/181/118 79/182/119 121/183/120
f 118/184/121 12/185/122 78/186/123 120/187/124
f 78/188/42 77/85/42 6/189/125
f 26/190/41 27/191/41 80/82/40
f 81/192/44 82/91/44 4/193/126
f 83/194/43 84/88/43 2/195/127
f 119/72/32 80/71/31 12/185/122 118/184/121
f 120/187/124 78/186/123 6/74/34 114/73/33
f 110/68/28 82/67/27 11/181/118 117/180/117
f 121/183/120 79/182/119 8/70/30 113/69/29
f 122/76/36 77/75/35 9/173/110 115/172/109
f 123/175/112 83/174/111 2/62/22 109/61/21
f 111/64/24 84/63/23 10/177/114 116/176/113
f 124/179/116 81/178/115 4/66/26 112/65/25
f 89/196/128 86/197/128 5/198/129
f 85/199/130 88/200/130 7/201/131
f 92/79/38 87/78/38 75/202/132 88/200/130 85/199/130 76/203/132 86/197/128 89/196/128 73/204/132 90/205/133 91/206/133 74/207/132
f 91/206/133 90/205/133 1/208/134
f 92/79/135 108/209/136 94/210/137 3/77/137
f 91/206/138 107/211/139 98/212/140 74/207/140
f 90/205/141 106/213/142 93/214/143 1/208/143
f 89/196/144 105/215/145 97/216/146 73/204/146
f 88/200/147 104/217/148 95/218/149 7/201/149
f 87/78/150 103/219/151 99/220/152 75/202/152
f 86/197/153 102/221/154 96/222/155 5/198/155
f 85/199/156 101/223/157 100/224/158 76/203/158
f 76/203/158 100/224/158 102/221/154 86/197/153
f 75/202/152 99/220/152 104/217/148 88/200/147
f 74/207/140 98/212/140 108/209/136 92/79/135
f 73/204/146 97/216/146 106/213/142 90/205/141
f 5/198/155 96/222/155 105/215/145 89/196/144
f 7/201/149 95/218/149 101/223/157 85/199/156
f 3/77/137 94/210/137 103/219/151 87/78/150
f 1/208/143 93/214/143 107/211/139 91/206/138
f 108/225/159 124/179/116 112/65/25 94/226/160
f 107/227/161 111/64/24 116/176/113 98/228/162
f 106/229/163 123/175/112 109/61/21 93/230/164
f 105/231/165 122/76/36 115/172/109 97/232/166
f 104/233/167 121/183/120 113/69/29 95/234/168
f 103/235/169 110/68/28 117/180/117 99/236/170
f 102/237/171 120/187/124 114/73/33 96/238/172
f 101/239/173 119/72/32 118/184/121 100/240/174
f 100/240/174 118/184/121 120/187/124 102/237/171
f 99/236/170 117/180/117 121/183/120 104/233/167
f 98/228/162 116/176/113 124/179/116 108/225/159
f 97/232/166 115/172/109 123/175/112 106/229/163
f 96/238/172 114/73/33 122/76/36 105/231/165
f 95/234/168 113/69/29 119/72/32 101/239/173
f 94/226/160 112/65/25 110/68/28 103/235/169
f 93/230/164 109/61/21 111/64/24 107/227/161
f 78/188/42 12/241/41 30/242/41
f 78/188/42 30/242/41 31/243/41
f 36/244/41 9/245/41 77/85/42
f 35/246/41 36/244/41 77/85/42
f 78/188/42 31/243/41 32/247/41
f 78/188/42 32/247/41 33/83/41
f 34/84/41 35/246/41 77/85/42
f 78/188/42 33/83/41 77/85/42
f 83/194/43 9/245/41 37/248/41
f 83/194/43 37/248/41 38/249/41
f 15/250/41 10/251/41 84/88/43
f 14/252/41 15/250/41 84/88/43
f 83/194/43 38/249/41 39/253/41
f 83/194/43 39/253/41 40/86/41
f 13/87/41 14/252/41 84/88/43
f 83/194/43 40/86/41 84/88/43
f 81/192/44 10/251/41 16/254/41
f 81/192/44 16/254/41 17/255/41
f 22/256/41 11/257/41 82/91/44
f 21/258/41 22/256/41 82/91/44
f 81/192/44 17/255/41 18/259/41
f 81/192/44 18/259/41 19/89/41
f 20/90/41 21/258/41 82/91/44
f 81/192/44 19/89/41 82/91/44
f 79/81/40 11/257/41 23/260/41
f 79/81/40 23/260/41 24/261/41
f 29/262/41 12/241/41 80/82/40
f 28/263/41 29/262/41 80/82/40
f 79/81/40 24/261/41 25/264/41
f 79/81/40 25/264/41 26/190/41
f 27/191/41 28/263/41 80/82/40
f 79/81/40 26/190/41 80/82/40
