# Blender v2.80 (sub 74) OBJ File: 'swivel.blend'
# www.blender.org
mtllib swivel_head.mtl
o Cube.001_Cube.002
v -0.662912 0.500000 0.662913
v -0.444495 0.500000 0.828130
v -0.253331 0.500000 0.908641
v -0.111313 0.510000 0.969217
v 0.111313 0.510000 0.969217
v 0.253331 0.500000 0.908641
v 0.444495 0.500000 0.828130
v 0.662913 0.500000 0.662913
v 0.828130 0.500000 0.444495
v 0.908641 0.500000 0.253331
v 0.934248 0.500000 0.111313
v 0.937500 0.500000 -0.000006
v 0.934249 0.500000 -0.111313
v 0.908641 0.500000 -0.253332
v 0.828130 0.500000 -0.444495
v 0.662913 0.500000 -0.662913
v 0.444495 0.500000 -0.828130
v 0.253331 0.500000 -0.908641
v 0.111313 0.500000 -0.934248
v -0.000000 0.500000 -0.937500
v -0.111313 0.500000 -0.934249
v -0.253331 0.500000 -0.908641
v -0.444495 0.500000 -0.828130
v -0.662912 0.500000 -0.662913
v -0.828130 0.500000 -0.444495
v -0.908641 0.500000 -0.253332
v -0.934248 0.500000 -0.111313
v -0.937500 0.500000 -0.000000
v -0.934248 0.500000 0.111313
v -0.908641 0.500000 0.253331
v -0.828130 0.500000 0.444495
v -0.828130 0.250000 0.444495
v -0.908641 0.250000 0.253331
v -0.934248 0.250000 0.111313
v -0.937500 0.250000 -0.000000
v -0.934248 0.250000 -0.111313
v -0.908641 0.250000 -0.253332
v -0.828130 0.250000 -0.444495
v -0.662912 0.250000 -0.662913
v -0.444495 0.250000 -0.828130
v -0.253331 0.250000 -0.908641
v -0.111313 0.250000 -0.934249
v 0.000000 0.250000 -0.937500
v 0.111313 0.250000 -0.934248
v 0.253331 0.250000 -0.908641
v 0.444495 0.250000 -0.828130
v 0.662913 0.250000 -0.662913
v 0.828130 0.250000 -0.444495
v 0.908641 0.250000 -0.253332
v 0.934249 0.250000 -0.111313
v 0.937500 0.250000 -0.000006
v 0.934248 0.250000 0.111313
v 0.908641 0.250000 0.253331
v 0.828130 0.250000 0.444495
v 0.662913 0.250000 0.662913
v 0.444495 0.250000 0.828130
v 0.253331 0.250000 0.908641
v 0.111313 0.250000 0.934249
v -0.000000 0.250000 0.937500
v -0.111313 0.250000 0.934248
v -0.253331 0.250000 0.908641
v -0.444495 0.250000 0.828130
v -0.662912 0.250000 0.662913
v -0.367977 0.499999 -0.367976
v -0.632022 0.499999 -0.632022
v -0.500000 0.600000 -0.499999
v -0.632023 0.499999 -0.367976
v -0.367977 0.499999 -0.632022
v -0.632023 0.499998 0.632024
v -0.632023 0.499998 0.367978
v -0.367977 0.499998 0.367978
v -0.500000 0.599998 0.500001
v -0.367977 0.499998 0.632024
v 0.632023 0.499999 -0.367975
v 0.367978 0.499999 -0.632022
v 0.500000 0.600000 -0.499999
v 0.367977 0.499999 -0.367976
v 0.632023 0.499999 -0.632022
v 0.367977 0.499998 0.632024
v 0.367977 0.499998 0.367978
v 0.632023 0.499998 0.367979
v 0.500000 0.599998 0.500001
v 0.632023 0.499998 0.632025
v 0.000000 0.500000 0.662913
v -0.000000 0.500000 -0.700000
v -0.031728 0.500000 0.693689
v 0.031728 0.500000 0.693689
v -0.267878 0.500000 0.646716
v -0.494975 0.500000 0.494975
v -0.646716 0.500000 0.267878
v -0.700000 0.500000 0.000000
v -0.646716 0.500000 -0.267878
v -0.494975 0.500000 -0.494975
v -0.267878 0.500000 -0.646716
v 0.267878 0.500000 -0.646716
v 0.494975 0.500000 -0.494975
v 0.646716 0.500000 -0.267879
v 0.700000 0.500000 0.000000
v 0.646716 0.500000 0.267879
v 0.494975 0.500000 0.494975
v 0.267878 0.500000 0.646716
vt 0.432354 0.987414
vt 0.427594 0.986556
vt 0.421186 0.983857
vt 0.413865 0.978319
vt 0.408326 0.970998
vt 0.405628 0.964590
vt 0.404769 0.959830
vt 0.404660 0.956098
vt 0.404769 0.952367
vt 0.405628 0.947607
vt 0.408327 0.941199
vt 0.413865 0.933878
vt 0.421186 0.928339
vt 0.427594 0.925641
vt 0.435022 0.932846
vt 0.427106 0.934421
vt 0.419494 0.939507
vt 0.414408 0.947119
vt 0.412621 0.956098
vt 0.414408 0.965078
vt 0.419494 0.972690
vt 0.427106 0.977776
vt 0.436085 0.979562
vt 0.436085 0.987523
vt 0.246611 0.999483
vt 0.284165 0.961929
vt 0.321718 0.999483
vt 0.246611 0.924376
vt 0.321718 0.924376
vt 0.246611 0.999483
vt 0.284165 0.961929
vt 0.321718 0.999483
vt 0.246611 0.924376
vt 0.321718 0.924376
vt 0.246671 0.999423
vt 0.284225 0.961869
vt 0.321778 0.999423
vt 0.246671 0.924315
vt 0.321778 0.924316
vt 0.246611 0.999483
vt 0.284165 0.961929
vt 0.321718 0.999483
vt 0.246611 0.924376
vt 0.321718 0.924376
vt 0.445065 0.977776
vt 0.452677 0.972690
vt 0.457763 0.965078
vt 0.459550 0.956098
vt 0.457763 0.947119
vt 0.452677 0.939507
vt 0.445065 0.934420
vt 0.437149 0.932846
vt 0.444577 0.925641
vt 0.450985 0.928340
vt 0.458306 0.933878
vt 0.463844 0.941199
vt 0.466543 0.947607
vt 0.467402 0.952367
vt 0.467511 0.956099
vt 0.467402 0.959830
vt 0.466543 0.964590
vt 0.463844 0.970998
vt 0.458306 0.978319
vt 0.450985 0.983858
vt 0.444577 0.986556
vt 0.439817 0.987414
vt 0.116745 0.971917
vt 0.098786 0.968344
vt 0.083562 0.958172
vt 0.073389 0.942948
vt 0.069817 0.924989
vt 0.073389 0.907030
vt 0.083562 0.891806
vt 0.098786 0.881633
vt 0.114618 0.878484
vt 0.116745 0.880547
vt 0.118872 0.878484
vt 0.134704 0.881633
vt 0.149928 0.891806
vt 0.160101 0.907030
vt 0.163673 0.924989
vt 0.160101 0.942947
vt 0.149928 0.958172
vt 0.134704 0.968345
vt 0.408241 0.879697
vt 0.410902 0.879697
vt 0.410902 0.915382
vt 0.408241 0.915382
vt 0.425176 0.879697
vt 0.427181 0.879697
vt 0.427181 0.915382
vt 0.425176 0.915382
vt 0.432123 0.879697
vt 0.434129 0.879697
vt 0.434129 0.915382
vt 0.432123 0.915382
vt 0.416456 0.879697
vt 0.417849 0.879697
vt 0.417849 0.915382
vt 0.416456 0.915382
vt 0.412908 0.879697
vt 0.412908 0.915382
vt 0.451063 0.879697
vt 0.453724 0.879697
vt 0.453724 0.915382
vt 0.451063 0.915382
vt 0.436789 0.879697
vt 0.436789 0.915382
vt 0.347347 0.842782
vt 0.350041 0.842782
vt 0.347347 0.878466
vt 0.439450 0.879697
vt 0.441455 0.879697
vt 0.441455 0.915382
vt 0.439450 0.915382
vt 0.428575 0.879697
vt 0.428575 0.915382
vt 0.455729 0.879697
vt 0.455729 0.915382
vt 0.415378 0.879697
vt 0.415378 0.915382
vt 0.353524 0.842782
vt 0.353524 0.878466
vt 0.350041 0.878466
vt 0.419855 0.879697
vt 0.422515 0.879697
vt 0.422515 0.915382
vt 0.419855 0.915382
vt 0.414301 0.879697
vt 0.414301 0.915382
vt 0.429652 0.879697
vt 0.429652 0.915382
vt 0.448402 0.879697
vt 0.448402 0.915382
vt 0.460671 0.879697
vt 0.462676 0.879697
vt 0.462676 0.915382
vt 0.460671 0.915382
vt 0.442849 0.879697
vt 0.442849 0.915382
vt 0.430730 0.879697
vt 0.430730 0.915382
vt 0.341171 0.842782
vt 0.344653 0.842782
vt 0.344653 0.878466
vt 0.341171 0.878466
vt 0.443926 0.879697
vt 0.445004 0.879697
vt 0.445004 0.915382
vt 0.443926 0.915382
vt 0.446397 0.879697
vt 0.446397 0.915382
vt 0.465337 0.879697
vt 0.465337 0.915382
vt 0.375544 0.851692
vt 0.369111 0.856558
vt 0.368190 0.857254
vt 0.370859 0.854067
vt 0.367556 0.856417
vt 0.364397 0.858955
vt 0.367269 0.857951
vt 0.360836 0.862817
vn 0.0000 1.0000 0.0000
vn -0.0000 0.7971 0.6038
vn 0.0000 0.7971 -0.6038
vn -0.6038 0.7971 -0.0000
vn 0.6038 0.7971 0.0000
vn 0.7071 0.0000 0.7071
vn 0.8663 0.0000 0.4996
vn 0.4996 -0.0000 -0.8663
vn 0.2845 -0.0000 -0.9587
vn -0.2845 -0.0000 -0.9587
vn -0.4996 -0.0000 -0.8663
vn 0.9946 0.0000 -0.1036
vn 0.9587 0.0000 -0.2845
vn 0.9587 -0.0000 0.2845
vn -0.7071 0.0000 0.7071
vn -0.4996 0.0000 0.8663
vn -0.7071 0.0000 -0.7071
vn 0.0047 -0.1282 0.9917
vn 0.1609 -0.1000 0.9819
vn 0.1399 -0.0987 0.9852
vn -0.8663 0.0000 -0.4996
vn -0.9587 0.0000 -0.2845
vn 0.1036 -0.0000 -0.9946
vn -0.3881 0.0000 0.9216
vn 1.0000 0.0000 -0.0000
vn 0.2876 -0.0655 0.9555
vn 0.8663 0.0000 -0.4996
vn 0.7071 -0.0000 -0.7071
vn 0.9946 -0.0000 0.1036
vn 0.0000 -0.0000 -1.0000
vn -0.8663 0.0000 0.4996
vn 0.3881 0.0000 0.9216
vn 0.4996 0.0000 0.8663
vn -0.9946 0.0000 -0.1036
vn -0.1036 -0.0000 -0.9946
vn -0.2876 -0.0655 0.9555
vn -0.1514 -0.0961 0.9838
vn -0.1448 -0.0975 0.9846
vn -1.0000 0.0000 -0.0000
vn -0.9946 -0.0000 0.1036
vn -0.9587 -0.0000 0.2845
vn 0.0488 0.9975 -0.0503
vn 0.0000 0.9991 -0.0426
vn 0.0270 0.9987 -0.0424
vn -0.0270 0.9987 -0.0424
vn -0.0488 0.9975 -0.0503
usemtl Default_OBJ.001
s off
f 21/1/1 22/2/1 23/3/1 24/4/1 25/5/1 26/6/1 27/7/1 28/8/1 29/9/1 30/10/1 31/11/1 1/12/1 2/13/1 3/14/1 86/15/1 88/16/1 89/17/1 90/18/1 91/19/1 92/20/1 93/21/1 94/22/1 85/23/1 20/24/1
f 64/25/2 66/26/2 67/27/2
f 68/28/3 65/29/3 66/26/3
f 66/26/4 65/29/4 67/27/4
f 68/28/5 66/26/5 64/25/5
f 73/30/2 72/31/2 69/32/2
f 71/33/3 70/34/3 72/31/3
f 72/31/4 70/34/4 69/32/4
f 71/33/5 72/31/5 73/30/5
f 74/35/2 76/36/2 77/37/2
f 78/38/3 75/39/3 76/36/3
f 76/36/4 75/39/4 77/37/4
f 78/38/5 76/36/5 74/35/5
f 83/40/2 82/41/2 79/42/2
f 81/43/3 80/44/3 82/41/3
f 82/41/4 80/44/4 79/42/4
f 81/43/5 82/41/5 83/40/5
f 20/24/1 85/23/1 95/45/1 96/46/1 97/47/1 98/48/1 99/49/1 100/50/1 101/51/1 87/52/1 6/53/1 7/54/1 8/55/1 9/56/1 10/57/1 11/58/1 12/59/1 13/60/1 14/61/1 15/62/1 16/63/1 17/64/1 18/65/1 19/66/1
f 85/67/1 94/68/1 93/69/1 92/70/1 91/71/1 90/72/1 89/73/1 88/74/1 86/75/1 84/76/1
f 87/77/1 101/78/1 100/79/1 99/80/1 98/81/1 97/82/1 96/83/1 95/84/1 85/67/1 84/76/1
s 1
f 55/85/6 54/86/7 9/87/7 8/88/6
f 46/89/8 45/90/9 18/91/9 17/92/8
f 41/93/10 40/94/11 23/95/11 22/96/10
f 50/97/12 49/98/13 14/99/13 13/100/12
f 54/86/7 53/101/14 10/102/14 9/87/7
f 63/103/15 62/104/16 2/105/16 1/106/15
f 40/94/11 39/107/17 24/108/17 23/95/11
f 59/109/18 58/110/19 5/111/20
f 38/112/21 37/113/22 26/114/22 25/115/21
f 45/90/9 44/116/23 19/117/23 18/91/9
f 62/104/16 61/118/24 3/119/24 2/105/16
f 51/120/25 50/97/12 13/100/12 12/121/25
f 58/110/19 57/122/26 6/123/26 5/124/20
f 48/125/27 47/126/28 16/127/28 15/128/27
f 53/101/14 52/129/29 11/130/29 10/102/14
f 44/116/23 43/131/30 20/132/30 19/117/23
f 32/133/31 63/103/15 1/106/15 31/134/31
f 39/107/17 38/112/21 25/115/21 24/108/17
f 57/135/32 56/136/33 7/137/33 6/138/32
f 37/113/22 36/139/34 27/140/34 26/114/22
f 43/131/30 42/141/35 21/142/35 20/132/30
f 61/143/36 60/144/37 4/145/38 3/146/36
f 35/147/39 34/148/40 29/149/40 28/150/39
f 36/139/34 35/147/39 28/150/39 27/140/34
f 34/148/40 33/151/41 30/152/41 29/149/40
f 49/98/13 48/125/27 15/128/27 14/99/13
f 47/126/28 46/89/8 17/92/8 16/127/28
f 56/136/33 55/153/6 8/154/6 7/137/33
f 60/144/37 59/109/18 5/111/20 4/145/38
f 42/141/35 41/93/10 22/96/10 21/142/35
f 33/151/41 32/133/31 31/134/31 30/152/41
f 52/129/29 51/120/25 12/121/25 11/130/29
f 6/155/42 87/156/42 84/157/43 5/158/44
f 5/159/44 84/157/43 4/160/45
f 4/160/45 84/157/43 86/161/46 3/162/46
