# Blender v2.80 (sub 47) OBJ File: 'Ball.blend'
# www.blender.org
mtllib mtmag ball collider large.mtl
o Cone
v -0.207106 -0.500000 -0.207106
v 0.500000 0.100000 -0.000000
v 0.853554 0.100000 0.146446
v 1.207106 -0.500000 -0.207106
v 1.000000 0.100000 0.500000
v 0.853554 0.100000 0.853554
v 1.207106 -0.500000 1.207106
v 0.500000 0.100000 1.000000
v 0.146446 0.100000 0.853554
v -0.207106 -0.500000 1.207106
v 0.000000 0.100000 0.500000
v 0.146446 0.100000 0.146446
v 1.207106 -0.148527 0.500000
v 0.500000 -0.148527 1.207106
v 0.500000 -0.148527 -0.207106
v -0.207106 -0.148527 0.500000
v 0.500000 0.100000 0.500000
v 0.500000 -0.500000 0.500000
vn 0.0000 0.0000 -1.0000
vn 1.0000 0.0000 0.0000
vn 0.0000 0.0000 1.0000
vn -0.0000 1.0000 0.0000
vn -1.0000 0.0000 0.0000
vn 0.3032 0.6100 0.7321
vn 0.3032 0.6100 -0.7321
vn -0.7321 0.6100 -0.3032
vn -0.3032 0.6100 0.7321
vn 0.7321 0.6100 -0.3032
vn -0.3032 0.6100 -0.7321
vn -0.7321 0.6100 0.3032
vn 0.7321 0.6100 0.3032
vn -0.0000 -1.0000 -0.0000
usemtl None
s off
f 1//1 15//1 4//1
f 4//2 13//2 7//2
f 7//3 14//3 10//3
f 3//4 2//4 17//4
f 10//5 16//5 1//5
f 14//6 7//6 6//6
f 4//7 15//7 3//7
f 1//8 16//8 12//8
f 10//9 14//9 9//9
f 13//10 4//10 3//10
f 15//11 1//11 12//11
f 16//12 10//12 9//12
f 7//13 13//13 6//13
f 1//14 18//14 10//14
f 12//8 16//8 11//8
f 9//12 11//12 16//12
f 9//9 14//9 8//9
f 6//6 8//6 14//6
f 6//13 13//13 5//13
f 3//10 5//10 13//10
f 3//7 15//7 2//7
f 12//11 2//11 15//11
f 17//4 2//4 12//4
f 12//4 11//4 17//4
f 11//4 9//4 17//4
f 9//4 8//4 17//4
f 8//4 6//4 17//4
f 6//4 5//4 17//4
f 5//4 3//4 17//4
f 10//14 18//14 7//14
f 7//14 18//14 4//14
f 4//14 18//14 1//14
