# Blender v2.79 (sub 0) OBJ File: 'BFpiston.blend'
# www.blender.org
mtllib BFp_blockbottom.mtl
o m_BF_MotionEngine_Linear_112_Base_Instance
v 0.101537 0.499999 -0.378939
v 0.277403 0.499999 -0.277403
v -0.277403 0.499999 -0.277403
v -0.146954 -0.314892 -0.500000
v 0.107356 -0.428834 -0.500000
v 0.146954 -0.314892 -0.500000
v -0.107356 -0.428834 -0.499999
v 0.126918 -0.500001 -0.428833
v 0.366017 -0.428834 -0.366017
v -0.500000 -0.428834 -0.107355
v -0.500000 -0.314892 -0.146953
v -0.500000 -0.428834 0.107356
v -0.366017 -0.428834 -0.366017
v -0.277402 0.499999 0.277402
v -0.315695 -0.500001 -0.315695
v -0.428834 -0.500001 -0.126918
v 0.146954 -0.314891 0.500000
v -0.107356 -0.428834 0.500000
v 0.107356 -0.428834 0.500000
v -0.146954 -0.314891 0.500000
v -0.366017 -0.428834 0.366018
v -0.101536 0.499999 -0.378939
v -0.500000 -0.314891 0.146954
v 0.500000 -0.314892 -0.146953
v 0.500000 -0.428834 -0.107356
v 0.366017 -0.428834 0.366018
v 0.126918 -0.500000 0.428834
v -0.378939 0.499999 0.101536
v 0.500000 -0.314891 0.146954
v 0.500000 -0.428834 0.107356
v 0.315695 -0.500000 -0.315695
v 0.428834 -0.500000 0.126919
v 0.428834 -0.500000 -0.126918
v -0.126918 -0.500001 -0.428833
v -0.315695 -0.500000 0.315696
v -0.126918 -0.500000 0.428834
v -0.428834 -0.500000 0.126919
v 0.315695 -0.500000 0.315696
v 0.107356 -0.071167 -0.500000
v -0.107356 -0.071167 -0.499999
v 0.126918 -0.000001 -0.428833
v 0.366017 -0.071167 -0.366017
v -0.500000 -0.071167 -0.107355
v -0.500000 -0.185110 -0.146953
v -0.500000 -0.071167 0.107356
v -0.366017 -0.071167 -0.366017
v -0.315695 -0.000001 -0.315695
v -0.428834 -0.000001 -0.126918
v 0.146954 -0.185110 0.500000
v -0.107356 -0.071167 0.500000
v 0.107356 -0.071167 0.500000
v -0.366017 -0.071167 0.366018
v -0.500000 -0.185110 0.146954
v -0.378939 0.499999 -0.101537
v 0.500000 -0.071167 -0.107356
v 0.366017 -0.071167 0.366018
v 0.126918 -0.000001 0.428834
v 0.500000 -0.071167 0.107356
v 0.277403 -0.093453 -0.277402
v 0.378939 -0.093453 -0.101536
v 0.378939 -0.093453 0.101537
v 0.277403 -0.093453 0.277403
v 0.101537 -0.093453 0.378940
v -0.101536 -0.093453 0.378939
v -0.277402 -0.093453 0.277403
v -0.378939 -0.093453 0.101537
v -0.378939 -0.093453 -0.101536
v -0.277403 -0.093453 -0.277402
v -0.101536 -0.093453 -0.378938
v 0.101537 -0.093453 -0.378938
v 0.315695 -0.000001 -0.315695
v 0.428834 -0.000001 0.126919
v 0.428834 -0.000001 -0.126918
v -0.126918 -0.000001 -0.428833
v -0.315695 -0.000001 0.315696
v -0.126918 -0.000001 0.428834
v -0.428834 -0.000001 0.126919
v 0.315695 -0.000001 0.315696
v -0.146954 -0.185110 -0.500000
v 0.146954 -0.185110 -0.500000
v -0.146954 -0.185110 0.500000
v 0.500000 -0.185110 -0.146953
v 0.500000 -0.185110 0.146954
v 0.000001 -0.600000 0.000000
v -0.132022 -0.500000 -0.132023
v 0.132023 -0.450000 -0.132023
v 0.132023 -0.500000 -0.132023
v -0.132022 -0.500000 0.132023
v -0.132022 -0.450001 0.132023
v 0.132023 -0.500000 0.132023
v -0.210000 -0.500000 -0.154142
v -0.150000 -0.450000 -0.200000
v 0.200000 -0.450000 -0.150000
v 0.150000 -0.450001 0.200000
v -0.210000 -0.500000 0.154142
v -0.150000 -0.450001 0.200000
v 0.210000 -0.500000 -0.154142
v 0.150000 -0.450000 -0.200000
v -0.154142 -0.500000 0.210000
v 0.154142 -0.500000 0.210000
v 0.210000 -0.500000 0.154142
v -0.154142 -0.500000 -0.210000
v 0.154142 -0.500000 -0.210000
v 0.132023 -0.450001 0.132023
v -0.200000 -0.450001 0.150000
v -0.200000 -0.450000 -0.150000
v -0.132022 -0.450000 -0.132023
v 0.200000 -0.450001 0.150000
v -0.343067 -0.000001 -0.107252
v -0.252556 -0.000001 0.246839
v -0.101535 -0.000001 0.337349
v -0.252556 -0.000001 -0.258273
v 0.343067 -0.000001 0.095817
v 0.252556 -0.000001 0.246839
v -0.101535 -0.000001 -0.348784
v 0.252556 -0.000001 -0.258274
v 0.343067 -0.000001 -0.107252
v -0.343067 -0.000001 0.095817
v 0.101535 -0.000001 -0.348784
v 0.101535 -0.000001 0.337349
v -0.343067 -0.093453 -0.107252
v -0.252556 -0.093453 0.246839
v -0.101535 -0.093453 0.337349
v -0.252556 -0.093453 -0.258274
v 0.343067 -0.093453 0.095817
v 0.252556 -0.093453 0.246839
v -0.101535 -0.093453 -0.348784
v 0.252556 -0.093453 -0.258274
v 0.343067 -0.093453 -0.107252
v -0.343067 -0.093453 0.095817
v 0.101535 -0.093453 -0.348784
v 0.101535 -0.093453 0.337349
v 0.277403 0.499999 0.277402
v 0.101537 0.499999 0.378939
v 0.378939 0.499999 -0.101537
v -0.101536 0.499999 0.378939
v 0.378939 0.499999 0.101537
v 0.428834 -0.000001 0.000000
v 0.500000 -0.185110 0.000000
v 0.456193 -0.071164 -0.134620
v 0.456194 -0.071168 0.000000
v 0.456196 -0.071171 0.134622
v -0.000000 -0.185110 -0.500000
v -0.000000 -0.000001 -0.428833
v -0.500000 -0.185110 0.000000
v -0.428834 -0.000001 0.000001
v 0.000000 -0.000001 0.428834
v 0.000000 -0.185110 0.500000
v -0.456194 -0.071168 0.134621
v -0.456192 -0.071161 0.000000
v 0.000000 -0.071172 0.456196
v 0.134621 -0.071166 0.456194
v -0.000000 -0.071173 -0.456196
v -0.134621 -0.071161 -0.456191
v -0.456196 -0.071171 -0.134621
v -0.134621 -0.071164 0.456193
v 0.134621 -0.071170 -0.456195
v 0.140562 0.490045 0.356724
v -0.356723 0.490045 0.140561
v -0.356723 0.490045 -0.140562
v 0.356724 0.490045 -0.140562
v -0.140562 0.490045 0.356723
v 0.356724 0.490045 0.140561
v -0.140562 0.490045 -0.356724
v 0.140562 0.490045 -0.356724
v 0.126918 0.450000 0.322098
v -0.322098 0.450000 0.126918
v -0.322098 0.450000 -0.126919
v 0.322099 0.450000 -0.126919
v -0.126918 0.450000 0.322098
v 0.322099 0.450000 0.126918
v -0.126918 0.450000 -0.322098
v 0.126918 0.450000 -0.322098
vt 0.803219 0.905158
vt 0.803219 0.905158
vt 0.803219 0.905158
vt 0.803219 0.905158
vt 0.804172 0.905158
vt 0.804869 0.905158
vt 0.804869 0.905158
vt 0.804172 0.905158
vt 0.407300 0.980874
vt 0.420853 0.969774
vt 0.425518 0.980874
vt 0.400972 0.987806
vt 0.423213 0.987806
vt 0.425518 0.980874
vt 0.423213 0.987806
vt 0.400972 0.987806
vt 0.395043 0.980874
vt 0.825000 0.825000
vt 0.925000 0.825000
vt 0.925000 0.925000
vt 0.420853 0.969774
vt 0.420853 0.969774
vt 0.395043 0.980874
vt 0.395043 0.980874
vt 0.425518 0.980874
vt 0.423213 0.987806
vt 0.425518 0.980874
vt 0.423213 0.987806
vt 0.400972 0.987806
vt 0.407300 0.980874
vt 0.420853 0.969774
vt 0.420853 0.969774
vt 0.420853 0.969774
vt 0.420853 0.969774
vt 0.425518 0.980874
vt 0.425518 0.980874
vt 0.420853 0.969774
vt 0.395043 0.980874
vt 0.423213 0.987806
vt 0.420853 0.969774
vt 0.803568 0.905158
vt 0.803568 0.905158
vt 0.420853 0.969774
vt 0.407300 0.980874
vt 0.420853 0.969774
vt 0.420853 0.969774
vt 0.407300 0.980874
vt 0.425518 0.980874
vt 0.423213 0.987806
vt 0.425518 0.980874
vt 0.423213 0.987806
vt 0.400972 0.987806
vt 0.395043 0.980874
vt 0.395043 0.980874
vt 0.420853 0.969774
vt 0.407300 0.980874
vt 0.423213 0.987806
vt 0.420853 0.969774
vt 0.407300 0.980874
vt 0.420853 0.969774
vt 0.425518 0.980874
vt 0.825000 0.825000
vt 0.925000 0.825000
vt 0.925000 0.925000
vt 0.825000 0.825000
vt 0.925000 0.825000
vt 0.925000 0.925000
vt 0.825000 0.825000
vt 0.925000 0.825000
vt 0.925000 0.925000
vt 0.825000 0.825000
vt 0.925000 0.825000
vt 0.925000 0.925000
vt 0.325000 0.825000
vt 0.425000 0.825000
vt 0.425000 0.925000
vt 0.425518 0.980874
vt 0.825000 0.825000
vt 0.925000 0.825000
vt 0.925000 0.925000
vt 0.825000 0.825000
vt 0.925000 0.825000
vt 0.925000 0.925000
vt 0.825000 0.825000
vt 0.925000 0.825000
vt 0.925000 0.925000
vt 0.425518 0.980874
vt 0.395043 0.980874
vt 0.825000 0.825000
vt 0.925000 0.825000
vt 0.925000 0.925000
vt 0.407300 0.980874
vt 0.425518 0.980874
vt 0.420853 0.969774
vt 0.425518 0.980874
vt 0.805473 0.905158
vt 0.805822 0.905158
vt 0.805822 0.905158
vt 0.805473 0.905158
vt 0.422553 0.890451
vt 0.422553 0.890451
vt 0.404389 0.834549
vt 0.422553 0.890451
vt 0.404389 0.834549
vt 0.345611 0.834549
vt 0.327447 0.890451
vt 0.327447 0.890451
vt 0.345611 0.834549
vt 0.327447 0.890451
vt 0.345611 0.834549
vt 0.327447 0.890451
vt 0.375000 0.925000
vt 0.325000 0.925000
vt 0.345611 0.834549
vt 0.327447 0.890451
vt 0.375000 0.925000
vt 0.422553 0.890451
vt 0.425000 0.825000
vt 0.404389 0.834549
vt 0.425518 0.980874
vt 0.825000 0.825000
vt 0.925000 0.825000
vt 0.825000 0.825000
vt 0.925000 0.825000
vt 0.925000 0.925000
vt 0.825000 0.825000
vt 0.925000 0.825000
vt 0.925000 0.925000
vt 0.407300 0.980874
vt 0.425518 0.980874
vt 0.825000 0.825000
vt 0.925000 0.825000
vt 0.925000 0.925000
vt 0.420853 0.969774
vt 0.425518 0.980874
vt 0.395043 0.980874
vt 0.867022 0.862679
vt 0.867022 0.834257
vt 0.895443 0.834257
vt 0.897378 0.826941
vt 0.865087 0.826941
vt 0.859705 0.832322
vt 0.859705 0.864614
vt 0.865087 0.869996
vt 0.805822 0.905158
vt 0.805822 0.905158
vt 0.895443 0.902287
vt 0.895443 0.896905
vt 0.867022 0.896905
vt 0.867022 0.902287
vt 0.803568 0.905158
vt 0.803568 0.905158
vt 0.804172 0.905158
vt 0.804172 0.905158
vt 0.804869 0.905158
vt 0.804869 0.905158
vt 0.925000 0.925000
vt 0.805473 0.905158
vt 0.805473 0.905158
vt 0.150903 0.870543
vt 0.154883 0.867162
vt 0.149181 0.861460
vt 0.145799 0.865439
vt 0.325000 0.825000
vt 0.425000 0.825000
vt 0.425000 0.925000
vt 0.420853 0.969774
vt 0.825000 0.825000
vt 0.925000 0.825000
vt 0.895443 0.902287
vt 0.895443 0.896905
vt 0.867022 0.896905
vt 0.867022 0.902287
vt 0.825000 0.825000
vt 0.925000 0.825000
vt 0.925000 0.925000
vt 0.825000 0.925000
vt 0.145800 0.900352
vt 0.149181 0.904332
vt 0.154883 0.898630
vt 0.150903 0.895249
vt 0.117216 0.867585
vt 0.112011 0.867162
vt 0.112011 0.898630
vt 0.117216 0.898207
vt 0.825000 0.825000
vt 0.925000 0.825000
vt 0.925000 0.925000
vt 0.825000 0.925000
vt 0.825000 0.825000
vt 0.925000 0.825000
vt 0.925000 0.925000
vt 0.825000 0.925000
vt 0.825000 0.825000
vt 0.925000 0.825000
vt 0.925000 0.925000
vt 0.825000 0.925000
vt 0.875000 0.925000
vt 0.886126 0.923746
vt 0.896694 0.920048
vt 0.906174 0.914092
vt 0.914092 0.906174
vt 0.920048 0.896694
vt 0.923746 0.886126
vt 0.925000 0.875000
vt 0.923746 0.863874
vt 0.920048 0.853306
vt 0.914092 0.843825
vt 0.906174 0.835908
vt 0.896694 0.829952
vt 0.886126 0.826254
vt 0.875000 0.825000
vt 0.863874 0.826254
vt 0.853306 0.829952
vt 0.843825 0.835908
vt 0.835908 0.843826
vt 0.829952 0.853306
vt 0.826254 0.863874
vt 0.825000 0.875000
vt 0.826254 0.886126
vt 0.829952 0.896694
vt 0.835908 0.906175
vt 0.843826 0.914092
vt 0.853306 0.920048
vt 0.863874 0.923746
vt 0.925000 0.925000
vt 0.825000 0.925000
vt 0.875000 0.925000
vt 0.900000 0.918301
vt 0.918301 0.900000
vt 0.925000 0.875000
vt 0.918301 0.850000
vt 0.900000 0.831699
vt 0.875000 0.825000
vt 0.850000 0.831699
vt 0.831699 0.850000
vt 0.825000 0.875000
vt 0.831699 0.900000
vt 0.850000 0.918301
vt 0.825000 0.825000
vt 0.925000 0.825000
vt 0.825000 0.925000
vt 0.121094 0.865440
vt 0.117713 0.861460
vt 0.115990 0.870543
vt 0.149678 0.898207
vt 0.149678 0.867585
vt 0.825000 0.825000
vt 0.925000 0.825000
vt 0.925000 0.925000
vt 0.825000 0.925000
vt 0.925000 0.825000
vt 0.925000 0.925000
vt 0.825000 0.925000
vt 0.825000 0.825000
vt 0.925000 0.825000
vt 0.925000 0.925000
vt 0.825000 0.925000
vt 0.825000 0.825000
vt 0.925000 0.825000
vt 0.925000 0.925000
vt 0.825000 0.925000
vt 0.825000 0.825000
vt 0.925000 0.825000
vt 0.925000 0.925000
vt 0.825000 0.925000
vt 0.825000 0.825000
vt 0.925000 0.825000
vt 0.925000 0.925000
vt 0.825000 0.925000
vt 0.825000 0.825000
vt 0.925000 0.825000
vt 0.925000 0.925000
vt 0.825000 0.925000
vt 0.895443 0.902287
vt 0.895443 0.896905
vt 0.867022 0.896905
vt 0.867022 0.902287
vt 0.118136 0.899127
vt 0.117713 0.904332
vt 0.148758 0.899127
vt 0.895443 0.862679
vt 0.897378 0.869996
vt 0.902760 0.864614
vt 0.902760 0.832322
vt 0.895443 0.902287
vt 0.895443 0.896905
vt 0.867022 0.896905
vt 0.867022 0.902287
vt 0.031246 0.031498
vt 0.060715 0.060967
vt 0.060715 0.002028
vt 0.001776 0.060967
vt 0.001776 0.002028
vt 0.422553 0.890451
vt 0.345611 0.834549
vt 0.327447 0.890451
vt 0.420853 0.969774
vt 0.148758 0.866665
vt 0.118135 0.866665
vt 0.115990 0.895248
vt 0.121094 0.900352
vt 0.825000 0.825000
vt 0.863448 0.825000
vt 0.863446 0.875000
vt 0.825000 0.875000
vt 0.325000 0.825000
vt 0.425000 0.825000
vt 0.425000 0.925000
vt 0.825000 0.825000
vt 0.925000 0.825000
vt 0.420853 0.969774
vt 0.825000 0.825000
vt 0.925000 0.825000
vt 0.925000 0.925000
vt 0.825000 0.825000
vt 0.863444 0.825000
vt 0.863448 0.875000
vt 0.825000 0.875000
vt 0.875000 0.825000
vt 0.875000 0.863442
vt 0.825000 0.863446
vt 0.825000 0.825000
vt 0.886558 0.825000
vt 0.886551 0.875000
vt 0.825000 0.875000
vt 0.863444 0.925000
vt 0.825000 0.925000
vt 0.325000 0.825000
vt 0.425000 0.825000
vt 0.425000 0.925000
vt 0.925000 0.875000
vt 0.925000 0.925000
vt 0.925000 0.825000
vt 0.825000 0.825000
vt 0.886553 0.925000
vt 0.825000 0.925000
vt 0.875000 0.925000
vt 0.925000 0.863448
vt 0.925000 0.925000
vt 0.863445 0.925000
vt 0.825000 0.925000
vt 0.825000 0.925000
vt 0.325000 0.825000
vt 0.425000 0.825000
vt 0.425000 0.925000
vt 0.925000 0.875000
vt 0.925000 0.925000
vt 0.325000 0.825000
vt 0.425000 0.825000
vt 0.425000 0.925000
vt 0.325000 0.825000
vt 0.425000 0.825000
vt 0.425000 0.925000
vt 0.925000 0.875000
vt 0.925000 0.825000
vt 0.925000 0.925000
vt 0.825000 0.825000
vt 0.925000 0.825000
vt 0.925000 0.925000
vt 0.325000 0.825000
vt 0.425000 0.825000
vt 0.425000 0.925000
vt 0.804869 0.905158
vt 0.804172 0.905158
vt 0.803219 0.905158
vt 0.803219 0.905158
vt 0.805822 0.905158
vt 0.805822 0.905158
vt 0.804172 0.905158
vt 0.804869 0.905158
vt 0.805822 0.905158
vt 0.805822 0.905158
vt 0.804172 0.905158
vt 0.804869 0.905158
vt 0.804869 0.905158
vt 0.804172 0.905158
vt 0.803219 0.905158
vt 0.803219 0.905158
vn -1.0000 0.0000 0.0000
vn -0.0000 0.0000 1.0000
vn -0.7064 -0.0439 -0.7064
vn -0.4952 -0.0666 -0.8662
vn -0.4542 -0.1578 -0.8768
vn -0.1497 -0.6872 -0.7109
vn -0.5131 -0.6881 -0.5131
vn -0.5000 -0.7071 -0.5000
vn -0.2591 -0.6464 -0.7176
vn 0.1497 -0.6872 -0.7109
vn 0.2591 -0.6464 -0.7176
vn 0.5131 -0.6881 -0.5131
vn 0.5000 -0.7071 -0.5000
vn -0.5068 -0.2830 0.8143
vn -0.8662 -0.0666 -0.4952
vn -0.8662 0.0666 -0.4952
vn -0.7064 0.0439 -0.7064
vn -0.8768 -0.1578 -0.4542
vn -0.7109 -0.6872 -0.1497
vn -0.7176 -0.6464 -0.2591
vn -0.7109 -0.6872 0.1497
vn -0.7176 -0.6464 0.2591
vn -0.5131 -0.6881 0.5131
vn -0.5000 -0.7071 0.5000
vn -0.4952 -0.0666 0.8662
vn -0.7064 -0.0439 0.7064
vn -0.4542 -0.1578 0.8768
vn -0.1497 -0.6872 0.7109
vn -0.2591 -0.6464 0.7176
vn -0.8662 -0.0666 0.4952
vn -0.8768 -0.1578 0.4542
vn -0.5000 0.0000 0.8660
vn 0.4952 -0.0666 -0.8662
vn 0.7064 -0.0439 -0.7064
vn 0.4542 -0.1578 -0.8768
vn 0.7064 0.0439 -0.7064
vn 0.8662 0.0666 -0.4952
vn 0.8662 -0.0666 -0.4952
vn 0.8768 -0.1578 -0.4542
vn 0.7109 -0.6872 -0.1497
vn 0.7176 -0.6464 -0.2591
vn 0.7109 -0.6872 0.1497
vn 0.7176 -0.6464 0.2591
vn 0.5131 -0.6881 0.5131
vn 0.5000 -0.7071 0.5000
vn 0.4952 0.0666 -0.8662
vn 0.7064 -0.0439 0.7064
vn 0.4952 -0.0666 0.8662
vn 0.4542 -0.1578 0.8768
vn 0.1497 -0.6872 0.7109
vn 0.2591 -0.6464 0.7176
vn 0.8662 -0.0666 0.4952
vn 0.8768 -0.1578 0.4542
vn -0.4952 0.0666 -0.8662
vn -0.4542 0.1578 -0.8768
vn -0.3909 0.6192 -0.6810
vn -0.5000 0.7071 -0.5000
vn -0.5131 0.6881 -0.5131
vn -0.4179 0.5824 -0.6973
vn 0.3909 0.6192 -0.6810
vn 0.4179 0.5824 -0.6973
vn 0.5131 0.6881 -0.5131
vn 0.5000 0.7071 -0.5000
vn -0.5068 -0.2830 -0.8143
vn -0.8768 0.1578 -0.4542
vn -0.6810 0.6192 -0.3909
vn -0.6973 0.5824 -0.4179
vn -0.5131 0.6881 0.5131
vn -0.6973 0.5824 0.4179
vn -0.6810 0.6192 0.3909
vn -0.5000 0.7071 0.5000
vn -0.4952 0.0666 0.8662
vn -0.4542 0.1578 0.8768
vn -0.7064 0.0439 0.7064
vn -0.3909 0.6192 0.6810
vn -0.4179 0.5824 0.6973
vn -0.8768 0.1578 0.4542
vn -0.8662 0.0666 0.4952
vn 0.4542 0.1578 -0.8768
vn 0.8660 0.0000 0.5000
vn 0.0000 -1.0000 0.0000
vn 0.8768 0.1578 -0.4542
vn 0.6810 0.6192 -0.3909
vn 0.6973 0.5824 -0.4179
vn 0.6810 0.6192 0.3909
vn 0.6973 0.5824 0.4179
vn 0.5131 0.6881 0.5131
vn 0.5000 0.7071 0.5000
vn 0.7064 0.0439 0.7064
vn 0.4542 0.1578 0.8768
vn 0.4952 0.0666 0.8662
vn 0.3909 0.6192 0.6810
vn 0.4179 0.5824 0.6973
vn 0.5000 0.0000 0.8660
vn 0.8662 0.0666 0.4952
vn 0.8768 0.1578 0.4542
vn 1.0000 0.0000 0.0000
vn -0.8660 0.0000 0.5000
vn -0.8660 -0.0000 -0.5000
vn -0.5000 -0.0000 -0.8660
vn 0.0000 -0.0000 -1.0000
vn -0.8143 -0.2830 -0.5068
vn 0.8660 -0.0000 -0.5000
vn -0.6934 -0.1961 -0.6934
vn 0.8143 -0.2830 -0.5068
vn 0.5068 -0.2830 -0.8143
vn -0.6934 -0.1961 0.6934
vn 0.9806 -0.1961 0.0000
vn -0.5141 0.0000 -0.8577
vn 0.0000 1.0000 0.0000
vn -0.8577 0.0000 -0.5141
vn 0.6934 -0.1961 -0.6934
vn -0.9806 -0.1961 0.0000
vn -0.8577 0.0000 0.5141
vn 0.5141 -0.0000 0.8577
vn 0.8577 0.0000 -0.5141
vn 0.5141 0.0000 -0.8577
vn -0.5141 0.0000 0.8577
vn 0.8577 -0.0000 0.5141
vn 0.0000 -0.1961 0.9806
vn 0.5000 -0.0000 -0.8660
vn -0.6038 -0.7971 0.0000
vn -0.0000 -0.7971 0.6038
vn 0.6038 -0.7971 0.0000
vn 0.0000 -0.7971 -0.6038
vn 0.0000 -0.1961 -0.9806
vn 0.6934 -0.1961 0.6934
vn 0.9334 0.3589 -0.0000
vn 0.5068 -0.2830 0.8143
vn 0.8143 -0.2830 0.5068
vn -0.8143 -0.2830 0.5068
vn 0.0000 0.3589 0.9334
vn -0.9334 0.3589 0.0000
vn 0.0000 0.3588 -0.9334
vn 0.0000 0.9126 -0.4089
vn 0.0000 0.7457 -0.6663
vn 0.4089 0.9126 0.0000
vn 0.6663 0.7457 0.0000
vn -0.4089 0.9126 0.0000
vn -0.6663 0.7457 0.0000
vn -0.0000 0.9126 0.4089
vn -0.0000 0.7457 0.6663
vn -0.7564 0.6541 0.0000
vn -0.0000 0.6541 0.7564
vn 0.0000 0.6541 -0.7564
vn 0.7564 0.6541 0.0000
usemtl Material
s 1
f 67/1/1 66/2/1 28/3/1 54/4/1
f 64/5/2 63/6/2 134/7/2 136/8/2
f 13/9/3 4/10/4 7/11/5
f 7/11/6 15/12/7 13/9/8
f 15/12/7 7/11/6 34/13/9
f 7/11/6 5/14/10 8/15/11 34/13/9
f 5/14/10 31/16/12 8/15/11
f 31/16/12 5/14/10 9/17/13
f 73/18/14 140/19/14 55/20/14
f 11/21/15 44/22/16 46/23/17 13/24/3
f 11/21/15 13/24/3 10/25/18
f 10/25/19 15/12/7 16/26/20
f 15/12/7 10/25/19 13/24/8
f 12/27/21 10/25/19 16/26/20 37/28/22
f 35/29/23 12/27/21 37/28/22
f 12/27/21 35/29/23 21/30/24
f 49/31/2 148/32/2 81/33/2 20/34/2 18/35/2 19/36/2 17/37/2
f 20/34/25 21/38/26 18/35/27
f 18/35/28 35/29/23 36/39/29
f 35/29/23 18/35/28 21/38/24
f 21/30/26 23/40/30 12/27/31
f 64/5/32 136/8/32 14/41/32 65/42/32
f 6/43/33 9/17/34 5/14/35
f 42/44/36 82/45/37 24/46/38 9/47/34
f 9/47/34 24/46/38 25/48/39
f 25/48/40 31/16/12 9/47/13
f 31/16/12 25/48/40 33/49/41
f 25/48/40 30/50/42 32/51/43 33/49/41
f 30/50/42 38/52/44 32/51/43
f 38/52/44 30/50/42 26/53/45
f 42/54/36 9/17/34 6/43/33 80/55/46
f 26/56/47 17/37/48 19/36/49
f 19/36/50 38/52/44 26/56/45
f 38/52/44 19/36/50 27/57/51
f 29/58/52 26/53/47 30/50/53
f 4/10/4 13/9/3 46/59/17 79/60/54
f 46/59/17 40/61/55 79/60/54
f 40/62/56 46/63/57 47/64/58
f 47/65/58 74/66/59 40/67/56
f 39/68/60 41/69/61 71/70/62
f 71/71/62 42/72/63 39/73/60
f 58/74/64 83/75/64 142/76/64
f 44/22/16 43/77/65 46/23/17
f 43/78/66 48/79/67 47/64/58
f 47/65/58 46/63/57 43/80/66
f 75/81/68 77/82/69 45/83/70
f 45/84/70 52/85/71 75/86/68
f 81/33/72 50/87/73 52/88/74
f 50/89/75 76/90/76 75/86/68
f 75/81/68 52/85/71 50/91/75
f 52/92/74 45/93/77 53/94/78
f 80/55/46 39/95/79 42/54/36
f 62/96/80 61/97/80 137/98/80 133/99/80
f 101/100/81 97/101/81 103/102/81 102/103/81 91/104/81 16/105/81 15/106/81 34/107/81 8/108/81 31/109/81 33/110/81 32/111/81 38/112/81 27/113/81 36/114/81 35/115/81 37/116/81 95/117/81 99/118/81 100/119/81
f 42/44/36 55/120/82 82/45/37
f 55/121/83 42/72/63 71/70/62
f 71/71/62 73/122/84 55/20/83
f 58/123/85 72/124/86 78/125/87
f 78/126/87 56/127/88 58/128/85
f 56/129/89 51/130/90 49/31/91
f 51/131/92 56/127/88 78/125/87
f 78/126/87 57/132/93 51/133/92
f 62/96/94 133/99/94 134/7/94 63/6/94
f 83/134/95 58/135/96 56/136/89
f 104/137/81 86/138/81 107/139/81 92/140/81 98/141/81 93/142/81 108/143/81 94/144/81
f 61/97/97 60/145/97 135/146/97 137/98/97
f 87/147/97 86/148/97 104/149/97 90/150/97
f 14/41/98 28/3/98 66/2/98 65/42/98
f 54/4/99 3/151/99 68/152/99 67/1/99
f 3/151/100 22/153/100 69/154/100 68/152/100
f 20/34/25 81/33/72 52/88/74 21/38/26
f 1/155/101 70/156/101 69/154/101 22/153/101
f 51/131/102 57/132/102 152/157/102
f 59/158/103 2/159/103 135/146/103 60/145/103
f 49/31/91 17/37/48 26/56/47 56/129/89
f 108/160/104 101/161/104 100/162/104 94/163/104
f 50/164/105 81/165/105 156/166/105
f 5/14/101 7/11/101 4/10/101 79/60/101 143/167/101 80/55/101 6/43/101
f 77/168/106 149/169/106 45/83/106
f 85/170/101 107/171/101 86/172/101 87/173/101
f 117/174/1 129/175/1 125/176/1 113/177/1
f 98/178/107 103/179/107 97/180/107 93/181/107
f 105/182/108 95/183/108 91/184/108 106/185/108
f 27/57/51 19/36/50 18/35/28 36/39/29
f 119/186/2 115/187/2 127/188/2 131/189/2
f 109/190/97 118/191/97 130/192/97 121/193/97
f 120/194/109 114/195/109 126/196/109 132/197/109
f 74/198/110 47/199/110 48/200/110 146/201/110 77/202/110 75/203/110 76/204/110 147/205/110 57/206/110 78/207/110 114/208/110 120/209/110 111/210/110 110/211/110 118/212/110 109/213/110 112/214/110 115/215/110 119/216/110 116/217/110 117/218/110 113/219/110 72/220/110 138/221/110 73/222/110 71/223/110 41/224/110 144/225/110
f 78/126/110 72/124/110 113/226/110 114/227/110
f 121/228/110 130/229/110 122/230/110 123/231/110 132/232/110 126/233/110 125/234/110 129/235/110 128/236/110 131/237/110 127/238/110 124/239/110
f 114/240/111 113/241/111 125/176/111 126/242/111
f 96/243/112 99/244/112 95/183/112 105/245/112
f 93/246/113 97/180/113 101/161/113 108/247/113
f 111/248/101 120/249/101 132/250/101 123/251/101
f 117/174/114 116/252/114 128/253/114 129/254/114
f 115/255/115 112/256/115 124/257/115 127/258/115
f 118/259/116 110/260/116 122/261/116 130/262/116
f 110/263/117 111/264/117 123/265/117 122/266/117
f 116/267/118 119/268/118 131/269/118 128/270/118
f 112/271/119 109/272/119 121/273/119 124/274/119
f 88/275/1 89/276/1 107/277/1 85/278/1
f 92/279/120 102/280/120 103/179/120 98/281/120
f 89/282/81 104/137/81 94/144/81 96/283/81 105/284/81 106/285/81 92/140/81 107/139/81
f 1/155/121 2/159/121 59/158/121 70/156/121
f 21/30/26 52/92/74 53/94/78 23/40/30
f 90/286/2 104/287/2 89/288/2 88/289/2
f 83/134/95 56/136/89 26/53/47 29/58/52
f 84/290/122 88/291/122 85/292/122
f 88/291/123 84/290/123 90/293/123
f 84/290/124 87/294/124 90/293/124
f 87/294/125 84/290/125 85/292/125
f 16/295/81 91/104/81 95/296/81 37/297/81
f 24/46/97 82/45/97 139/298/97 83/134/97 29/58/97 30/50/97 25/48/97
f 94/299/126 100/162/126 99/244/126 96/300/126
f 106/301/127 91/184/127 102/280/127 92/302/127
f 72/303/128 142/304/128 141/305/128 138/306/128
f 44/307/129 155/308/129 43/309/129
f 74/310/130 154/311/130 40/67/130
f 53/94/1 145/312/1 44/22/1 11/21/1 10/25/1 12/27/1 23/40/1
f 41/313/131 39/314/131 157/315/131
f 76/316/132 156/317/132 151/318/132 147/319/132
f 77/168/133 146/320/133 150/321/133 149/322/133
f 79/323/134 154/324/134 153/325/134 143/326/134
f 138/306/128 141/305/128 140/327/128 73/328/128
f 55/329/14 140/330/14 82/331/14
f 140/327/128 141/305/128 139/332/128 82/333/128
f 141/305/128 142/304/128 83/334/128 139/332/128
f 142/335/64 72/124/64 58/128/64
f 143/326/134 153/325/134 157/336/134 80/337/134
f 145/338/133 150/321/133 155/339/133 44/340/133
f 147/319/132 151/318/132 152/341/132 57/342/132
f 149/322/133 150/321/133 145/338/133 53/343/133
f 45/344/106 149/345/106 53/346/106
f 152/341/132 151/318/132 148/347/132 49/348/132
f 152/349/102 49/350/102 51/351/102
f 40/352/130 154/353/130 79/354/130
f 153/325/134 154/324/134 74/66/134 144/355/134
f 43/78/129 155/356/129 48/357/129
f 155/339/133 150/321/133 146/320/133 48/79/133
f 156/358/105 76/90/105 50/91/105
f 151/318/132 156/317/132 81/359/132 148/347/132
f 157/336/134 153/325/134 144/355/134 41/360/134
f 157/361/131 39/362/131 80/363/131
f 136/8/135 134/7/135 158/364/136 162/365/136
f 54/4/137 28/3/137 159/366/138 160/367/138
f 137/98/139 135/146/139 161/368/140 163/369/140
f 1/155/141 22/153/141 164/370/142 165/371/142
f 163/369/140 161/368/140 169/372/143 171/373/143
f 165/371/142 164/370/142 172/374/144 173/375/144
f 162/365/136 158/364/136 166/376/145 170/377/145
f 160/367/138 159/366/138 167/378/146 168/379/146
