# Blender v2.79 (sub 0) OBJ File: ''
# www.blender.org
mtllib GCfrictionpad.mtl
o m_BF_Block_Faired_111_Instance.001
v -0.000001 0.599999 0.000000
v 0.132022 0.499999 0.132023
v 0.132022 0.500000 -0.132023
v -0.132023 0.499999 0.132023
v -0.132023 0.499999 -0.132023
v 0.475000 0.425000 -0.475000
v 0.475000 0.425000 0.475000
v -0.475000 0.425000 0.475000
v -0.475000 0.425000 -0.475000
v 0.500000 0.500000 -0.500000
v 0.500000 0.500000 0.500000
v -0.500000 0.500000 0.500000
v -0.500000 0.500000 -0.500000
v 0.400000 0.400000 -0.400000
v 0.400000 0.400000 0.400000
v -0.400000 0.400000 0.400000
v -0.400000 0.400000 -0.400000
v 0.200000 0.300000 -0.200000
v 0.200000 0.300000 0.200000
v -0.200000 0.300000 -0.200000
v -0.200000 0.300000 0.200000
v -0.437500 0.412500 0.437500
v 0.437500 0.412500 0.437500
v 0.437500 0.412500 -0.437500
v -0.437500 0.412500 -0.437500
v 0.406005 0.368027 -0.133994
v 0.406005 0.368027 0.133994
v 0.133994 0.368027 -0.406005
v -0.133994 0.368027 -0.406005
v 0.133994 0.368027 0.406005
v -0.133994 0.368027 0.406005
v -0.406005 0.368027 0.133994
v -0.406005 0.368027 -0.133994
v 0.202794 0.284554 -0.066974
v 0.202794 0.284554 0.066974
v 0.066974 0.284554 -0.202794
v -0.066974 0.284554 -0.202794
v 0.066974 0.284554 0.202794
v -0.066974 0.284554 0.202794
v -0.202794 0.284554 0.066974
v -0.202794 0.284554 -0.066974
v -0.332995 0.368173 0.332995
v -0.267146 0.331250 0.267146
v 0.267146 0.331250 0.267146
v 0.332995 0.368173 0.332995
v 0.267146 0.331250 -0.267146
v 0.332995 0.368173 -0.332995
v -0.332995 0.368173 -0.332995
v -0.267146 0.331250 -0.267146
v -0.111376 0.342961 -0.337433
v -0.089631 0.309283 -0.271487
v 0.111377 0.342961 -0.337433
v 0.089631 0.309283 -0.271487
v -0.337433 0.342961 0.111376
v -0.271487 0.309283 0.089631
v -0.337433 0.342961 -0.111377
v -0.271487 0.309283 -0.089631
v 0.337433 0.342961 -0.111376
v 0.271487 0.309283 -0.089631
v 0.337433 0.342961 0.111377
v 0.271487 0.309283 0.089631
v 0.067919 0.268442 -0.067946
v -0.067919 0.268442 -0.067946
v 0.067919 0.268442 0.067946
v -0.067919 0.268442 0.067946
v 0.111377 0.342961 0.337433
v 0.089631 0.309283 0.271487
v -0.111377 0.342961 0.337433
v -0.089631 0.309283 0.271487
vt 0.416011 0.834232
vt 0.452550 0.870771
vt 0.452550 0.797693
vt 0.379472 0.870771
vt 0.379472 0.797693
vt 0.886107 0.263060
vt 0.988893 0.263060
vt 0.988893 0.365846
vt 0.347631 0.937474
vt 0.269557 0.937475
vt 0.269557 0.859400
vt 0.347631 0.859400
vt 0.713494 0.858395
vt 0.710371 0.877914
vt 0.835290 0.877913
vt 0.832167 0.858395
vt 0.713494 0.858395
vt 0.710371 0.877914
vt 0.835290 0.877913
vt 0.832167 0.858395
vt 0.713494 0.858395
vt 0.710371 0.877914
vt 0.835290 0.877913
vt 0.832167 0.858395
vt 0.835290 0.877913
vt 0.832167 0.858395
vt 0.713494 0.858395
vt 0.710371 0.877914
vt 0.927837 0.342783
vt 0.906480 0.342477
vt 0.914911 0.334032
vt 0.930618 0.334192
vt 0.886107 0.263060
vt 0.988893 0.263060
vt 0.988893 0.365846
vt 0.886107 0.263060
vt 0.988893 0.263060
vt 0.988893 0.365846
vt 0.886107 0.263060
vt 0.988893 0.263060
vt 0.988893 0.365846
vt 0.930569 0.318392
vt 0.914733 0.318317
vt 0.970754 0.321122
vt 0.970445 0.342486
vt 0.961998 0.334053
vt 0.962161 0.318334
vt 0.906199 0.299877
vt 0.906509 0.278513
vt 0.914955 0.286946
vt 0.914792 0.302665
vt 0.949116 0.278216
vt 0.970473 0.278522
vt 0.962042 0.286967
vt 0.946335 0.286807
vt 0.827482 0.829117
vt 0.718178 0.829117
vt 0.827482 0.829117
vt 0.718178 0.829117
vt 0.827482 0.829117
vt 0.718178 0.829117
vt 0.827482 0.829117
vt 0.718178 0.829117
vt 0.927873 0.278171
vt 0.930680 0.286764
vt 0.889178 0.261190
vt 0.922121 0.260514
vt 0.925044 0.269346
vt 0.897873 0.269883
vt 0.954832 0.260514
vt 0.951925 0.269359
vt 0.987794 0.261194
vt 0.979101 0.269888
vt 0.906142 0.321119
vt 0.889160 0.359805
vt 0.888487 0.326865
vt 0.897318 0.323945
vt 0.897852 0.351111
vt 0.888497 0.294154
vt 0.897341 0.297064
vt 0.970811 0.299880
vt 0.962220 0.302682
vt 0.988467 0.294134
vt 0.979635 0.297054
vt 0.988456 0.326845
vt 0.979612 0.323935
vt 0.987775 0.359809
vt 0.979080 0.351116
vt 0.930604 0.302602
vt 0.946384 0.302607
vt 0.946349 0.318397
vt 0.946273 0.334235
vt 0.886107 0.263060
vt 0.988893 0.263060
vt 0.988893 0.365846
vt 0.624863 0.204645
vt 0.374935 0.201344
vt 0.461831 0.186924
vt 0.538377 0.187935
vt 0.886107 0.263060
vt 0.988893 0.263060
vt 0.988893 0.365846
vt 0.624862 0.204645
vt 0.374934 0.201344
vt 0.461831 0.186924
vt 0.538376 0.187935
vt 0.886107 0.263060
vt 0.988893 0.263060
vt 0.988893 0.365846
vt 0.624862 0.204645
vt 0.374934 0.201344
vt 0.461830 0.186924
vt 0.538376 0.187935
vt 0.949080 0.342829
vt 0.954832 0.360485
vt 0.951910 0.351653
vt 0.922121 0.360485
vt 0.925028 0.351640
vt 0.886107 0.263060
vt 0.988893 0.263060
vt 0.988893 0.365846
vt 0.624863 0.204595
vt 0.374934 0.201294
vt 0.461832 0.186874
vt 0.538377 0.187885
vn 0.6038 0.7971 0.0000
vn 0.0000 0.7971 0.6038
vn -0.6038 0.7971 0.0000
vn -0.0000 0.7971 -0.6038
vn 0.1770 -0.9682 0.1770
vn 0.1622 -0.9733 0.1622
vn 0.0399 -0.8094 0.5860
vn -0.0000 1.0000 0.0000
vn 0.8310 -0.5562 0.0000
vn 0.9487 -0.3162 0.0000
vn -0.0000 -0.5562 0.8310
vn -0.0000 -0.3162 0.9487
vn -0.8310 -0.5562 -0.0000
vn -0.9487 -0.3162 -0.0000
vn 0.0000 -0.3162 -0.9487
vn 0.0000 -0.5562 -0.8310
vn -0.0598 -0.9233 0.3795
vn -0.2546 -0.9329 0.2546
vn -0.1917 -0.9625 0.1917
vn -0.0539 -0.9731 0.2240
vn -0.1770 -0.9682 -0.1770
vn -0.1622 -0.9733 -0.1622
vn -0.0399 -0.8094 -0.5860
vn 0.1770 -0.9682 -0.1770
vn 0.1622 -0.9733 -0.1622
vn 0.5860 -0.8094 -0.0399
vn -0.1770 -0.9682 0.1770
vn -0.1622 -0.9733 0.1622
vn -0.5860 -0.8094 0.0399
vn -0.0593 -0.9965 0.0593
vn -0.2240 -0.9731 0.0539
vn 0.3795 -0.9233 0.0598
vn 0.2546 -0.9329 0.2546
vn 0.1917 -0.9625 0.1917
vn 0.2240 -0.9731 0.0539
vn -0.3795 -0.9233 -0.0598
vn -0.2546 -0.9329 -0.2546
vn -0.1917 -0.9625 -0.1917
vn -0.2240 -0.9731 -0.0539
vn 0.0598 -0.9233 -0.3795
vn 0.2546 -0.9329 -0.2546
vn 0.1917 -0.9625 -0.1917
vn 0.0539 -0.9731 -0.2240
vn -0.3162 -0.9487 -0.0000
vn 0.3162 -0.9487 0.0000
vn 0.0000 -0.9487 -0.3162
vn -0.0000 -0.9487 0.3162
vn -0.0598 -0.9233 -0.3795
vn -0.0539 -0.9731 -0.2240
vn -0.0583 -0.9225 -0.3815
vn -0.2321 -0.9446 -0.2321
vn 0.0399 -0.8094 -0.5860
vn 0.0583 -0.9225 -0.3815
vn 0.2321 -0.9446 -0.2321
vn -0.3795 -0.9233 0.0598
vn -0.3815 -0.9225 0.0583
vn -0.2321 -0.9446 0.2321
vn -0.5860 -0.8094 -0.0399
vn -0.3815 -0.9225 -0.0583
vn 0.3795 -0.9233 -0.0598
vn 0.2240 -0.9731 -0.0539
vn 0.3815 -0.9225 -0.0583
vn 0.5860 -0.8094 0.0399
vn 0.3815 -0.9225 0.0583
vn 0.2321 -0.9446 0.2321
vn -0.0593 -0.9965 -0.0593
vn 0.0593 -0.9965 -0.0593
vn 0.0593 -0.9965 0.0593
vn 0.0539 -0.9731 0.2240
vn -0.8161 -0.5779 -0.0000
vn 0.8161 -0.5779 0.0000
vn 0.0000 -0.5779 -0.8161
vn 0.0598 -0.9233 0.3795
vn 0.0583 -0.9225 0.3815
vn -0.0399 -0.8094 0.5860
vn -0.0583 -0.9225 0.3815
vn -0.0000 -0.5779 0.8161
usemtl Material
s off
f 1/1/1 2/2/1 3/3/1
f 2/2/2 1/1/2 4/4/2
f 1/1/3 5/5/3 4/4/3
f 5/5/4 1/1/4 3/3/4
s 1
f 15/6/5 23/7/6 30/8/7
f 10/9/8 13/10/8 12/11/8 11/12/8
f 6/13/9 10/14/10 11/15/10 7/16/9
f 7/17/11 11/18/12 12/19/12 8/20/11
f 8/21/13 12/22/14 13/23/14 9/24/13
f 10/25/15 6/26/16 9/27/16 13/28/15
f 69/29/17 43/30/18 21/31/19 39/32/20
f 17/33/21 25/34/22 29/35/23
f 14/36/24 24/37/25 26/38/26
f 16/39/27 22/40/28 32/41/29
f 65/42/30 39/32/20 21/31/19 40/43/31
f 61/44/32 44/45/33 19/46/34 35/47/35
f 57/48/36 49/49/37 20/50/38 41/51/39
f 53/52/40 46/53/41 18/54/42 36/55/43
f 8/21/13 9/24/13 25/56/44 22/57/44
f 6/13/9 7/16/9 23/58/45 24/59/45
f 9/27/16 6/26/16 24/60/46 25/61/46
f 7/17/11 8/20/11 22/62/47 23/63/47
f 49/49/37 51/64/48 37/65/49 20/50/38
f 51/64/48 53/52/40 36/55/43 37/65/49
f 17/66/21 29/67/23 50/68/50 48/69/51
f 48/69/51 50/68/50 51/64/48 49/49/37
f 29/67/23 28/70/52 52/71/53 50/68/50
f 50/68/50 52/71/53 53/52/40 51/64/48
f 28/70/52 14/72/24 47/73/54 52/71/53
f 52/71/53 47/73/54 46/53/41 53/52/40
f 43/30/18 55/74/55 40/43/31 21/31/19
f 55/74/55 57/48/36 41/51/39 40/43/31
f 16/75/27 32/76/29 54/77/56 42/78/57
f 42/78/57 54/77/56 55/74/55 43/30/18
f 32/76/29 33/79/58 56/80/59 54/77/56
f 54/77/56 56/80/59 57/48/36 55/74/55
f 33/79/58 17/66/21 48/69/51 56/80/59
f 56/80/59 48/69/51 49/49/37 57/48/36
f 46/53/41 59/81/60 34/82/61 18/54/42
f 59/81/60 61/44/32 35/47/35 34/82/61
f 14/72/24 26/83/26 58/84/62 47/73/54
f 47/73/54 58/84/62 59/81/60 46/53/41
f 26/83/26 27/85/63 60/86/64 58/84/62
f 58/84/62 60/86/64 61/44/32 59/81/60
f 27/85/63 15/87/5 45/88/65 60/86/64
f 60/86/64 45/88/65 44/45/33 61/44/32
f 37/65/49 63/89/66 41/51/39 20/50/38
f 63/89/66 65/42/30 40/43/31 41/51/39
f 18/54/42 34/82/61 62/90/67 36/55/43
f 36/55/43 62/90/67 63/89/66 37/65/49
f 34/82/61 35/47/35 64/91/68 62/90/67
f 62/90/67 64/91/68 65/42/30 63/89/66
f 35/47/35 19/46/34 38/92/69 64/91/68
f 64/91/68 38/92/69 39/32/20 65/42/30
f 25/93/22 17/94/21 33/95/58
f 22/96/70 25/97/70 33/98/58 32/99/29
f 23/100/6 15/101/5 27/102/63
f 24/103/71 23/104/71 27/105/63 26/106/26
f 24/107/25 14/108/24 28/109/52
f 25/110/72 24/111/72 28/112/52 29/113/23
f 44/45/33 67/114/73 38/92/69 19/46/34
f 67/114/73 69/29/17 39/32/20 38/92/69
f 15/87/5 30/115/7 66/116/74 45/88/65
f 45/88/65 66/116/74 67/114/73 44/45/33
f 30/115/7 31/117/75 68/118/76 66/116/74
f 66/116/74 68/118/76 69/29/17 67/114/73
f 31/117/75 16/75/27 42/78/57 68/118/76
f 68/118/76 42/78/57 43/30/18 69/29/17
f 22/119/28 16/120/27 31/121/75
f 23/122/77 22/123/77 31/124/75 30/125/7
