# Blender v2.79 (sub 0) OBJ File: 'Swivel small.blend'
# www.blender.org
mtllib swivel_ven_head.mtl
o Cube.001
v 0.600000 0.000000 0.000000
v 0.499999 -0.132023 0.132023
v 0.499999 -0.132023 -0.132023
v 0.499999 0.132023 -0.132023
v 0.499999 0.132023 0.132023
v 0.000000 -0.159375 0.000000
v 0.000000 0.159375 0.000000
v -0.207414 -0.159375 -0.500743
v -0.207414 0.159375 -0.500743
v 0.207414 -0.159375 -0.500743
v 0.207414 0.159375 -0.500743
v 0.500743 -0.159375 -0.207414
v 0.500743 0.159375 -0.207414
v 0.500743 -0.159375 0.207414
v 0.500743 0.159375 0.207414
v 0.207414 -0.159375 0.500743
v 0.207414 0.159375 0.500743
v -0.207414 -0.159375 0.500743
v -0.207414 0.159375 0.500743
v -0.500743 -0.159375 0.207414
v -0.500743 0.159375 0.207414
v -0.500743 -0.159375 -0.207414
v -0.500743 0.159375 -0.207414
v -0.207414 0.132023 -0.500743
v 0.207414 0.132023 -0.500743
v 0.500743 0.132023 -0.207414
v 0.500743 0.132023 0.207414
v 0.207414 0.132023 0.500743
v -0.207414 0.132023 0.500743
v -0.500743 0.132023 0.207414
v -0.500743 0.132023 -0.207414
v 0.207414 -0.132022 -0.500743
v 0.500743 -0.132022 -0.207414
v 0.500743 -0.132022 0.207414
v 0.207414 -0.132022 0.500743
v -0.207414 -0.132022 0.500743
v -0.500743 -0.132022 0.207414
v -0.500743 -0.132022 -0.207414
v -0.207414 -0.132022 -0.500743
v -0.000000 0.000000 0.600000
v -0.132023 -0.132023 0.499999
v 0.132023 -0.132023 0.499999
v 0.132023 0.132023 0.499999
v -0.132023 0.132023 0.499999
v -0.600000 0.000000 -0.000000
v -0.499999 -0.132023 -0.132023
v -0.499999 -0.132023 0.132023
v -0.499999 0.132023 0.132023
v -0.499999 0.132023 -0.132023
v 0.000000 0.000000 -0.600000
v 0.132023 -0.132023 -0.499999
v -0.132023 -0.132023 -0.499999
v -0.132023 0.132023 -0.499999
v 0.132023 0.132023 -0.499999
vt 0.645225 0.244835
vt 0.714844 0.314453
vt 0.645225 0.384072
vt 0.784462 0.244835
vt 0.784462 0.384072
vt 0.645225 0.244835
vt 0.714844 0.314453
vt 0.645225 0.384072
vt 0.784462 0.244835
vt 0.784462 0.384072
vt 0.645225 0.244835
vt 0.714844 0.314453
vt 0.645225 0.384072
vt 0.784462 0.244835
vt 0.784462 0.384072
vt 0.645225 0.244835
vt 0.714844 0.314453
vt 0.645225 0.384072
vt 0.784462 0.244835
vt 0.784462 0.384072
vt 0.897186 0.224892
vt 0.834686 0.199004
vt 0.871298 0.162392
vt 0.897186 0.224892
vt 0.959686 0.199004
vt 0.959686 0.250781
vt 0.847222 0.368892
vt 0.840394 0.368892
vt 0.840394 0.295669
vt 0.847222 0.295669
vt 0.923074 0.162392
vt 0.923074 0.162392
vt 0.895093 0.361178
vt 0.890174 0.361178
vt 0.890174 0.286584
vt 0.895093 0.286584
vt 0.959686 0.199004
vt 0.871298 0.162392
vt 0.905869 0.372153
vt 0.899041 0.372153
vt 0.899041 0.298929
vt 0.905869 0.298929
vt 0.959686 0.250781
vt 0.834686 0.199004
vt 0.837775 0.361178
vt 0.832857 0.361178
vt 0.832857 0.286584
vt 0.837775 0.286584
vt 0.642954 0.433971
vt 0.669080 0.444793
vt 0.653776 0.460097
vt 0.642954 0.433971
vt 0.616828 0.444793
vt 0.616828 0.423149
vt 0.526926 0.468310
vt 0.520099 0.468310
vt 0.520099 0.395087
vt 0.526926 0.395087
vt 0.923074 0.287392
vt 0.871298 0.287392
vt 0.871298 0.287392
vt 0.834686 0.250781
vt 0.837775 0.361178
vt 0.832857 0.361178
vt 0.832857 0.286584
vt 0.837775 0.286584
vt 0.834686 0.250781
vt 0.923074 0.287392
vt 0.826299 0.372153
vt 0.819471 0.372153
vt 0.819471 0.298929
vt 0.826299 0.298929
vt 0.895093 0.361178
vt 0.890174 0.361178
vt 0.890174 0.286584
vt 0.895093 0.286584
vt 0.942573 0.361178
vt 0.942573 0.286584
vt 0.892213 0.372153
vt 0.892213 0.298929
vt 0.885256 0.361178
vt 0.885256 0.286584
vt 0.592840 0.468310
vt 0.592840 0.395087
vt 0.885256 0.361178
vt 0.885256 0.286584
vt 0.971782 0.372152
vt 0.971782 0.298929
vt 0.942573 0.361178
vt 0.942573 0.286584
vt 0.913135 0.368892
vt 0.913135 0.295669
vt 0.919963 0.368892
vt 0.919963 0.295669
vt 0.947492 0.361178
vt 0.947492 0.286584
vt 0.978610 0.372152
vt 0.978610 0.298929
vt 0.890174 0.361178
vt 0.890174 0.286584
vt 0.599668 0.468310
vt 0.599668 0.395087
vt 0.890174 0.361178
vt 0.890174 0.286584
vt 0.899041 0.372153
vt 0.899041 0.298929
vt 0.947492 0.361178
vt 0.947492 0.286584
vn 0.7971 0.6038 -0.0000
vn 0.7971 -0.6038 -0.0000
vn 0.7971 0.0000 -0.6038
vn 0.7971 0.0000 0.6038
vn 0.0000 0.6038 0.7971
vn 0.0000 -0.6038 0.7971
vn 0.6038 -0.0000 0.7971
vn -0.6038 0.0000 0.7971
vn -0.7971 0.6038 -0.0000
vn -0.7971 -0.6038 -0.0000
vn -0.7971 0.0000 0.6038
vn -0.7971 0.0000 -0.6038
vn 0.0000 0.6038 -0.7971
vn -0.0000 -0.6038 -0.7971
vn -0.6038 -0.0000 -0.7971
vn 0.6038 0.0000 -0.7971
vn 0.0000 -1.0000 0.0000
vn 0.0000 -0.6000 -0.8000
vn 0.0000 1.0000 0.0000
vn 0.0000 0.6000 -0.8000
vn 0.0000 0.0000 -1.0000
vn 0.5657 -0.6000 -0.5657
vn 0.5657 0.6000 -0.5657
vn 0.7071 -0.0000 -0.7071
vn 0.8000 -0.6000 0.0000
vn 0.8000 0.6000 0.0000
vn 1.0000 -0.0000 0.0000
vn 0.5657 -0.6000 0.5657
vn 0.5657 0.6000 0.5657
vn 0.7071 -0.0000 0.7071
vn -0.0000 -0.6000 0.8000
vn -0.0000 0.6000 0.8000
vn -0.0000 -0.0000 1.0000
vn -0.5657 -0.6000 0.5657
vn -0.5657 0.6000 0.5657
vn -0.7071 0.0000 0.7071
vn -0.8000 -0.6000 0.0000
vn -0.8000 0.6000 0.0000
vn -1.0000 0.0000 0.0000
vn -0.5657 -0.6000 -0.5657
vn -0.5657 0.6000 -0.5657
vn -0.7071 0.0000 -0.7071
usemtl Material
s off
f 5/1/1 1/2/1 4/3/1
f 2/4/2 3/5/2 1/2/2
f 1/2/3 3/5/3 4/3/3
f 2/4/4 1/2/4 5/1/4
f 44/6/5 40/7/5 43/8/5
f 41/9/6 42/10/6 40/7/6
f 40/7/7 42/10/7 43/8/7
f 41/9/8 40/7/8 44/6/8
f 49/11/9 45/12/9 48/13/9
f 46/14/10 47/15/10 45/12/10
f 45/12/11 47/15/11 48/13/11
f 46/14/12 45/12/12 49/11/12
f 54/16/13 50/17/13 53/18/13
f 51/19/14 52/20/14 50/17/14
f 50/17/15 52/20/15 53/18/15
f 51/19/16 50/17/16 54/16/16
s 1
f 6/21/17 8/22/18 10/23/18
f 7/24/19 11/25/20 9/26/20
f 24/27/21 9/28/20 11/29/20 25/30/21
f 6/21/17 10/23/22 12/31/22
f 7/24/19 13/32/23 11/25/23
f 25/33/24 11/34/23 13/35/23 26/36/24
f 6/21/17 12/31/25 14/37/25
f 7/24/19 15/38/26 13/32/26
f 26/39/27 13/40/26 15/41/26 27/42/27
f 6/21/17 14/37/28 16/43/28
f 7/24/19 17/44/29 15/38/29
f 27/45/30 15/46/29 17/47/29 28/48/30
f 6/49/17 16/50/31 18/51/31
f 7/52/19 19/53/32 17/54/32
f 28/55/33 17/56/32 19/57/32 29/58/33
f 6/21/17 18/59/34 20/60/34
f 7/24/19 21/61/35 19/62/35
f 29/63/36 19/64/35 21/65/35 30/66/36
f 6/21/17 20/60/37 22/67/37
f 7/24/19 23/68/38 21/61/38
f 30/69/39 21/70/38 23/71/38 31/72/39
f 6/21/17 22/67/40 8/22/40
f 7/24/19 9/26/41 23/68/41
f 31/73/42 23/74/41 9/75/41 24/76/42
f 38/77/42 31/73/42 24/76/42 39/78/42
f 37/79/39 30/69/39 31/72/39 38/80/39
f 36/81/36 29/63/36 30/66/36 37/82/36
f 35/83/33 28/55/33 29/58/33 36/84/33
f 34/85/30 27/45/30 28/48/30 35/86/30
f 33/87/27 26/39/27 27/42/27 34/88/27
f 32/89/24 25/33/24 26/36/24 33/90/24
f 39/91/21 24/27/21 25/30/21 32/92/21
f 8/93/18 39/91/21 32/92/21 10/94/18
f 10/95/22 32/89/24 33/90/24 12/96/22
f 12/97/25 33/87/27 34/88/27 14/98/25
f 14/99/28 34/85/30 35/86/30 16/100/28
f 16/101/31 35/83/33 36/84/33 18/102/31
f 18/103/34 36/81/36 37/82/36 20/104/34
f 20/105/37 37/79/39 38/80/39 22/106/37
f 22/107/40 38/77/42 39/78/42 8/108/40
