# Blender v2.80 (sub 75) OBJ File: 'untitled.blend'
# www.blender.org
mtllib bf rail piston base.mtl
o Cube.000_Cube.006
v 0.125000 0.500000 0.400000
v 0.125000 0.500000 0.500000
v 0.500000 -0.500000 0.400000
v 0.500000 -0.500000 0.500000
v 0.500000 0.500000 0.400000
v 0.500000 0.500000 0.500000
v -0.500000 -0.500000 0.400000
v -0.500000 -0.500000 0.500000
v -0.500000 0.500000 0.400000
v -0.500000 0.500000 0.500000
v -0.125000 0.500000 0.400000
v -0.125000 0.500000 0.500000
v 0.250000 -0.437500 0.175000
v -0.250000 -0.437500 0.175000
v 0.300000 -0.500000 0.400000
v 0.300000 0.500000 -0.125000
v 0.300000 0.500000 0.150000
v -0.300000 0.500000 0.150000
v -0.125250 0.500000 -0.125000
v 0.125250 0.500000 -0.125000
v 0.300000 -0.300000 0.400000
v -0.300000 -0.300000 0.400000
v 0.125250 0.500000 0.125000
v 0.240000 0.500000 0.400000
v -0.240000 0.500000 0.180000
v -0.200000 -0.375000 0.200000
v 0.240000 0.500000 0.180000
v 0.200000 -0.375000 0.200000
v -0.240000 0.500000 0.400000
v 0.240000 -0.000000 0.180000
v 0.240000 -0.000000 0.400000
v 0.240000 -0.250000 0.180000
v 0.240000 -0.250000 0.400000
v 0.200000 0.375000 0.400000
v 0.240000 0.250000 0.400000
v 0.200000 0.375000 0.200000
v 0.240000 0.250000 0.180000
v 0.200000 0.125000 0.400000
v 0.200000 0.125000 0.200000
v -0.240000 -0.000000 0.180000
v -0.240000 -0.000000 0.400000
v -0.240000 -0.250000 0.180000
v -0.240000 -0.250000 0.400000
v -0.240000 0.250000 0.400000
v -0.240000 0.250000 0.180000
v -0.200000 0.375000 0.200000
v -0.200000 0.375000 0.400000
v -0.200000 0.125000 0.400000
v -0.200000 0.125000 0.200000
v 0.200000 -0.125000 0.400000
v 0.200000 -0.375000 0.400000
v 0.200000 -0.125000 0.200000
v -0.200000 -0.125000 0.400000
v -0.200000 -0.125000 0.200000
v -0.200000 -0.375000 0.400000
v -0.500000 -0.400000 -0.400000
v -0.400000 -0.400000 -0.500000
v -0.400000 -0.500000 -0.400000
v -0.500000 0.400000 -0.400000
v -0.400000 0.500000 -0.400000
v -0.400000 0.400000 -0.500000
v 0.500000 -0.400000 -0.400000
v 0.400000 -0.500000 -0.400000
v 0.400000 -0.400000 -0.500000
v 0.500000 0.400000 -0.400000
v 0.400000 0.400000 -0.500000
v 0.400000 0.500000 -0.400000
v -0.500000 -0.400000 0.400000
v -0.400000 -0.500000 0.400000
v -0.400000 0.500000 0.400000
v -0.500000 0.400000 0.400000
v 0.500000 0.400000 0.400000
v 0.400000 0.500000 0.400000
v 0.400000 -0.500000 0.400000
v 0.500000 -0.400000 0.400000
v 0.400000 0.500000 -0.300000
v 0.500000 0.400000 -0.200000
v 0.500000 0.400000 0.200000
v 0.400000 0.500000 0.300000
v -0.400000 0.500000 -0.300000
v -0.500000 0.400000 -0.200000
v -0.400000 0.500000 0.300000
v -0.500000 0.400000 0.200000
v -0.300000 -0.500000 0.400000
v -0.300000 0.500000 0.400000
v 0.300000 0.500000 0.400000
v 0.500000 -0.125000 0.125000
v 0.500000 -0.125000 -0.125000
v 0.500000 0.125000 0.125000
v 0.500000 0.125000 -0.125000
v 0.600000 0.000000 0.000000
v -0.125000 -0.500000 0.125000
v -0.125000 -0.500000 -0.125000
v 0.125000 -0.500000 0.125000
v 0.125000 -0.500000 -0.125000
v 0.000000 -0.600000 -0.000000
v -0.500000 0.125000 0.125000
v -0.500000 0.125000 -0.125000
v -0.500000 -0.125000 0.125000
v -0.500000 -0.125000 -0.125000
v -0.600000 -0.000000 -0.000000
v -0.125000 0.500000 0.125000
v 0.000000 0.600000 0.000000
v 0.125000 0.125000 -0.500000
v 0.125000 -0.125000 -0.500000
v -0.125000 0.125000 -0.500000
v -0.125000 -0.125000 -0.500000
v 0.000000 0.000000 -0.600000
v -0.300000 0.500000 -0.400000
v -0.200000 0.500000 -0.250000
v 0.300000 0.500000 -0.400000
v 0.200000 0.500000 -0.250000
v -0.302500 0.500000 -0.010000
v -0.302500 -0.300000 -0.010000
v 0.302500 -0.300000 -0.010000
v 0.302500 0.500000 -0.010000
v 0.200000 -0.300000 -0.060000
v -0.200000 -0.300000 -0.060000
v 0.200000 0.500000 -0.060000
v -0.200000 0.500000 -0.060000
v -0.302500 0.500000 -0.085000
v -0.300000 -0.300000 0.150000
v 0.200000 -0.300000 -0.085000
v 0.300000 -0.300000 0.150000
v 0.302500 0.500000 -0.085000
v -0.200000 0.500000 -0.085000
v -0.200000 -0.300000 -0.085000
v 0.200000 0.500000 -0.085000
v -0.302500 0.500000 -0.125000
v 0.300000 -0.300000 -0.125000
v 0.200000 -0.300000 -0.125000
v -0.300000 -0.300000 -0.125000
v -0.200000 0.500000 -0.125000
v -0.200000 -0.300000 -0.125000
v 0.200000 0.500000 -0.125000
v 0.300000 -0.400000 -0.400000
v -0.300000 -0.400000 -0.400000
v -0.200000 -0.400000 -0.250000
v 0.200000 -0.400000 -0.250000
v 0.125000 -0.300000 0.400000
v 0.125000 -0.300000 0.500000
v -0.125000 -0.300000 0.400000
v -0.125000 -0.300000 0.500000
v 0.125250 -0.300000 0.125000
v -0.125250 -0.300000 0.125000
v 0.125250 -0.300000 -0.125000
v -0.125250 -0.300000 -0.125000
v 0.000000 -0.300000 0.500000
v 0.000000 -0.500000 0.500000
v 0.000000 -0.500000 0.400000
v 0.000000 -0.300000 0.400000
v 0.500000 0.500000 0.200000
v -0.500000 0.500000 0.200000
v 0.500000 0.500000 -0.200000
v -0.500000 0.500000 -0.200000
vt 0.062500 0.887500
vt 0.062500 0.937500
vt 0.312500 0.937500
vt 0.312500 0.937500
vt 0.312500 0.887500
vt 0.312500 0.887500
vt 0.001250 0.001250
vt 0.061250 0.001250
vt 0.031250 0.031250
vt 0.061250 0.061250
vt 0.001250 0.061250
vt 0.001250 0.001250
vt 0.061250 0.001250
vt 0.031250 0.031250
vt 0.061250 0.061250
vt 0.001250 0.061250
vt 0.001250 0.001250
vt 0.061250 0.001250
vt 0.031250 0.031250
vt 0.061250 0.061250
vt 0.001250 0.061250
vt 0.001250 0.001250
vt 0.061250 0.001250
vt 0.031250 0.031250
vt 0.061250 0.061250
vt 0.001250 0.061250
vt 0.001250 0.001250
vt 0.061250 0.001250
vt 0.031250 0.031250
vt 0.061250 0.061250
vt 0.001250 0.061250
vt 0.875000 0.875000
vt 0.875000 0.875000
vt 0.875000 0.875000
vt 0.062500 0.887500
vt 0.062500 0.937500
vt 0.312500 0.937500
vt 0.062500 0.887500
vt 0.062500 0.937500
vt 0.312500 0.887500
vt 0.312500 0.687500
vt 0.062500 0.687500
vt 0.312500 0.937500
vt 0.312500 0.887500
vt 0.312500 0.687500
vt 0.062500 0.687500
vt 0.062500 0.687500
vt 0.062500 0.937500
vt 0.312500 0.687500
vt 0.062500 0.687500
vt 0.312500 0.687500
vt 0.062500 0.687500
vt 0.062500 0.737500
vt 0.312500 0.737500
vt 0.312500 0.937500
vt 0.062500 0.937500
vt 0.312500 0.687500
vt 0.062500 0.687500
vt 0.875000 0.875000
vt 0.062500 0.887500
vt 0.312500 0.687500
vt 0.312500 0.737500
vt 0.062500 0.737500
vt 0.062500 0.937500
vt 0.312500 0.937500
vt 0.815377 0.879259
vt 0.822188 0.875000
vt 0.830219 0.875000
vt 0.896294 0.913329
vt 0.897714 0.917588
vt 0.863427 0.915576
vt 0.853706 0.794083
vt 0.853706 0.794083
vt 0.853706 0.789824
vt 0.853706 0.828153
vt 0.853706 0.832412
vt 0.853706 0.828153
vt 0.853706 0.913329
vt 0.853876 0.916282
vt 0.849447 0.913329
vt 0.853706 0.879259
vt 0.849447 0.879259
vt 0.854311 0.875000
vt 0.917588 0.909070
vt 0.900553 0.909070
vt 0.917588 0.909070
vt 0.542588 0.937500
vt 0.542588 0.948147
vt 0.542588 0.958794
vt 0.842687 0.875000
vt 0.919001 0.875000
vt 0.917588 0.875000
vt 0.525553 0.958794
vt 0.525553 0.969441
vt 0.521294 0.975829
vt 0.829645 0.915868
vt 0.845799 0.916144
vt 0.845246 0.909207
vt 0.892609 0.875000
vt 0.896294 0.879259
vt 0.896294 0.879259
vt 0.896294 0.828153
vt 0.896294 0.832412
vt 0.896294 0.828153
vt 0.853706 0.832412
vt 0.853706 0.828153
vt 0.853706 0.828153
vt 0.853706 0.879259
vt 0.864098 0.875000
vt 0.853706 0.879259
vt 0.525553 0.958794
vt 0.525553 0.953471
vt 0.525553 0.948147
vt 0.821569 0.915730
vt 0.896198 0.849179
vt 0.896294 0.789824
vt 0.811118 0.917588
vt 0.900553 0.875000
vt 0.900553 0.875000
vt 0.900553 0.909070
vt 0.900553 0.909070
vt 0.846280 0.875000
vt 0.542588 0.969441
vt 0.542588 0.969441
vt 0.542588 0.964118
vt 0.542588 0.964118
vt 0.917588 0.875000
vt 0.917588 0.909070
vt 0.917588 0.909070
vt 0.542588 0.937500
vt 0.542588 0.942824
vt 0.542588 0.942824
vt 0.542588 0.937500
vt 0.525553 0.937500
vt 0.525553 0.937500
vt 0.524488 0.937500
vt 0.525553 0.937500
vt 0.556784 0.937500
vt 0.563882 0.941759
vt 0.542588 0.948147
vt 0.525553 0.953471
vt 0.815377 0.913329
vt 0.542588 0.958794
vt 0.542588 0.953471
vt 0.542588 0.953471
vt 0.525553 0.964118
vt 0.525553 0.964118
vt 0.525553 0.969441
vt 0.525553 0.974765
vt 0.525553 0.974765
vt 0.525553 0.948147
vt 0.900553 0.875000
vt 0.900553 0.909070
vt 0.812500 0.062500
vt 0.812500 0.062500
vt 0.812500 0.062500
vt 0.812500 0.062500
vt 0.542588 0.974765
vt 0.542588 0.974765
vt 0.525553 0.942824
vt 0.525553 0.942824
vt 0.845847 0.912029
vt 0.857504 0.909608
vt 0.858745 0.875000
vt 0.848040 0.875000
vt 0.875000 0.937500
vt 0.875000 0.937500
vt 0.875000 0.937500
vt 0.875000 0.937500
vt 0.917588 0.909070
vt 0.917588 0.875000
vt 0.917588 0.875000
vt 0.812500 0.062500
vt 0.812500 0.062500
vt 0.812500 0.062500
vt 0.812500 0.062500
vt 0.556784 0.980088
vt 0.563882 0.975829
vt 0.547912 0.937500
vt 0.522714 0.937500
vt 0.521294 0.941759
vt 0.900553 0.909070
vt 0.900553 0.875000
vt 0.896294 0.794083
vt 0.542588 0.971570
vt 0.542588 0.980088
vt 0.542588 0.980088
vt 0.900553 0.917588
vt 0.912264 0.885647
vt 0.899488 0.875000
vt 0.897714 0.875000
vt 0.896294 0.879259
vt 0.522714 0.980088
vt 0.845525 0.905786
vt 0.896294 0.828153
vt 0.896294 0.832412
vt 0.812500 0.062500
vt 0.812500 0.062500
vt 0.922912 0.875000
vt 0.931784 0.875000
vt 0.812500 0.062500
vt 0.812500 0.062500
vt 0.812500 0.062500
vt 0.812500 0.062500
vt 0.875000 0.937500
vt 0.875000 0.937500
vt 0.811118 0.913329
vt 0.811118 0.879259
vt 0.875000 0.937500
vt 0.875000 0.937500
vt 0.875000 0.937500
vt 0.875000 0.937500
vt 0.875000 0.937500
vt 0.875000 0.937500
vt 0.829703 0.911781
vt 0.525553 0.971570
vt 0.525553 0.980088
vt 0.525553 0.980088
vn 0.0000 0.0000 -1.0000
vn 0.7809 -0.6247 0.0000
vn 0.7809 -0.0000 -0.6247
vn 0.7809 0.6247 0.0000
vn 0.7809 0.0000 0.6247
vn -0.6247 -0.7809 0.0000
vn 0.0000 -0.7809 -0.6247
vn 0.6247 -0.7809 0.0000
vn -0.0000 -0.7809 0.6247
vn -0.7809 0.6247 -0.0000
vn -0.7809 0.0000 -0.6247
vn -0.7809 -0.6247 -0.0000
vn -0.7809 0.0000 0.6247
vn 0.6239 0.7815 0.0000
vn 0.0000 0.7809 -0.6247
vn -0.6243 0.7812 0.0006
vn -0.0000 0.7809 0.6247
vn 0.6247 0.0000 -0.7809
vn 0.0000 -0.6247 -0.7809
vn -0.6247 -0.0000 -0.7809
vn -0.0000 0.6247 -0.7809
vn 0.0000 1.0000 -0.0000
vn 0.0000 -0.0000 1.0000
vn 1.0000 0.0000 0.0000
vn 0.0000 -1.0000 0.0000
vn -1.0000 0.0000 0.0000
vn 0.0000 0.7071 -0.7071
vn 0.7071 -0.7071 -0.0000
vn 0.4606 -0.7588 -0.4606
vn -0.5774 -0.5774 -0.5774
vn -0.2418 -0.6861 -0.6861
vn -0.5774 0.5774 -0.5773
vn 0.6861 -0.6861 -0.2418
vn 0.2418 -0.6861 -0.6861
vn 0.5774 0.5774 -0.5773
vn 0.4472 0.0000 -0.8944
vn 0.7071 0.0000 0.7071
vn -0.7071 0.0000 0.7071
vn -0.7071 0.0000 -0.7071
vn 0.7071 0.0000 -0.7071
vn -0.4472 -0.0000 -0.8944
vn -0.7071 -0.7071 -0.0000
vn 0.9524 -0.3048 -0.0000
vn 1.0000 0.0016 -0.0045
vn 0.9524 0.3048 0.0000
vn -0.9524 -0.3048 -0.0000
vn -0.9524 0.3048 0.0000
vn -0.7071 0.7071 0.0000
vn -0.8321 0.0000 -0.5547
vn 0.4384 -0.0000 0.8988
vn 0.7071 0.7071 0.0000
vn -1.0000 0.0002 0.0005
vn -0.4384 -0.0000 0.8988
vn 0.8321 0.0000 -0.5547
usemtl Material
s off
f 142/1/1 150/2/1 7/3/1
f 150/4/1 151/5/1 140/6/1
f 87/7/2 88/8/2 91/9/2
f 91/9/3 88/8/3 90/10/3
f 90/10/4 89/11/4 91/9/4
f 89/11/5 87/7/5 91/9/5
f 92/12/6 93/13/6 96/14/6
f 96/14/7 93/13/7 95/15/7
f 95/15/8 94/16/8 96/14/8
f 94/16/9 92/12/9 96/14/9
f 97/17/10 98/18/10 101/19/10
f 101/19/11 98/18/11 100/20/11
f 100/20/12 99/21/12 101/19/12
f 99/21/13 97/17/13 101/19/13
f 23/22/14 20/23/14 103/24/14
f 103/24/15 20/23/15 19/25/15
f 19/25/16 102/26/16 103/24/16
f 102/26/17 23/22/17 103/24/17
f 104/27/18 105/28/18 108/29/18
f 108/29/19 105/28/19 107/30/19
f 107/30/20 106/31/20 108/29/20
f 106/31/21 104/27/21 108/29/21
f 137/32/22 139/33/22 136/34/22
f 141/35/23 149/36/23 4/37/23
f 142/1/1 151/38/1 150/2/1
f 8/39/23 143/40/23 12/41/23 10/42/23
f 8/39/23 149/43/23 143/40/23
f 149/43/23 148/44/23 143/40/23
f 6/45/23 2/46/23 141/35/23 4/37/23
f 5/47/24 6/45/24 4/37/24 3/48/24
f 3/48/25 4/37/25 149/49/25 150/50/25
f 3/48/1 150/4/1 140/6/1
f 149/43/25 8/51/25 7/52/25 150/2/25
f 140/53/26 141/54/26 2/55/26 1/56/26
f 1/56/22 2/55/22 6/45/22 5/47/22
f 9/57/1 11/58/1 142/1/1 7/3/1
f 137/32/22 138/59/22 139/33/22
f 141/35/23 148/60/23 149/36/23
f 5/47/1 3/48/1 140/6/1 1/61/1
f 11/58/24 12/41/24 143/40/24 142/1/24
f 148/62/22 141/54/22 140/53/22 151/63/22
f 151/38/22 142/1/22 143/40/22 148/44/22
f 9/64/22 10/65/22 12/41/22 11/58/22
f 7/52/26 8/51/26 10/65/26 9/64/26
s 1
f 61/66/27 60/67/27 109/68/27
f 75/69/28 74/70/28 63/71/29
f 56/72/30 57/73/31 58/74/31
f 59/75/32 60/76/32 61/77/32
f 62/78/33 63/79/29 64/80/34
f 65/81/35 66/82/35 67/83/35
f 22/84/22 21/85/22 145/86/22
f 18/87/36 45/88/36 40/89/36
f 80/90/22 82/91/22 129/92/22
f 31/93/23 33/94/23 75/95/23
f 58/96/25 63/97/25 15/98/25
f 79/99/37 78/100/37 152/101/37
f 83/102/38 82/103/38 153/104/38
f 80/105/39 81/106/39 155/107/39
f 77/108/40 76/109/40 154/110/40
f 30/111/41 39/112/41 37/113/41
f 58/114/42 69/115/42 68/116/42 56/117/42
f 76/109/22 79/99/22 152/101/22 154/110/22
f 20/118/24 23/119/24 144/120/24 146/121/24
f 109/68/27 111/122/27 61/66/27
f 111/122/27 67/83/27 66/82/27
f 61/66/27 111/122/27 66/82/27
f 43/123/43 42/124/43 54/125/24 53/126/24
f 18/127/44 122/128/44 132/129/44 129/92/44
f 29/130/45 47/131/24 46/132/24 25/133/45
f 27/134/22 24/135/22 86/136/22 17/137/22
f 70/138/23 71/139/23 44/140/23 47/131/23
f 31/93/46 38/141/26 39/112/26 30/111/46
f 63/97/29 58/96/31 64/80/34
f 64/80/34 58/96/31 57/142/31
f 41/143/43 40/89/43 49/144/24 48/145/24
f 33/94/46 50/146/26 52/147/26 32/148/46
f 33/94/47 32/148/47 28/149/47 51/150/47
f 35/151/47 37/113/47 39/112/26 38/141/26
f 16/152/23 20/118/23 146/121/23 130/153/23
f 125/154/22 128/155/22 119/156/22 116/157/22
f 44/140/43 45/88/43 46/132/24 47/131/24
f 43/123/45 55/158/45 26/159/45 42/124/45
f 35/151/46 34/160/26 36/161/26 37/113/46
f 62/78/33 75/69/28 63/71/29
f 24/135/47 27/134/47 36/161/26 34/160/26
f 59/75/48 81/106/48 80/105/48 60/76/48
f 136/162/49 139/163/49 112/164/49 111/122/49
f 80/90/22 129/92/22 110/165/22 109/68/22
f 44/140/45 48/145/24 49/144/24 45/88/45
f 16/166/22 135/167/22 128/168/22 125/169/22
f 132/129/23 147/170/23 19/171/23 129/92/23
f 19/171/22 102/172/22 23/119/22 20/118/22
f 120/173/50 113/174/50 114/175/50 118/176/50
f 67/83/51 76/109/51 77/108/51 65/81/51
f 43/123/23 53/126/23 41/143/23
f 41/143/23 48/145/23 44/140/23
f 69/177/23 55/158/23 43/123/23 68/178/23
f 47/131/23 29/130/23 85/179/23
f 85/179/23 70/138/23 47/131/23
f 43/123/23 41/143/23 68/178/23
f 41/143/23 44/140/23 71/139/23
f 71/139/23 68/178/23 41/143/23
f 73/180/23 34/160/23 35/151/23 72/181/23
f 21/85/22 124/182/22 144/120/22
f 31/93/47 30/111/47 52/147/26 50/146/26
f 130/153/22 146/121/22 144/120/22 124/182/22
f 21/85/22 144/120/22 145/86/22
f 122/128/22 22/84/22 145/86/22
f 41/143/45 53/126/24 54/125/24 40/89/45
f 17/183/26 16/152/26 130/153/26 124/182/26
f 68/184/26 83/102/26 81/106/26 56/72/26
f 19/171/22 20/118/22 112/164/22 110/165/22
f 122/185/36 18/87/36 40/89/36
f 18/87/36 25/133/36 46/132/36
f 45/88/36 18/87/36 46/132/36
f 45/88/36 49/144/36 40/89/36
f 40/89/36 54/125/36 122/185/36
f 54/125/36 42/124/36 122/185/36
f 42/124/36 26/186/36 122/185/36
f 26/186/36 14/187/36 122/185/36
f 79/99/22 76/109/22 16/152/22
f 76/109/22 67/83/22 111/122/22
f 69/115/25 58/114/25 15/188/25 84/189/25
f 111/122/22 112/164/22 16/152/22 76/109/22
f 109/68/22 60/67/22 80/90/22
f 17/183/22 86/190/22 73/191/22 79/99/22
f 25/133/22 18/87/22 85/179/22 29/130/22
f 16/152/22 17/183/22 79/99/22
f 147/170/52 145/86/52 102/172/52 19/171/52
f 129/92/22 19/171/22 110/165/22
f 20/118/22 16/152/22 112/164/22
f 18/127/22 129/92/22 82/91/22
f 155/107/22 153/104/22 82/103/22 80/105/22
f 78/100/24 72/192/24 75/69/24
f 62/78/24 65/81/24 77/108/24
f 75/95/23 72/181/23 31/93/23
f 33/94/23 51/150/23 74/193/23 75/95/23
f 86/136/23 24/135/23 34/160/23
f 72/181/23 35/151/23 31/93/23
f 73/180/23 86/136/23 34/160/23
f 15/188/25 63/71/25 74/70/25
f 31/93/23 50/146/23 33/94/23
f 35/151/23 38/141/23 31/93/23
f 152/101/24 78/100/24 77/108/24 154/110/24
f 139/163/1 138/194/1 110/165/1 112/164/1
f 83/102/48 71/195/48 70/196/48 82/103/48
f 121/197/22 113/174/22 120/173/22 126/198/22
f 85/199/22 18/127/22 82/91/22 70/200/22
f 119/156/53 117/201/53 115/202/53 116/157/53
f 123/203/26 117/201/26 119/156/26 128/155/26
f 126/198/24 120/173/24 118/176/24 127/204/24
f 102/172/23 145/86/23 144/120/23 23/119/23
f 131/205/26 123/206/26 128/168/26 135/167/26
f 61/66/39 57/142/39 56/207/39 59/208/39
f 132/129/22 122/128/22 145/86/22 147/170/22
f 133/209/24 126/210/24 127/211/24 134/212/24
f 129/213/22 121/214/22 126/210/22 133/209/22
f 109/68/54 110/165/54 138/194/54 137/215/54
f 59/75/26 56/72/26 81/106/26
f 77/108/24 78/100/24 75/69/24 62/78/24
f 68/184/26 71/195/26 83/102/26
f 136/162/23 111/122/23 109/68/23 137/215/23
f 155/107/26 81/106/26 83/102/26 153/104/26
f 66/82/1 64/80/1 57/142/1 61/66/1
f 79/99/51 73/191/51 72/192/51 78/100/51
f 27/134/41 17/137/41 36/161/41
f 17/137/41 124/216/41 30/111/41
f 37/113/41 17/137/41 30/111/41
f 124/216/41 13/217/41 28/218/41
f 32/148/41 52/147/41 124/216/41
f 52/147/41 30/111/41 124/216/41
f 124/216/41 28/218/41 32/148/41
f 37/113/41 36/161/41 17/137/41
f 64/80/40 66/82/40 65/81/40 62/78/40
