# Blender v2.80 (sub 75) OBJ File: 'untitled.blend'
# www.blender.org
mtllib bf rail piston head.mtl
o Plane.001_Plane.006
v -0.302500 0.125000 0.150000
v -0.302500 -0.125000 0.150000
v 0.302500 -0.125000 0.150000
v 0.302500 0.125000 0.150000
v -0.302500 0.125000 -0.010000
v -0.302500 -0.125000 -0.010000
v 0.302500 -0.125000 -0.010000
v 0.302500 0.125000 -0.010000
v 0.200000 0.125000 0.200000
v -0.200000 0.125000 0.200000
v -0.200000 -0.125000 0.200000
v 0.200000 -0.125000 0.200000
v -0.200000 0.125000 0.400000
v 0.200000 -0.125000 0.400000
v 0.200000 0.125000 0.400000
v -0.200000 -0.125000 0.400000
v 0.125000 -0.125000 -0.060000
v 0.125000 0.125000 -0.060000
v -0.125000 -0.125000 -0.060000
v -0.125000 0.125000 -0.060000
v -0.125000 -0.205000 0.400000
v 0.125000 -0.205000 0.400000
v 0.125000 0.205000 0.400000
v -0.125000 0.205000 0.400000
v -0.125000 -0.125000 0.500000
v 0.125000 -0.125000 0.500000
v -0.125000 0.125000 0.500000
v 0.125000 0.125000 0.500000
v 0.000000 -0.000000 0.600000
v -0.125000 0.125000 0.400000
v -0.125000 -0.125000 0.400000
v 0.125000 -0.125000 0.400000
v 0.125000 0.125000 0.400000
v -0.125000 -0.300000 0.500000
v 0.125000 -0.300000 0.500000
v 0.125000 0.300000 0.500000
v -0.125000 0.300000 0.500000
v -0.125000 -0.300000 0.400000
v 0.125000 -0.300000 0.400000
v 0.125000 0.300000 0.400000
v -0.125000 0.300000 0.400000
v -0.125000 -0.205000 0.200000
v 0.125000 -0.205000 0.200000
v 0.125000 0.205000 0.200000
v -0.125000 0.205000 0.200000
v 0.200000 -0.125000 -0.060000
v -0.200000 -0.125000 -0.060000
v 0.200000 0.125000 -0.060000
v -0.200000 0.125000 -0.060000
v -0.200000 -0.125000 0.125000
v 0.200000 -0.125000 0.125000
v -0.200000 0.125000 0.125000
v 0.200000 0.125000 0.125000
v -0.125000 -0.300000 -0.060000
v 0.125000 -0.300000 -0.060000
v -0.200000 -0.300000 -0.060000
v -0.125000 -0.300000 0.200000
v 0.125000 -0.300000 0.200000
v 0.200000 -0.300000 -0.060000
v 0.200000 -0.300000 0.125000
v -0.200000 -0.300000 0.125000
v 0.200000 0.300000 -0.060000
v 0.125000 0.300000 -0.060000
v -0.125000 0.300000 -0.060000
v 0.125000 0.300000 0.200000
v -0.125000 0.300000 0.200000
v -0.200000 0.300000 -0.060000
v 0.200000 0.300000 0.125000
v -0.200000 0.300000 0.125000
vt 0.001250 0.001250
vt 0.061250 0.001250
vt 0.031250 0.031250
vt 0.061250 0.061250
vt 0.001250 0.061250
vt 0.637500 0.987500
vt 0.656250 0.987500
vt 0.660854 0.987500
vt 0.637500 0.987500
vt 0.637500 0.887500
vt 0.637500 0.887500
vt 0.654442 0.887500
vt 0.642387 0.887500
vt 0.637500 0.887500
vt 0.737500 0.987500
vt 0.737500 0.887500
vt 0.737500 0.887500
vt 0.737500 0.987500
vt 0.637500 0.987500
vt 0.637500 0.987500
vt 0.654442 0.987500
vt 0.637500 0.887500
vt 0.737500 0.987500
vt 0.737500 0.887500
vt 0.583161 0.887500
vt 0.583161 0.987500
vt 0.595558 0.987500
vt 0.595558 0.887500
vt 0.541839 0.887500
vt 0.541839 0.987500
vt 0.656250 0.887500
vt 0.660854 0.887500
vt 0.714146 0.887500
vt 0.718750 0.887500
vt 0.562500 0.937500
vt 0.562500 0.937500
vt 0.562500 0.937500
vt 0.562500 0.937500
vt 0.562500 0.937500
vt 0.562500 0.937500
vt 0.562500 0.937500
vt 0.562500 0.937500
vt 0.512500 0.762500
vt 0.512500 0.762500
vt 0.512500 0.762500
vt 0.512500 0.762500
vt 0.512500 0.862500
vt 0.512500 0.862500
vt 0.512500 0.862500
vt 0.512500 0.862500
vt 0.612500 0.862500
vt 0.612500 0.862500
vt 0.612500 0.762500
vt 0.612500 0.762500
vt 0.612500 0.862500
vt 0.612500 0.762500
vt 0.612500 0.862500
vt 0.612500 0.762500
vt 0.562500 0.937500
vt 0.562500 0.937500
vt 0.562500 0.937500
vt 0.562500 0.937500
vt 0.732613 0.887500
vt 0.720558 0.887500
vt 0.737500 0.887500
vt 0.714146 0.987500
vt 0.718750 0.987500
vt 0.642387 0.987500
vt 0.562500 0.937500
vt 0.562500 0.937500
vt 0.720558 0.987500
vt 0.732613 0.987500
vt 0.737500 0.987500
vt 0.562500 0.937500
vt 0.562500 0.937500
vt 0.562500 0.937500
vt 0.562500 0.937500
vt 0.529442 0.887500
vt 0.529442 0.987500
vt 0.562500 0.937500
vt 0.562500 0.937500
vt 0.562500 0.937500
vt 0.562500 0.937500
vt 0.562500 0.937500
vt 0.562500 0.937500
vt 0.562500 0.937500
vt 0.562500 0.937500
vt 0.562500 0.937500
vt 0.562500 0.937500
vt 0.562500 0.937500
vt 0.562500 0.937500
vt 0.562500 0.937500
vt 0.562500 0.937500
vn 0.0000 -0.6247 0.7809
vn 0.6247 0.0000 0.7809
vn 0.0000 0.6247 0.7809
vn -0.6247 0.0000 0.7809
vn -0.7295 0.6839 0.0000
vn -0.0000 -1.0000 0.0000
vn 0.4384 0.0000 0.8988
vn -0.4384 0.0000 0.8988
vn -0.4384 0.0000 -0.8988
vn -0.1495 0.0000 -0.9888
vn -1.0000 0.0000 0.0000
vn 1.0000 0.0000 0.0000
vn 0.0000 0.0000 -1.0000
vn 0.1495 0.0000 -0.9888
vn 0.7295 -0.6839 0.0000
vn 0.7071 -0.0000 0.7071
vn 0.0000 1.0000 0.0000
vn 0.0000 0.0000 1.0000
vn -0.7295 -0.6839 -0.0000
vn 0.7295 0.6839 0.0000
vn 0.4384 0.0000 -0.8988
vn -0.7071 0.0000 0.7071
usemtl Material
s off
f 25/1/1 26/2/1 29/3/1
f 29/3/2 26/2/2 28/4/2
f 28/4/3 27/5/3 29/3/3
f 27/5/4 25/1/4 29/3/4
s 1
f 13/6/5 24/7/5 45/8/5 10/9/5
f 2/10/6 6/11/6 47/12/6 50/13/6 11/14/6
f 9/15/7 12/16/7 3/17/7 4/18/7
f 11/14/8 10/9/8 1/19/8 2/10/8
f 5/20/9 49/21/10 47/12/10 6/11/9
f 16/22/11 13/6/11 10/9/11 11/14/11
f 15/23/12 14/24/12 12/16/12 9/15/12
f 17/25/13 18/26/13 48/27/14 46/28/14
f 19/29/13 20/30/13 18/26/13 17/25/13
f 21/31/6 42/32/6 43/33/6 22/34/6
f 22/34/15 43/33/15 12/16/15 14/24/15
f 44/35/16 53/36/16 68/37/16 65/38/16
f 18/39/13 20/40/13 64/41/13 63/42/13
f 31/43/11 38/44/11 34/45/11 25/46/11 27/47/11 37/48/11 41/49/11 30/50/11
f 37/48/17 36/51/17 40/52/17 41/49/17
f 35/53/6 34/45/6 38/44/6 39/54/6
f 33/55/13 30/50/13 41/49/13 40/52/13
f 31/43/13 32/56/13 39/54/13 38/44/13
f 27/47/18 28/57/18 36/51/18 37/48/18
f 26/58/18 25/46/18 34/45/18 35/53/18
f 33/55/12 40/52/12 36/51/12 28/57/12 26/58/12 35/53/12 39/54/12 32/56/12
f 17/59/13 46/60/14 59/61/13 55/62/13
f 12/16/6 51/63/6 46/64/6 7/65/6 3/17/6
f 11/14/19 42/32/19 21/31/19 16/22/19
f 9/15/20 44/66/20 23/67/20 15/23/20
f 10/9/17 52/68/17 49/21/17 5/20/17 1/19/17
f 44/66/17 45/8/17 24/7/17 23/67/17
f 46/60/12 51/69/12 60/70/12 59/61/12
f 11/14/19 50/13/19 42/32/19
f 48/71/17 53/72/17 9/15/17 4/18/17 8/73/17
f 49/74/11 52/75/11 69/76/11 67/77/11
f 46/64/14 48/71/14 8/73/21 7/65/21
f 47/78/10 49/79/10 20/30/13 19/29/13
f 43/33/15 51/63/15 12/16/15
f 42/80/22 50/81/22 61/82/22 57/83/22
f 53/72/20 44/66/20 9/15/20
f 45/8/5 52/68/5 10/9/5
f 58/84/6 57/83/6 54/85/6 55/62/6
f 59/61/6 60/70/6 58/84/6 55/62/6
f 57/83/6 61/82/6 56/86/6 54/85/6
f 50/81/11 47/87/11 56/86/11 61/82/11
f 19/88/13 17/59/13 55/62/13 54/85/13
f 43/89/18 42/80/18 57/83/18 58/84/18
f 51/69/16 43/89/16 58/84/16 60/70/16
f 47/87/10 19/88/13 54/85/13 56/86/13
f 64/41/17 66/90/17 65/38/17 63/42/17
f 63/42/17 65/38/17 68/37/17 62/91/17
f 67/77/17 69/76/17 66/90/17 64/41/17
f 20/40/13 49/74/10 67/77/13 64/41/13
f 45/92/18 44/35/18 65/38/18 66/90/18
f 52/75/22 45/92/22 66/90/22 69/76/22
f 53/36/12 48/93/12 62/91/12 68/37/12
f 48/93/14 18/39/13 63/42/13 62/91/13
