# Blender v2.81 (sub 16) OBJ File: 'bf_rail_piston.blend'
# www.blender.org
mtllib bf_rail_piston_base.mtl
o Cube.000_Cube.006
v 0.125000 0.500000 0.400000
v 0.125000 0.500000 0.500000
v 0.500000 -0.500000 0.400000
v 0.500000 -0.500000 0.500000
v 0.500000 0.500000 0.400000
v 0.500000 0.500000 0.500000
v -0.500000 -0.500000 0.400000
v -0.500000 -0.500000 0.500000
v -0.500000 0.500000 0.400000
v -0.500000 0.500000 0.500000
v -0.125000 0.500000 0.400000
v -0.125000 0.500000 0.500000
v 0.250000 -0.437500 0.175000
v -0.250000 -0.437500 0.175000
v 0.300000 -0.500000 0.400000
v 0.300000 0.500000 -0.125000
v 0.300000 0.500000 0.150000
v -0.300000 0.500000 0.150000
v -0.125250 0.500000 -0.125000
v 0.125250 0.500000 -0.125000
v 0.300000 -0.300000 0.400000
v -0.300000 -0.300000 0.400000
v 0.125250 0.500000 0.125000
v 0.240000 0.500000 0.400000
v -0.240000 0.500000 0.180000
v -0.200000 -0.375000 0.200000
v 0.240000 0.500000 0.180000
v 0.200000 -0.375000 0.200000
v -0.240000 0.500000 0.400000
v 0.240000 -0.000000 0.180000
v 0.240000 -0.000000 0.400000
v 0.240000 -0.250000 0.180000
v 0.240000 -0.250000 0.400000
v 0.200000 0.375000 0.400000
v 0.240000 0.250000 0.400000
v 0.200000 0.375000 0.200000
v 0.240000 0.250000 0.180000
v 0.200000 0.125000 0.400000
v 0.200000 0.125000 0.200000
v -0.240000 -0.000000 0.180000
v -0.240000 -0.000000 0.400000
v -0.240000 -0.250000 0.180000
v -0.240000 -0.250000 0.400000
v -0.240000 0.250000 0.400000
v -0.240000 0.250000 0.180000
v -0.200000 0.375000 0.200000
v -0.200000 0.375000 0.400000
v -0.200000 0.125000 0.400000
v -0.200000 0.125000 0.200000
v 0.200000 -0.125000 0.400000
v 0.200000 -0.375000 0.400000
v 0.200000 -0.125000 0.200000
v -0.200000 -0.125000 0.400000
v -0.200000 -0.125000 0.200000
v -0.200000 -0.375000 0.400000
v -0.500000 -0.400000 -0.400000
v -0.400000 -0.400000 -0.500000
v -0.400000 -0.500000 -0.400000
v -0.500000 0.400000 -0.400000
v -0.400000 0.500000 -0.400000
v -0.400000 0.400000 -0.500000
v 0.500000 -0.400000 -0.400000
v 0.400000 -0.500000 -0.400000
v 0.400000 -0.400000 -0.500000
v 0.500000 0.400000 -0.400000
v 0.400000 0.400000 -0.500000
v 0.400000 0.500000 -0.400000
v -0.500000 -0.400000 0.400000
v -0.400000 -0.500000 0.400000
v -0.400000 0.500000 0.400000
v -0.500000 0.400000 0.400000
v 0.500000 0.400000 0.400000
v 0.400000 0.500000 0.400000
v 0.400000 -0.500000 0.400000
v 0.500000 -0.400000 0.400000
v 0.400000 0.500000 -0.300000
v 0.500000 0.400000 -0.200000
v 0.500000 0.400000 0.200000
v 0.400000 0.500000 0.300000
v -0.400000 0.500000 -0.300000
v -0.500000 0.400000 -0.200000
v -0.400000 0.500000 0.300000
v -0.500000 0.400000 0.200000
v -0.300000 0.500000 0.400000
v 0.300000 0.500000 0.400000
v 0.500000 -0.125000 0.125000
v 0.500000 -0.125000 -0.125000
v 0.500000 0.125000 0.125000
v 0.500000 0.125000 -0.125000
v 0.600000 0.000000 0.000000
v -0.125000 -0.500000 0.125000
v -0.125000 -0.500000 -0.125000
v 0.125000 -0.500000 0.125000
v 0.125000 -0.500000 -0.125000
v 0.000000 -0.600000 -0.000000
v -0.500000 0.125000 0.125000
v -0.500000 0.125000 -0.125000
v -0.500000 -0.125000 0.125000
v -0.500000 -0.125000 -0.125000
v -0.600000 -0.000000 -0.000000
v -0.125000 0.500000 0.125000
v 0.000000 0.600000 0.000000
v 0.125000 0.125000 -0.500000
v 0.125000 -0.125000 -0.500000
v -0.125000 0.125000 -0.500000
v -0.125000 -0.125000 -0.500000
v 0.000000 0.000000 -0.600000
v -0.300000 0.500000 -0.400000
v -0.200000 0.500000 -0.250000
v 0.300000 0.500000 -0.400000
v 0.200000 0.500000 -0.250000
v -0.302500 0.500000 -0.010000
v -0.302500 -0.300000 -0.010000
v 0.302500 -0.300000 -0.010000
v 0.302500 0.500000 -0.010000
v 0.200000 -0.300000 -0.060000
v -0.200000 -0.300000 -0.060000
v 0.200000 0.500000 -0.060000
v -0.200000 0.500000 -0.060000
v -0.302500 0.500000 -0.085000
v -0.300000 -0.300000 0.150000
v 0.200000 -0.300000 -0.085000
v 0.300000 -0.300000 0.150000
v 0.302500 0.500000 -0.085000
v -0.200000 0.500000 -0.085000
v -0.200000 -0.300000 -0.085000
v 0.200000 0.500000 -0.085000
v -0.302500 0.500000 -0.125000
v 0.300000 -0.300000 -0.125000
v 0.200000 -0.300000 -0.125000
v -0.300000 -0.300000 -0.125000
v -0.200000 0.500000 -0.125000
v -0.200000 -0.300000 -0.125000
v 0.200000 0.500000 -0.125000
v 0.300000 -0.400000 -0.400000
v -0.300000 -0.400000 -0.400000
v -0.200000 -0.400000 -0.250000
v 0.200000 -0.400000 -0.250000
v 0.105000 -0.300000 0.400000
v 0.105000 -0.300000 0.500000
v -0.105000 -0.300000 0.400000
v -0.105000 -0.300000 0.500000
v 0.125250 -0.300000 0.125000
v -0.125250 -0.300000 0.125000
v 0.125250 -0.300000 -0.125000
v -0.125250 -0.300000 -0.125000
v 0.000000 -0.300000 0.500000
v 0.000000 -0.500000 0.500000
v 0.000000 -0.500000 0.400000
v 0.000000 -0.300000 0.400000
v 0.500000 0.500000 0.200000
v -0.500000 0.500000 0.200000
v 0.500000 0.500000 -0.200000
v -0.500000 0.500000 -0.200000
v 0.125000 -0.205000 0.400000
v 0.125000 -0.205000 0.500000
v -0.125000 -0.205000 0.500000
v -0.125000 -0.205000 0.400000
vt 0.312500 0.937500
vt 0.062500 0.787500
vt 0.062500 0.887500
vt 0.312500 0.687500
vt 0.001250 0.001250
vt 0.061250 0.001250
vt 0.031250 0.031250
vt 0.061250 0.061250
vt 0.001250 0.061250
vt 0.001250 0.001250
vt 0.061250 0.001250
vt 0.031250 0.031250
vt 0.061250 0.061250
vt 0.001250 0.061250
vt 0.001250 0.001250
vt 0.061250 0.001250
vt 0.031250 0.031250
vt 0.061250 0.061250
vt 0.001250 0.061250
vt 0.001250 0.001250
vt 0.061250 0.001250
vt 0.031250 0.031250
vt 0.061250 0.061250
vt 0.001250 0.061250
vt 0.001250 0.001250
vt 0.061250 0.001250
vt 0.031250 0.031250
vt 0.061250 0.061250
vt 0.001250 0.061250
vt 0.312500 0.687500
vt 0.062500 0.687500
vt 0.312500 0.787500
vt 0.062500 0.687500
vt 0.062500 0.937500
vt 0.312500 0.787500
vt 0.062500 0.937500
vt 0.875000 0.875000
vt 0.875000 0.875000
vt 0.875000 0.875000
vt 0.062500 0.937500
vt 0.312500 0.887500
vt 0.312500 0.687500
vt 0.312500 0.887500
vt 0.062500 0.687500
vt 0.312500 0.937500
vt 0.312500 0.887500
vt 0.312500 0.937500
vt 0.312500 0.687500
vt 0.062500 0.687500
vt 0.312500 0.937500
vt 0.312500 0.937500
vt 0.312500 0.687500
vt 0.062500 0.887500
vt 0.062500 0.787500
vt 0.062500 0.887500
vt 0.875000 0.875000
vt 0.062500 0.687500
vt 0.062500 0.937500
vt 0.062500 0.887500
vt 0.062500 0.937500
vt 0.062500 0.687500
vt 0.312500 0.887500
vt 0.312500 0.687500
vt 0.312500 0.737500
vt 0.062500 0.737500
vt 0.312500 0.737500
vt 0.312500 0.937500
vt 0.062500 0.937500
vt 0.062500 0.737500
vt 0.525553 0.937500
vt 0.525553 0.937500
vt 0.525553 0.942824
vt 0.815377 0.879259
vt 0.822188 0.875000
vt 0.830219 0.875000
vt 0.853706 0.794083
vt 0.853706 0.794083
vt 0.853706 0.789824
vt 0.853706 0.828153
vt 0.853706 0.832412
vt 0.853706 0.828153
vt 0.853706 0.913329
vt 0.853876 0.916282
vt 0.849447 0.913329
vt 0.853706 0.879259
vt 0.849447 0.879259
vt 0.854311 0.875000
vt 0.917588 0.909070
vt 0.917588 0.909070
vt 0.917588 0.909070
vt 0.864098 0.875000
vt 0.853706 0.879259
vt 0.829645 0.915868
vt 0.845799 0.916144
vt 0.845246 0.909207
vt 0.896198 0.849179
vt 0.896294 0.789824
vt 0.811118 0.917588
vt 0.892609 0.875000
vt 0.896294 0.879259
vt 0.896294 0.879259
vt 0.896294 0.828153
vt 0.896294 0.832412
vt 0.896294 0.828153
vt 0.853706 0.832412
vt 0.853706 0.828153
vt 0.853706 0.828153
vt 0.853706 0.879259
vt 0.821569 0.915730
vt 0.815377 0.913329
vt 0.900553 0.909070
vt 0.524488 0.937500
vt 0.525553 0.958794
vt 0.525553 0.953471
vt 0.525553 0.953471
vt 0.900553 0.909070
vt 0.900553 0.909070
vt 0.900553 0.909070
vt 0.900553 0.875000
vt 0.900553 0.875000
vt 0.846280 0.875000
vt 0.542588 0.969441
vt 0.542588 0.964118
vt 0.542588 0.964118
vt 0.917588 0.875000
vt 0.917588 0.909070
vt 0.917588 0.875000
vt 0.542588 0.937500
vt 0.542588 0.942824
vt 0.542588 0.937500
vt 0.525553 0.937500
vt 0.542588 0.969441
vt 0.542588 0.971570
vt 0.525553 0.958794
vt 0.542588 0.958794
vt 0.542588 0.953471
vt 0.542588 0.953471
vt 0.525553 0.969441
vt 0.525553 0.964118
vt 0.525553 0.969441
vt 0.525553 0.974765
vt 0.525553 0.974765
vt 0.525553 0.948147
vt 0.900553 0.875000
vt 0.812500 0.062500
vt 0.812500 0.062500
vt 0.812500 0.062500
vt 0.542588 0.948147
vt 0.542588 0.942824
vt 0.542588 0.974765
vt 0.525553 0.948147
vt 0.525553 0.942824
vt 0.857504 0.909608
vt 0.845847 0.912029
vt 0.542588 0.948147
vt 0.875000 0.937500
vt 0.875000 0.937500
vt 0.875000 0.937500
vt 0.917588 0.875000
vt 0.917588 0.875000
vt 0.812500 0.062500
vt 0.812500 0.062500
vt 0.812500 0.062500
vt 0.542588 0.937500
vt 0.542588 0.958794
vt 0.542588 0.980088
vt 0.542588 0.980088
vt 0.525553 0.964118
vt 0.812500 0.062500
vt 0.062500 0.837500
vt 0.900553 0.909070
vt 0.900553 0.875000
vt 0.858745 0.875000
vt 0.900553 0.917588
vt 0.896294 0.913329
vt 0.863427 0.915576
vt 0.547912 0.937500
vt 0.875000 0.937500
vt 0.917588 0.909070
vt 0.848040 0.875000
vt 0.842687 0.875000
vt 0.542588 0.974765
vt 0.312500 0.837500
vt 0.897714 0.917588
vt 0.521294 0.975829
vt 0.845525 0.905786
vt 0.896294 0.828153
vt 0.812500 0.062500
vt 0.812500 0.062500
vt 0.563882 0.975829
vt 0.812500 0.062500
vt 0.812500 0.062500
vt 0.812500 0.062500
vt 0.812500 0.062500
vt 0.875000 0.937500
vt 0.875000 0.937500
vt 0.811118 0.879259
vt 0.875000 0.937500
vt 0.875000 0.937500
vt 0.875000 0.937500
vt 0.875000 0.937500
vt 0.875000 0.937500
vt 0.829703 0.911781
vt 0.896294 0.879259
vt 0.899488 0.875000
vt 0.897714 0.875000
vt 0.922912 0.875000
vt 0.919001 0.875000
vt 0.931784 0.875000
vt 0.525553 0.971570
vt 0.525553 0.980088
vt 0.525553 0.980088
vt 0.521294 0.941759
vt 0.522714 0.937500
vt 0.522714 0.980088
vt 0.896294 0.832412
vt 0.556784 0.937500
vt 0.563882 0.941759
vt 0.556784 0.980088
vt 0.812500 0.062500
vt 0.811118 0.913329
vt 0.875000 0.937500
vt 0.896294 0.794083
vn 0.0000 0.0000 -1.0000
vn 0.7809 -0.6247 0.0000
vn 0.7809 -0.0000 -0.6247
vn 0.7809 0.6247 0.0000
vn 0.7809 0.0000 0.6247
vn -0.6247 -0.7809 0.0000
vn 0.0000 -0.7809 -0.6247
vn 0.6247 -0.7809 0.0000
vn -0.0000 -0.7809 0.6247
vn -0.7809 0.6247 -0.0000
vn -0.7809 0.0000 -0.6247
vn -0.7809 -0.6247 -0.0000
vn -0.7809 0.0000 0.6247
vn 0.6239 0.7815 0.0000
vn 0.0000 0.7809 -0.6247
vn -0.6243 0.7812 0.0006
vn -0.0000 0.7809 0.6247
vn 0.6247 0.0000 -0.7809
vn 0.0000 -0.6247 -0.7809
vn -0.6247 -0.0000 -0.7809
vn -0.0000 0.6247 -0.7809
vn 0.0000 0.0000 1.0000
vn 0.0000 1.0000 0.0000
vn 1.0000 -0.0000 0.0000
vn 0.0000 -1.0000 0.0000
vn -1.0000 0.0000 0.0000
vn -0.9524 0.3048 -0.0000
vn 0.0000 0.7071 -0.7071
vn -0.5774 -0.5774 -0.5774
vn -0.2418 -0.6861 -0.6861
vn -0.5774 0.5774 -0.5773
vn 0.6861 -0.6861 -0.2418
vn 0.4606 -0.7588 -0.4606
vn 0.2418 -0.6861 -0.6861
vn 0.5774 0.5774 -0.5773
vn 0.7071 0.7071 0.0000
vn -0.7071 -0.7071 -0.0000
vn 0.7071 0.0000 0.7071
vn -0.7071 0.0000 0.7071
vn -0.7071 0.0000 -0.7071
vn 0.7071 0.0000 -0.7071
vn -0.9524 -0.3048 -0.0000
vn 0.9524 -0.3048 -0.0000
vn 1.0000 0.0025 -0.0072
vn 1.0000 0.0007 -0.0019
vn 1.0000 0.0031 -0.0091
vn 0.9524 0.3048 0.0000
vn 0.4472 0.0000 -0.8944
vn -0.7071 0.7071 0.0000
vn -0.8321 0.0000 -0.5547
vn 0.4384 -0.0000 0.8988
vn -0.9785 0.2060 0.0000
vn -0.9946 0.1036 0.0000
vn 0.7071 -0.7071 -0.0000
vn -1.0000 0.0001 0.0002
vn -1.0000 0.0003 0.0008
vn -0.4472 -0.0000 -0.8944
vn -0.4384 -0.0000 0.8988
vn 0.8321 0.0000 -0.5547
vn 0.9946 0.1036 0.0000
vn 0.9785 0.2060 0.0000
vn -1.0000 0.0003 0.0010
usemtl Material
s off
f 7/1/1 158/2/1 141/3/1
f 7/1/1 9/4/1 158/2/1
f 86/5/2 87/6/2 90/7/2
f 90/7/3 87/6/3 89/8/3
f 89/8/4 88/9/4 90/7/4
f 88/9/5 86/5/5 90/7/5
f 91/10/6 92/11/6 95/12/6
f 95/12/7 92/11/7 94/13/7
f 94/13/8 93/14/8 95/12/8
f 93/14/9 91/10/9 95/12/9
f 96/15/10 97/16/10 100/17/10
f 100/17/11 97/16/11 99/18/11
f 99/18/12 98/19/12 100/17/12
f 98/19/13 96/15/13 100/17/13
f 23/20/14 20/21/14 102/22/14
f 102/22/15 20/21/15 19/23/15
f 19/23/16 101/24/16 102/22/16
f 101/24/17 23/20/17 102/22/17
f 103/25/18 104/26/18 107/27/18
f 107/27/19 104/26/19 106/28/19
f 106/28/20 105/29/20 107/27/20
f 105/29/21 103/25/21 107/27/21
f 12/30/22 10/31/22 157/32/22
f 5/33/1 3/34/1 155/35/1
f 149/36/1 7/1/1 141/3/1
f 137/37/23 135/38/23 136/39/23
f 8/40/22 142/41/22 157/32/22
f 6/42/24 3/34/24 5/33/24
f 3/34/1 139/43/1 155/35/1
f 9/4/1 11/44/1 158/2/1
f 149/45/1 150/46/1 139/43/1
f 4/47/25 148/48/25 149/49/25
f 4/47/25 149/49/25 3/34/25
f 8/40/22 148/50/22 142/41/22
f 2/51/23 6/42/23 5/33/23
f 8/52/25 149/36/25 148/50/25
f 150/53/1 149/36/1 141/3/1
f 156/54/22 140/55/22 4/47/22
f 137/37/23 138/56/23 135/38/23
f 3/34/1 149/45/1 139/43/1
f 6/42/22 2/57/22 156/54/22
f 4/47/22 6/42/22 156/54/22
f 2/51/23 5/33/23 1/58/23
f 140/55/22 147/59/22 148/60/22
f 140/55/22 148/60/22 4/47/22
f 6/42/24 4/47/24 3/34/24
f 8/52/25 7/61/25 149/36/25
f 10/31/22 8/40/22 157/32/22
f 148/50/22 147/62/22 142/41/22
f 1/63/1 5/33/1 155/35/1
f 140/64/23 150/65/23 147/66/23
f 141/3/23 147/62/23 150/53/23
f 10/67/23 11/44/23 9/68/23
f 8/52/26 9/68/26 7/61/26
f 140/64/23 139/69/23 150/65/23
f 141/3/23 142/41/23 147/62/23
f 10/67/23 12/30/23 11/44/23
f 8/52/26 10/67/26 9/68/26
s 1
f 24/70/27 27/71/27 36/72/26
f 61/73/28 60/74/28 108/75/28
f 56/76/29 57/77/30 58/78/30
f 59/79/31 60/80/31 61/81/31
f 62/82/32 63/83/33 64/84/34
f 65/85/35 66/86/35 67/87/35
f 121/88/23 22/89/23 144/90/23
f 76/91/36 77/92/36 65/85/36
f 58/93/25 63/94/25 15/95/25
f 69/96/37 68/97/37 56/98/37
f 79/99/38 78/100/38 151/101/38
f 83/102/39 82/103/39 152/104/39
f 80/105/40 81/106/40 154/107/40
f 77/92/41 76/91/41 153/108/41
f 69/96/37 56/98/37 58/109/37
f 57/110/30 63/94/33 58/93/30
f 22/89/23 21/111/23 144/90/23
f 27/71/23 24/70/23 85/112/23
f 31/113/42 38/114/26 39/115/26
f 129/116/23 145/117/23 143/118/23
f 23/119/24 145/117/24 20/120/24
f 108/75/28 110/121/28 61/73/28
f 43/122/43 54/123/24 53/124/24
f 18/125/44 131/126/45 128/127/46
f 29/128/47 46/129/24 25/130/47
f 27/71/23 85/112/23 17/131/23
f 54/123/48 42/132/48 121/133/48
f 31/113/42 39/115/26 30/134/42
f 131/126/23 121/88/23 144/90/23
f 41/135/43 49/136/24 48/137/24
f 33/138/42 52/139/26 32/140/42
f 33/138/27 28/141/27 51/142/27
f 35/143/27 39/115/26 38/114/26
f 20/120/22 129/116/22 16/144/22
f 124/145/23 118/146/23 115/147/23
f 44/148/43 46/129/24 47/149/24
f 43/122/47 26/150/47 42/132/47
f 35/143/42 36/72/26 37/151/42
f 24/70/27 36/72/26 34/152/26
f 59/79/49 80/105/49 60/80/49
f 138/153/50 110/121/50 135/154/50
f 44/148/47 49/136/24 45/155/47
f 16/156/23 127/157/23 124/158/23
f 131/126/22 19/159/22 128/127/22
f 101/160/23 20/120/23 19/159/23
f 112/161/51 117/162/51 119/163/51
f 76/91/36 65/85/36 67/87/36
f 110/121/28 67/87/28 66/86/28
f 101/160/23 23/119/23 20/120/23
f 121/133/48 18/164/48 40/165/48
f 26/166/48 14/167/48 121/133/48
f 20/120/22 145/117/22 129/116/22
f 33/138/27 32/140/27 28/141/27
f 31/113/27 52/139/26 50/168/26
f 112/161/51 113/169/51 117/162/51
f 140/64/52 155/170/53 139/69/52
f 41/135/47 54/123/24 40/165/47
f 16/144/26 123/171/26 17/172/26
f 41/135/47 53/124/24 54/123/24
f 138/153/50 111/173/50 110/121/50
f 57/110/30 64/84/34 63/94/33
f 18/164/48 45/155/48 40/165/48
f 31/113/27 30/134/27 52/139/26
f 16/144/26 129/116/26 123/171/26
f 18/164/48 25/130/48 46/129/48
f 123/171/23 129/116/23 143/118/23
f 59/79/49 81/106/49 80/105/49
f 144/90/23 21/111/23 143/118/23
f 69/96/25 58/109/25 15/174/25
f 21/111/23 123/171/23 143/118/23
f 75/175/54 63/176/33 62/82/32
f 25/130/23 84/177/23 29/128/23
f 16/156/23 134/178/23 127/157/23
f 144/90/55 19/159/56 146/179/26
f 128/127/23 109/180/23 80/181/23
f 152/104/23 80/105/23 154/107/23
f 43/122/43 42/132/43 54/123/24
f 43/122/47 55/182/47 26/150/47
f 29/128/47 47/149/24 46/129/24
f 140/64/52 156/183/53 155/170/53
f 35/143/27 37/151/27 39/115/26
f 131/126/22 146/179/22 19/159/22
f 35/143/42 34/152/26 36/72/26
f 15/174/25 63/176/25 74/184/25
f 30/134/57 39/115/57 37/151/57
f 31/113/22 33/138/22 75/185/22
f 78/100/24 75/175/24 77/92/24
f 137/186/1 111/173/1 138/153/1
f 71/187/49 82/103/49 83/102/49
f 120/188/23 119/163/23 125/189/23
f 68/190/22 43/122/22 41/135/22
f 116/191/58 115/147/58 118/146/58
f 116/191/26 127/192/26 122/193/26
f 119/163/24 126/194/24 125/189/24
f 101/160/22 143/118/22 23/119/22
f 122/195/26 134/178/26 130/196/26
f 57/110/40 59/197/40 61/73/40
f 125/198/24 133/199/24 132/200/24
f 120/201/23 132/200/23 128/202/23
f 109/180/59 136/203/59 108/75/59
f 124/145/23 127/192/23 118/146/23
f 61/73/28 110/121/28 66/86/28
f 42/132/48 26/166/48 121/133/48
f 83/102/26 81/106/26 56/76/26
f 44/148/47 48/137/24 49/136/24
f 40/165/48 54/123/48 121/133/48
f 110/121/22 136/203/22 135/154/22
f 18/125/44 121/88/24 131/126/45
f 12/30/24 158/2/60 11/44/24
f 64/84/1 61/73/1 66/86/1
f 79/99/36 72/204/36 78/100/36
f 23/119/24 143/118/24 145/117/24
f 45/155/48 49/136/48 40/165/48
f 44/148/43 45/155/43 46/129/24
f 33/138/42 50/168/26 52/139/26
f 25/130/23 18/164/23 84/177/23
f 67/87/23 110/121/23 76/91/23
f 75/175/54 74/184/54 63/176/33
f 18/164/48 46/129/48 45/155/48
f 66/86/41 62/82/41 64/84/41
f 156/183/53 1/58/26 155/170/53
f 131/126/23 144/90/23 146/179/23
f 157/32/60 141/3/61 158/2/60
f 41/135/43 40/165/43 49/136/24
f 144/90/55 101/160/62 19/159/56
f 110/121/23 111/173/23 76/91/23
f 109/180/23 108/75/23 80/181/23
f 108/75/23 60/74/23 80/181/23
f 153/108/23 76/91/23 16/144/23
f 76/91/23 111/173/23 16/144/23
f 111/173/23 109/180/23 20/120/23
f 16/144/23 111/173/23 20/120/23
f 79/99/23 151/101/23 17/172/23
f 151/101/23 153/108/23 16/144/23
f 85/205/23 73/206/23 79/99/23
f 16/144/23 17/172/23 151/101/23
f 17/172/23 85/205/23 79/99/23
f 128/127/23 19/159/23 109/180/23
f 19/159/23 20/120/23 109/180/23
f 84/207/23 18/125/23 82/208/23
f 18/125/23 128/127/23 82/208/23
f 80/181/23 82/208/23 128/127/23
f 82/208/23 70/209/23 84/207/23
f 152/104/23 82/103/23 80/105/23
f 37/151/57 36/72/57 17/131/57
f 36/72/57 27/71/57 17/131/57
f 17/131/57 123/210/57 30/134/57
f 37/151/57 17/131/57 30/134/57
f 123/210/57 13/211/57 28/212/57
f 32/140/57 52/139/57 123/210/57
f 52/139/57 30/134/57 123/210/57
f 123/210/57 28/212/57 32/140/57
f 72/213/22 73/214/22 35/143/22
f 73/214/22 85/112/22 34/152/22
f 35/143/22 73/214/22 34/152/22
f 85/112/22 24/70/22 34/152/22
f 35/143/22 38/114/22 31/113/22
f 75/185/22 72/213/22 31/113/22
f 51/142/22 74/215/22 33/138/22
f 74/215/22 75/185/22 33/138/22
f 31/113/22 50/168/22 33/138/22
f 72/213/22 35/143/22 31/113/22
f 78/100/24 72/204/24 75/175/24
f 75/175/24 62/82/24 77/92/24
f 62/82/24 65/85/24 77/92/24
f 77/92/24 153/108/24 151/101/24
f 77/92/24 151/101/24 78/100/24
f 137/186/1 109/180/1 111/173/1
f 71/187/49 70/216/49 82/103/49
f 120/188/23 112/161/23 119/163/23
f 29/128/22 84/177/22 47/149/22
f 84/177/22 70/217/22 47/149/22
f 44/148/22 70/217/22 71/218/22
f 71/218/22 68/190/22 41/135/22
f 44/148/22 71/218/22 41/135/22
f 68/190/22 69/219/22 43/122/22
f 69/219/22 55/182/22 43/122/22
f 43/122/22 53/124/22 41/135/22
f 70/217/22 44/148/22 47/149/22
f 41/135/22 48/137/22 44/148/22
f 116/191/58 114/220/58 115/147/58
f 116/191/26 118/146/26 127/192/26
f 119/163/24 117/162/24 126/194/24
f 101/160/22 144/90/22 143/118/22
f 122/195/26 127/157/26 134/178/26
f 57/110/40 56/221/40 59/197/40
f 125/198/24 126/222/24 133/199/24
f 120/201/23 125/198/23 132/200/23
f 109/180/59 137/186/59 136/203/59
f 56/76/26 68/223/26 83/102/26
f 68/223/26 71/187/26 83/102/26
f 83/102/26 152/104/26 154/107/26
f 81/106/26 59/79/26 56/76/26
f 83/102/26 154/107/26 81/106/26
f 110/121/22 108/75/22 136/203/22
f 12/30/24 157/32/60 158/2/60
f 64/84/1 57/110/1 61/73/1
f 79/99/36 73/206/36 72/204/36
f 66/86/41 65/85/41 62/82/41
f 156/183/53 2/51/26 1/58/26
f 157/32/60 142/41/61 141/3/61
