# Blender v2.79 (sub 0) OBJ File: 'BFCab.blend'
# www.blender.org
mtllib BFCab.mtl
o m_BF_Streamline_111.000
v 0.474894 0.468360 -0.475100
v -0.475107 0.468360 -0.474880
v 0.474946 -0.337101 -0.475050
v -0.475055 -0.337101 -0.474940
v 0.474998 -0.337101 0.482365
v -0.475002 -0.337101 0.482365
v 0.474946 -0.097373 -0.475050
v -0.000002 -0.337101 0.482365
v 0.474972 -0.337101 -0.008842
v -0.000028 -0.337101 0.091185
v -0.475029 -0.337101 -0.008787
v 0.118702 -0.337101 -0.475022
v -0.118798 -0.337101 -0.474967
v 0.118715 -0.337101 -0.008829
v -0.118785 -0.337101 -0.008801
v -0.475070 -0.097373 -0.474922
v -0.000062 -0.097373 -0.474986
v 0.118709 -0.337101 -0.241926
v -0.118791 -0.337101 -0.241884
v -0.000054 -0.262101 -0.399995
v 0.118702 -0.262101 -0.400022
v -0.118798 -0.262101 -0.399967
vt 0.744988 0.590541
vt 0.744984 0.647691
vt 0.624998 0.647691
vt 0.655000 0.590540
vt 0.388339 0.987491
vt 0.388335 0.937500
vt 0.388331 0.887509
vt 0.444624 0.887509
vt 0.444631 0.987491
vt 0.595007 0.590540
vt 0.505012 0.647691
vt 0.505016 0.590539
vt 0.655081 0.787704
vt 0.655096 0.821803
vt 0.672453 0.821795
vt 0.672445 0.804745
vt 0.672438 0.787695
vt 0.133676 0.834732
vt 0.065187 0.851770
vt 0.065187 0.551799
vt 0.099432 0.693265
vt 0.277425 0.516362
vt 0.279247 0.916319
vt 0.187620 0.894436
vt 0.232522 0.705399
vt 0.689809 0.821787
vt 0.655112 0.855902
vt 0.689824 0.855887
vt 0.724522 0.821771
vt 0.707165 0.821779
vt 0.724537 0.855873
vt 0.707150 0.787678
vt 0.707158 0.804728
vt 0.724506 0.787669
vt 0.812500 0.037500
vt 0.788724 0.054775
vt 0.797805 0.082725
vt 0.827195 0.082725
vt 0.836276 0.054775
vt 0.812500 0.037500
vt 0.788724 0.054775
vt 0.797805 0.082725
vt 0.827195 0.082725
vt 0.836276 0.054775
vt 0.837500 0.087500
vt 0.787500 0.087500
vt 0.787500 0.037500
vt 0.837500 0.037500
vn 0.0001 -0.0000 1.0000
vn 0.0002 0.0000 1.0000
vn 0.0000 1.0000 0.0000
vn 1.0000 0.0001 -0.0001
vn -1.0000 -0.0000 0.0001
vn 0.0002 0.7015 0.7127
vn 0.0001 0.7580 0.6523
vn 0.0000 0.9756 0.2197
vn 0.0001 0.7579 0.6523
vn 0.0002 0.4143 0.9101
usemtl None
s off
f 3/1/1 7/2/1 17/3/1 12/4/1
f 16/5/2 17/6/2 7/7/2 1/8/2 2/9/2
f 13/10/1 17/3/1 16/11/1 4/12/1
s 1
f 4/13/3 11/14/3 15/15/3 19/16/3 13/17/3
f 4/18/4 16/19/4 6/20/4 11/21/4
f 5/22/5 7/23/5 3/24/5 9/25/5
f 10/26/3 15/15/3 11/14/3 6/27/3 8/28/3
f 9/29/3 14/30/3 10/26/3 8/28/3 5/31/3
f 12/32/3 18/33/3 14/30/3 9/29/3 3/34/3
f 20/35/6 22/36/7 19/37/8 18/38/8 21/39/9
f 18/40/8 19/41/8 15/42/3 10/43/3 14/44/3
f 21/45/9 17/46/10 22/47/7 20/48/6
o m_GSO_Cab_111_Gun_Lf.000_m_GSO_Cab_111_Gun_Lf.002
v 0.391858 -0.350951 0.481522
v 0.358422 -0.337101 0.481522
v 0.287394 -0.313361 0.520547
v 0.324985 -0.350951 0.481522
v 0.257974 -0.384388 0.520547
v 0.311135 -0.384388 0.481522
v 0.287394 -0.455415 0.520547
v 0.324985 -0.417825 0.481522
v 0.358422 -0.484836 0.520547
v 0.358422 -0.431675 0.481522
v 0.429449 -0.455415 0.520547
v 0.391858 -0.417825 0.481522
v 0.458869 -0.384388 0.520547
v 0.405708 -0.384388 0.481522
v 0.358422 -0.384388 0.499459
v 0.429449 -0.313361 0.520547
v 0.358422 -0.283940 0.520547
v 0.361998 -0.384388 0.600216
v 0.358422 -0.358977 0.501189
v 0.360956 -0.381988 0.600190
v 0.377402 -0.366420 0.501189
v 0.331579 -0.384388 0.501189
v 0.355887 -0.381988 0.600190
v 0.339441 -0.366420 0.501189
v 0.354845 -0.384388 0.600216
v 0.358422 -0.387790 0.600163
v 0.339441 -0.402356 0.501189
v 0.377402 -0.402356 0.501189
v 0.360956 -0.386788 0.600190
v 0.358422 -0.409799 0.501189
v 0.385264 -0.384388 0.501189
v 0.358422 -0.347936 0.468432
v 0.319916 -0.384388 0.468432
v 0.331194 -0.358612 0.468432
v 0.331194 -0.410163 0.468432
v 0.385649 -0.358612 0.468432
v 0.355887 -0.386788 0.600190
v 0.358422 -0.380986 0.600163
vt 0.820731 0.067549
vt 0.819053 0.049921
vt 0.818578 0.049926
vt 0.817177 0.067549
vt 0.256597 0.609842
vt 0.221499 0.621852
vt 0.222589 0.689438
vt 0.297143 0.663925
vt 0.299201 0.791738
vt 0.223863 0.768640
vt 0.224952 0.836226
vt 0.260418 0.847099
vt 0.827596 0.067583
vt 0.825970 0.049921
vt 0.825514 0.049926
vt 0.824177 0.067583
vt 0.817164 0.067549
vt 0.815763 0.049926
vt 0.815288 0.049921
vt 0.813609 0.067549
vt 0.297928 0.712624
vt 0.222590 0.689525
vt 0.223678 0.757111
vt 0.259144 0.767985
vt 0.810029 0.067549
vt 0.808350 0.049921
vt 0.807875 0.049926
vt 0.806474 0.067549
vt 0.147249 0.666340
vt 0.186033 0.610979
vt 0.338561 0.766705
vt 0.373658 0.754695
vt 0.372570 0.687110
vt 0.298015 0.712622
vt 0.581519 0.956558
vt 0.581519 0.982762
vt 0.613957 0.969660
vt 0.539174 0.956511
vt 0.548988 0.932214
vt 0.514004 0.932214
vt 0.573332 0.921480
vt 0.563518 0.897183
vt 0.538348 0.921480
vt 0.539174 0.980855
vt 0.548988 0.956558
vt 0.514004 0.956558
vt 0.584019 0.956511
vt 0.574205 0.932214
vt 0.549035 0.956511
vt 0.538301 0.897183
vt 0.514004 0.906997
vt 0.538301 0.932167
vt 0.549035 0.956558
vt 0.549035 0.982762
vt 0.581473 0.969660
vt 0.597676 0.897183
vt 0.573379 0.906997
vt 0.597676 0.932167
vt 0.813596 0.067549
vt 0.812196 0.049926
vt 0.811720 0.049921
vt 0.810042 0.067549
vt 0.831029 0.067583
vt 0.829403 0.049921
vt 0.828946 0.049926
vt 0.827609 0.067583
vt 0.834461 0.067583
vt 0.833124 0.049926
vt 0.832668 0.049921
vt 0.824164 0.067583
vt 0.822827 0.049926
vt 0.822370 0.049921
vt 0.820744 0.067583
vt 0.447908 0.710208
vt 0.409124 0.765569
vt 0.189855 0.848236
vt 0.149308 0.794153
vt 0.188580 0.769121
vt 0.148034 0.715038
vt 0.819571 0.067884
vt 0.819587 0.068340
vt 0.819933 0.068665
vt 0.820409 0.068665
vt 0.820731 0.068343
vt 0.820716 0.067887
vt 0.820369 0.067562
vt 0.819894 0.067562
vn 0.6776 -0.7009 0.2228
vn 0.4864 -0.5057 0.7126
vn 0.0000 -0.7031 0.7111
vn 0.0000 -0.9762 0.2171
vn -0.5918 -0.0000 -0.8061
vn -0.4184 -0.4184 -0.8061
vn 0.5918 0.0000 -0.8061
vn 0.4184 -0.4184 -0.8061
vn 0.9735 0.0000 0.2287
vn 0.7002 0.0000 0.7139
vn 0.0000 0.9762 0.2171
vn 0.0000 0.7031 0.7111
vn 0.4864 0.5057 0.7126
vn 0.6776 0.7009 0.2228
vn -0.4184 0.4184 -0.8061
vn -0.6776 0.7009 0.2228
vn -0.4864 0.5057 0.7125
vn 0.0000 -0.5918 -0.8061
vn 0.4184 0.4184 -0.8061
vn -0.2055 -0.0000 0.9787
vn -0.1453 -0.1453 0.9787
vn -0.0000 0.0000 1.0000
vn -0.0000 -0.2055 0.9787
vn 0.1453 -0.1453 0.9787
vn 0.2055 0.0000 0.9787
vn 0.1453 0.1453 0.9787
vn -0.0000 0.2055 0.9787
vn -0.1453 0.1453 0.9787
vn -0.4864 -0.5057 0.7125
vn -0.6776 -0.7009 0.2228
vn -0.9735 0.0000 0.2287
vn -0.7003 0.0000 0.7139
vn 0.0000 0.5918 -0.8061
usemtl Material
s 1
f 50/49/11 51/50/12 48/51/13 52/52/14
f 28/53/15 30/54/16 29/55/16 27/56/15
f 35/57/17 33/58/18 34/59/18 36/60/17
f 53/61/19 40/62/20 51/63/12 50/64/11
f 41/65/21 60/66/22 42/67/23 43/68/24
f 27/69/15 25/70/25 26/71/25 28/72/15
f 46/73/26 45/74/27 60/75/22 41/76/21
f 31/77/28 29/55/16 30/54/16 32/78/28
f 36/79/17 23/80/29 38/81/29 35/82/17
f 35/83/30 38/84/31 37/85/32
f 38/86/31 39/87/33 37/88/32
f 39/89/33 25/90/34 37/91/32
f 25/92/34 27/93/35 37/94/32
f 27/95/35 29/96/36 37/97/32
f 29/98/36 31/99/37 37/100/32
f 31/101/37 33/102/38 37/103/32
f 33/104/38 35/105/30 37/106/32
f 52/107/14 48/108/13 59/109/39 49/110/40
f 44/111/41 47/112/42 45/113/27 46/114/26
f 49/115/40 59/116/39 47/117/42 44/111/41
f 43/118/24 42/119/23 40/120/20 53/121/19
f 39/122/43 38/81/29 23/80/29 24/123/43
f 32/124/28 34/59/18 33/58/18 31/125/28
f 24/126/43 26/71/25 25/70/25 39/127/43
f 40/128/20 42/129/23 60/130/22 45/131/27 47/132/42 59/133/39 48/134/13 51/135/12
l 55 56
l 55 57
l 54 58
l 54 56
o m_GSO_Cab_111_Gun_Rt.000_m_GSO_Cab_111_Gun_Rt.002
v -0.358422 -0.485451 0.205303
v -0.287394 -0.313361 0.520547
v -0.324985 -0.350951 0.481522
v -0.358422 -0.337101 0.481522
v -0.429449 -0.313361 0.520547
v -0.391858 -0.350951 0.481522
v -0.358422 -0.283940 0.520547
v -0.405708 -0.384388 0.481522
v -0.391858 -0.417825 0.481522
v -0.358422 -0.431675 0.481522
v -0.324985 -0.417825 0.481522
v -0.257974 -0.384388 0.520547
v -0.311135 -0.384388 0.481522
v -0.358422 -0.384388 0.499459
v -0.458869 -0.384388 0.520547
v -0.429449 -0.455415 0.520547
v -0.358422 -0.484836 0.520547
v -0.287394 -0.455415 0.520547
v -0.339441 -0.366420 0.501189
v -0.331579 -0.384388 0.501189
v -0.377402 -0.366420 0.501189
v -0.360956 -0.381988 0.600190
v -0.358422 -0.358977 0.501189
v -0.385264 -0.384388 0.501189
v -0.377402 -0.402356 0.501189
v -0.358422 -0.409799 0.501189
v -0.360956 -0.386788 0.600190
v -0.358422 -0.387790 0.600163
v -0.355887 -0.386788 0.600190
v -0.339441 -0.402356 0.501189
v -0.361998 -0.384388 0.600216
v -0.354845 -0.384388 0.600216
v -0.355887 -0.381988 0.600190
v -0.358422 -0.380986 0.600163
vt 0.246838 0.620221
vt 0.270363 0.612592
vt 0.270363 0.567529
vt 0.220392 0.583735
vt 0.293887 0.673030
vt 0.270363 0.680659
vt 0.270363 0.725722
vt 0.320334 0.709516
vt 0.802923 0.064254
vt 0.802923 0.064254
vt 0.802923 0.064254
vt 0.802923 0.064254
vt 0.220392 0.656766
vt 0.270362 0.672972
vt 0.270363 0.627909
vt 0.246839 0.620280
vt 0.802923 0.064254
vt 0.802923 0.064254
vt 0.802923 0.064254
vt 0.802923 0.064254
vt 0.548797 0.944968
vt 0.548797 0.917761
vt 0.515117 0.931364
vt 0.584311 0.965228
vt 0.574121 0.990456
vt 0.610445 0.990456
vt 0.574121 0.939952
vt 0.584311 0.965180
vt 0.610445 0.939952
vt 0.584311 0.914677
vt 0.574121 0.939904
vt 0.610445 0.939904
vt 0.512474 0.965229
vt 0.522663 0.990456
vt 0.548797 0.965229
vt 0.548845 0.954084
vt 0.574073 0.943894
vt 0.548845 0.917761
vt 0.548797 0.917712
vt 0.548797 0.890504
vt 0.515117 0.904108
vt 0.548845 0.990456
vt 0.574073 0.980266
vt 0.548845 0.954132
vt 0.802923 0.064254
vt 0.802923 0.064254
vt 0.802923 0.064254
vt 0.802923 0.064254
vt 0.802923 0.064254
vt 0.802923 0.064254
vt 0.320392 0.709516
vt 0.370363 0.725722
vt 0.370363 0.680659
vt 0.346839 0.673030
vt 0.802923 0.064254
vt 0.802923 0.064254
vt 0.220392 0.709516
vt 0.246838 0.673030
vt 0.320334 0.583735
vt 0.293887 0.620221
vt 0.293887 0.620280
vt 0.320334 0.656766
vt 0.393888 0.673030
vt 0.420334 0.709516
vn 0.5918 -0.0000 -0.8061
vn 0.4184 0.4184 -0.8061
vn -0.0000 0.5918 -0.8061
vn -0.4184 0.4184 -0.8061
vn 0.9735 0.0000 0.2287
vn 0.7003 0.0000 0.7139
vn 0.4864 -0.5057 0.7125
vn 0.6776 -0.7009 0.2228
vn 0.4184 -0.4184 -0.8061
vn -0.0000 0.9762 0.2171
vn -0.0000 0.7031 0.7111
vn 0.4864 0.5057 0.7125
vn 0.6776 0.7009 0.2228
vn -0.2055 0.0000 0.9787
vn -0.1453 -0.1453 0.9787
vn 0.0000 0.0000 1.0000
vn 0.0000 -0.2055 0.9787
vn 0.1453 -0.1453 0.9787
vn 0.2055 0.0000 0.9787
vn 0.1453 0.1453 0.9787
vn 0.0000 0.2055 0.9787
vn -0.1453 0.1453 0.9787
vn -0.6776 0.7009 0.2228
vn -0.4864 0.5057 0.7126
vn -0.9735 -0.0000 0.2287
vn -0.7002 -0.0000 0.7139
vn -0.0000 -0.7031 0.7111
vn -0.0000 -0.9762 0.2171
vn -0.0000 -0.5918 -0.8061
vn -0.4184 -0.4184 -0.8061
vn -0.4864 -0.5057 0.7126
vn -0.6776 -0.7009 0.2228
vn -0.5918 -0.0000 -0.8061
usemtl Material
s 1
f 73/136/44 63/137/45 62/138/45 72/139/44
f 64/140/46 66/141/47 65/142/47 67/143/46
f 80/144/48 92/145/49 89/146/50 90/147/51
f 72/148/44 78/149/52 71/150/52 73/151/44
f 83/152/53 94/153/54 93/154/55 79/155/56
f 72/156/57 62/157/58 74/158/59
f 62/159/58 67/160/60 74/161/59
f 67/162/60 65/163/61 74/164/59
f 65/165/61 75/166/62 74/167/59
f 75/168/62 76/169/63 74/170/59
f 76/171/63 77/172/64 74/173/59
f 77/174/64 78/175/65 74/176/59
f 78/177/65 72/178/57 74/179/59
f 81/180/66 82/181/67 94/153/54 83/152/53
f 79/155/56 93/154/55 92/145/49 80/144/48
f 84/182/68 91/183/69 82/181/67 81/180/66
f 90/147/51 89/146/50 88/184/70 86/185/71
f 77/186/72 76/187/73 69/188/73 70/189/72
f 86/185/71 88/184/70 87/190/74 85/191/75
f 85/191/75 87/190/74 91/183/69 84/182/68
f 92/145/49 93/154/55 94/153/54 82/181/67 91/183/69 87/190/74 88/184/70 89/146/50
f 75/192/76 65/142/47 66/141/47 68/193/76
f 67/194/46 62/138/45 63/137/45 64/195/46
f 70/196/72 71/150/52 78/149/52 77/197/72
f 68/198/76 69/188/73 76/187/73 75/199/76
o m_BF_Streamline_111.001_m_BF_Streamline_111.006
v -0.500000 -0.500000 -0.500000
v 0.500000 -0.500000 -0.500000
v -0.500029 0.132023 -0.131899
v -0.500029 -0.132023 -0.131899
v -0.600000 0.000000 0.000145
v -0.499970 -0.132023 0.132145
v -0.499971 0.132023 0.132144
v 0.131912 0.132023 -0.500018
v -0.132133 0.132023 -0.499962
v -0.000132 -0.000000 -0.599986
v -0.132132 -0.132023 -0.499962
v 0.131913 -0.132023 -0.500018
v 0.500029 -0.132023 0.131924
v 0.600000 -0.000000 -0.000120
v 0.500029 0.132023 0.131924
v 0.499971 0.132023 -0.132122
v 0.499971 -0.132023 -0.132122
v -0.131992 -0.500000 0.132063
v 0.132052 -0.500000 0.132006
v 0.131994 -0.500000 -0.132040
v 0.000001 -0.599998 0.000012
v -0.132051 -0.500000 -0.131983
v -0.499891 -0.500000 0.500125
v -0.499947 -0.302454 0.480796
v 0.500110 -0.500000 0.499904
v 0.500094 -0.117317 0.423782
v -0.499907 -0.117317 0.424002
v 0.500074 0.055569 0.331369
v -0.499927 0.055569 0.331591
v 0.500046 0.207108 0.207005
v -0.499955 0.207108 0.207227
v 0.500013 0.331470 0.055468
v -0.499988 0.331470 0.055690
v 0.499974 0.423881 -0.117416
v -0.500026 0.423878 -0.117194
v 0.499933 0.480785 -0.305011
v -0.500068 0.480785 -0.304789
v 0.499890 0.500000 -0.500100
v -0.500110 0.500000 -0.499880
v 0.500053 -0.302454 0.480686
v 0.100000 -0.400000 0.490405
v 0.460000 -0.350000 0.485546
v -0.420000 -0.350000 0.485546
v -0.100000 -0.400000 0.490405
v -0.100000 -0.500000 0.500000
v 0.100000 -0.500000 0.500000
v 0.499945 -0.301184 -0.500050
v -0.500055 -0.301184 -0.499940
v 0.000107 -0.304909 0.480797
vt 0.214361 0.607023
vt 0.212442 0.587520
vt 0.412363 0.587540
vt 0.412363 0.687510
vt 0.412363 0.787480
vt 0.373357 0.783634
vt 0.335850 0.772253
vt 0.301286 0.753773
vt 0.270990 0.728905
vt 0.246128 0.698604
vt 0.227654 0.664035
vt 0.237535 0.899979
vt 0.387505 0.899962
vt 0.387505 0.824978
vt 0.387505 0.749993
vt 0.237535 0.750009
vt 0.237535 0.824994
vt 0.037516 0.899970
vt 0.037502 0.600030
vt 0.096010 0.605791
vt 0.152270 0.622854
vt 0.204121 0.650566
vt 0.249569 0.687861
vt 0.286868 0.733306
vt 0.314584 0.785153
vt 0.331653 0.841412
vt 0.337418 0.899920
vt 0.187467 0.899945
vt 0.576190 0.599889
vt 0.676176 0.599889
vt 0.676176 0.650111
vt 0.576190 0.650111
vt 0.449873 0.550040
vt 0.449873 0.949960
vt 0.050003 0.949916
vt 0.050003 0.550085
vt 0.169986 0.550071
vt 0.289969 0.550058
vt 0.031246 0.031498
vt 0.060715 0.060967
vt 0.060715 0.002028
vt 0.001776 0.060967
vt 0.001776 0.002028
vt 0.031246 0.031498
vt 0.060715 0.002028
vt 0.060715 0.060967
vt 0.001776 0.002028
vt 0.001776 0.060967
vt 0.031246 0.031498
vt 0.060715 0.002028
vt 0.060715 0.060967
vt 0.001776 0.002028
vt 0.001776 0.060967
vt 0.031246 0.031498
vt 0.060715 0.060967
vt 0.060715 0.002028
vt 0.001776 0.060967
vt 0.001776 0.002028
vt 0.937488 0.046749
vt 0.937488 0.046749
vt 0.937488 0.046749
vt 0.937488 0.046749
vt 0.937488 0.046749
vt 0.937488 0.046749
vt 0.937488 0.046749
vt 0.937488 0.046749
vt 0.937488 0.046749
vt 0.937488 0.046749
vt 0.937488 0.046749
vt 0.937488 0.046749
vt 0.937488 0.046749
vt 0.937488 0.046749
vt 0.937488 0.046749
vt 0.937488 0.046749
vt 0.937488 0.046749
vt 0.937488 0.046749
vt 0.937488 0.046749
vt 0.937488 0.046749
vt 0.937488 0.046749
vt 0.449942 0.823123
vt 0.449981 0.901345
vt 0.418072 0.841227
vt 0.067036 0.835284
vt 0.050019 0.895123
vt 0.051419 0.814975
vt 0.189919 0.849098
vt 0.130522 0.856404
vt 0.249315 0.841792
vt 0.368109 0.827180
vt 0.290040 0.898857
vn 1.0000 0.0001 -0.0002
vn -0.0001 0.0000 -1.0000
vn -1.0000 -0.0001 0.0002
vn -0.0000 0.0955 0.9954
vn 0.0000 -1.0000 0.0000
vn -0.7973 0.0000 -0.6036
vn -0.7971 0.6038 0.0002
vn -0.7970 -0.0000 0.6040
vn -0.7971 -0.6038 0.0002
vn 0.6036 0.0000 -0.7973
vn -0.0002 0.6038 -0.7972
vn -0.6040 -0.0000 -0.7970
vn -0.0002 -0.6038 -0.7972
vn 0.7971 -0.6038 -0.0002
vn 0.7973 -0.0000 0.6036
vn 0.7971 0.6038 -0.0002
vn 0.7970 0.0000 -0.6040
vn -0.6038 -0.7971 0.0001
vn 0.0001 -0.7971 0.6038
vn 0.6038 -0.7971 -0.0001
vn -0.0001 -0.7971 -0.6038
vn 0.0014 0.1959 0.9806
vn 0.0001 0.1964 0.9805
vn -0.0003 0.1970 0.9804
vn -0.0002 0.0984 0.9951
vn -0.0000 0.0986 0.9951
vn 0.0001 0.0987 0.9951
vn 0.0021 0.0978 0.9952
vn 0.0002 0.3830 0.9238
vn 0.0002 0.3841 0.9233
vn 0.0002 0.5556 0.8315
vn 0.0002 0.7071 0.7071
vn 0.0001 0.8315 0.5556
vn 0.0001 0.9239 0.3827
vn 0.0000 0.9808 0.1951
vn 0.0000 0.9952 0.0980
vn -0.0002 0.0968 0.9953
vn 0.0012 0.0956 0.9954
vn 0.0002 0.0955 0.9954
vn -0.0001 0.0958 0.9954
usemtl Material_BF_Albedo-sharedassets0.assets-1434.png.010
s off
f 134/200/77 119/201/77 96/202/77 141/203/77 132/204/77 130/205/77 128/206/77 126/207/77 124/208/77 122/209/77 120/210/77
f 133/211/78 132/212/78 141/213/78 96/214/78 95/215/78 142/216/78
f 95/217/79 117/218/79 118/219/79 121/220/79 123/221/79 125/222/79 127/223/79 129/224/79 131/225/79 133/226/79 142/227/79
f 139/228/80 140/229/80 135/230/80 138/231/80
f 117/232/81 95/233/81 96/234/81 119/235/81 140/236/81 139/237/81
s 1
f 99/238/82 97/239/82 98/240/82
f 97/239/83 99/238/83 101/241/83
f 99/238/84 100/242/84 101/241/84
f 100/242/85 99/238/85 98/240/85
f 104/243/86 102/244/86 106/245/86
f 102/244/87 104/243/87 103/246/87
f 104/243/88 105/247/88 103/246/88
f 105/247/89 104/243/89 106/245/89
f 108/248/90 107/249/90 111/250/90
f 107/249/91 108/248/91 109/251/91
f 108/248/92 110/252/92 109/251/92
f 110/252/93 108/248/93 111/250/93
f 115/253/94 112/254/94 116/255/94
f 112/254/95 115/253/95 113/256/95
f 115/253/96 114/257/96 113/256/96
f 114/257/97 115/253/97 116/255/97
f 134/258/98 143/259/99 118/260/100 137/261/101 138/262/102 135/263/103 136/264/104
f 120/265/105 118/260/100 143/259/99 134/258/98
f 118/260/100 120/265/105 121/266/106
f 122/267/107 121/266/106 120/265/105
f 121/266/106 122/267/107 123/268/107
f 124/269/108 123/268/107 122/267/107
f 123/268/107 124/269/108 125/270/108
f 126/271/109 125/270/108 124/269/108
f 125/270/108 126/271/109 127/272/109
f 128/273/110 127/272/109 126/271/109
f 127/272/109 128/273/110 129/274/110
f 130/275/111 129/274/110 128/273/110
f 129/274/110 130/275/111 131/276/111
f 132/277/112 131/276/111 130/275/111
f 131/276/111 132/277/112 133/278/112
f 118/279/100 117/280/113 137/281/101
f 136/282/104 119/283/114 134/284/98
f 140/285/115 136/282/104 135/286/103
f 137/281/101 139/287/116 138/288/102
f 137/281/101 117/280/113 139/289/116
f 136/282/104 140/285/115 119/235/114
