# Blender v2.79 (sub 0) OBJ File: 'BFCab.blend'
# www.blender.org
mtllib BFCab_wheel.mtl
o m_GSO_Cab_111_Tyre_4.002
v -0.093644 -0.000000 -0.157456
v 0.093644 0.111339 -0.111338
v 0.093644 -0.000000 -0.157456
v 0.093644 -0.111338 -0.111338
v -0.093644 -0.157456 -0.000000
v -0.093644 -0.111338 0.111339
v -0.093644 -0.000000 0.157457
v 0.093644 0.157457 -0.000000
v -0.093644 0.157457 -0.000000
v -0.093644 0.111339 0.111339
v -0.093644 0.111339 -0.111338
v -0.093644 -0.111338 -0.111338
v 0.093644 0.111339 0.111339
v 0.093644 -0.111338 0.111339
v 0.093644 -0.000000 0.157457
v 0.093644 -0.157456 -0.000000
vt 0.869486 0.836723
vt 0.869473 0.874217
vt 0.927743 0.874237
vt 0.927756 0.836743
vt 0.927730 0.911731
vt 0.869460 0.911711
vt 0.869499 0.799229
vt 0.927769 0.799249
vt 0.869512 0.761735
vt 0.927782 0.761755
vt 0.869525 0.724240
vt 0.927795 0.724260
vt 0.869538 0.686746
vt 0.927808 0.686766
vt 0.869551 0.649252
vt 0.927821 0.649272
vt 0.869564 0.611758
vt 0.927834 0.611778
vt 0.876746 0.088182
vt 0.876747 0.036426
vt 0.840150 -0.000171
vt 0.788394 0.124779
vt 0.751796 0.036426
vt 0.788394 -0.000171
vt 0.751796 0.088181
vt 0.840149 0.124779
vt 0.788394 -0.000171
vt 0.751797 0.036425
vt 0.751796 0.088181
vt 0.876746 0.036426
vt 0.840149 0.124779
vt 0.788394 0.124779
vt 0.876747 0.088182
vt 0.840150 -0.000171
vn 0.0000 0.1368 -0.9906
vn 0.0000 0.7972 -0.6038
vn 0.0000 0.6038 -0.7972
vn 0.0000 -0.1368 -0.9906
vn 0.0000 1.0000 -0.0000
vn 0.0000 -0.6038 -0.7972
vn 0.0000 -0.7972 -0.6038
vn 0.0000 -0.9906 -0.1368
vn 0.0000 -0.9906 0.1368
vn 0.0000 -0.7972 0.6038
vn 0.0000 -0.6038 0.7972
vn 0.0000 -0.1368 0.9906
vn 0.0000 0.1368 0.9906
vn 0.0000 0.6038 0.7972
vn 0.0000 0.7972 0.6038
vn -1.0000 -0.0000 0.0000
vn 1.0000 0.0000 0.0000
usemtl None.002
s 1
f 1/1/1 11/2/2 2/3/3
f 2/3/3 3/4/4 1/1/1
f 8/5/5 2/3/3 11/2/2
f 11/2/2 9/6/5 8/5/5
f 12/7/6 1/1/1 3/4/4
f 3/4/4 4/8/7 12/7/6
f 5/9/8 12/7/6 4/8/7
f 4/8/7 16/10/9 5/9/8
f 6/11/10 5/9/8 16/10/9
f 16/10/9 14/12/11 6/11/10
f 7/13/12 6/11/10 14/12/11
f 14/12/11 15/14/13 7/13/12
f 10/15/14 7/13/12 15/14/13
f 15/14/13 13/16/15 10/15/14
f 9/17/5 10/15/14 13/16/15
f 13/16/15 8/18/5 9/17/5
f 5/19/16 6/20/16 7/21/16
f 5/19/16 7/21/16 1/22/16
f 7/21/16 9/23/16 1/22/16
f 7/21/16 10/24/16 9/23/16
f 9/23/16 11/25/16 1/22/16
f 12/26/16 5/19/16 1/22/16
f 2/27/17 8/28/17 13/29/17
f 2/27/17 13/29/17 4/30/17
f 13/29/17 14/31/17 4/30/17
f 13/29/17 15/32/17 14/31/17
f 14/31/17 16/33/17 4/30/17
f 3/34/17 2/27/17 4/30/17
