# Blender v2.79 (sub 0) OBJ File: ''
# www.blender.org
mtllib HEp_blockbottom.mtl
o the_node.014_tri_420_geometry.000
v -0.468440 0.374719 -0.312560
v -0.468440 -0.375040 -0.312146
v -0.468440 -0.000159 0.062318
v 0.468759 0.374719 -0.468760
v 0.312559 0.374719 -0.468760
v 0.312559 0.374719 -0.312560
v 0.468759 0.374719 -0.312560
v 0.468759 -0.000159 0.062318
v 0.468759 -0.375040 -0.312145
v -0.312240 0.374719 -0.468760
v -0.312240 0.374719 -0.312560
v 0.312559 -0.375040 -0.468760
v -0.312240 -0.375040 -0.468760
v -0.468440 0.374719 -0.468760
v -0.468440 -0.353516 0.416069
v 0.468759 -0.353516 0.416069
v 0.468759 -0.375040 0.041605
v -0.468440 -0.375040 0.041605
v -0.132023 -0.500000 -0.132023
v 0.132022 -0.500000 -0.132023
v -0.000001 -0.600000 -0.000000
v -0.132023 -0.500000 0.132023
v 0.132022 -0.500000 0.132023
v -0.132023 -0.400000 0.132023
v -0.132023 -0.400000 -0.132023
v 0.132022 -0.400000 0.132023
v 0.132022 -0.400000 -0.132023
v 0.470712 -0.500000 -0.470712
v 0.470712 -0.500000 0.470392
v 0.437519 -0.500160 0.437200
v 0.437519 -0.500160 -0.437520
v -0.499680 0.100729 0.267108
v -0.499680 -0.149190 -0.232732
v -0.499680 -0.387172 -0.470713
v -0.499680 -0.470713 -0.470713
v -0.499680 -0.470713 0.470392
v -0.499680 0.304013 0.470392
v 0.499999 -0.149190 -0.232732
v 0.500000 0.100730 0.267108
v 0.500000 0.304013 0.470392
v 0.499999 -0.470712 0.470392
v 0.499999 -0.470712 -0.470712
v 0.499999 -0.387171 -0.470712
v -0.470393 0.345432 0.499679
v -0.470393 -0.470713 0.499679
v 0.470712 -0.470712 0.499679
v 0.470712 0.345432 0.499679
v 0.375039 -0.500000 0.437200
v 0.384668 -0.300012 0.393445
v 0.428404 -0.300156 0.393445
v -0.470393 -0.500000 0.470392
v -0.470393 -0.500000 -0.470713
v -0.437200 -0.500160 -0.437520
v -0.437200 -0.500160 0.437200
v 0.000160 -0.500000 -0.470713
v 0.375039 -0.500160 -0.437520
v 0.000160 -0.500000 0.470392
v -0.374720 -0.500000 -0.437520
v -0.374720 -0.500321 0.437200
v -0.384093 -0.300305 0.393500
v -0.384093 -0.300016 -0.393747
v -0.427828 -0.300160 0.393500
v -0.427828 -0.300160 -0.393747
v 0.384668 -0.300156 -0.393802
v 0.428404 -0.300156 -0.393802
v 0.470712 -0.300160 -0.161794
v -0.470393 -0.300160 -0.161794
v -0.470392 -0.300160 0.247016
v 0.470712 -0.300160 0.247016
v -0.470393 -0.300160 0.478970
v 0.470712 -0.300160 0.478970
v 0.470712 -0.300160 -0.393747
v -0.470393 -0.300160 -0.393747
v -0.468440 -0.375040 -0.468760
v 0.468759 -0.375040 -0.468760
v 0.470712 0.128606 0.247016
v 0.470712 -0.128926 -0.247337
v -0.470393 0.354010 0.478970
v 0.470712 0.354010 0.478970
v 0.470712 -0.354331 -0.479291
v 0.470712 -0.470712 -0.500000
v -0.470393 -0.470713 -0.500000
v -0.470393 -0.404328 -0.500000
v 0.470712 -0.404328 -0.500000
v -0.470393 -0.354331 -0.479291
v -0.470393 -0.128926 -0.247337
v -0.470392 0.128605 0.247016
v -0.132023 -0.132023 0.500000
v 0.132022 -0.132023 0.500000
v 0.000000 -0.000000 0.600000
v -0.132023 0.132023 0.500000
v 0.132022 0.132023 0.500000
v -0.132023 0.132023 0.400000
v -0.132023 -0.132023 0.400000
v 0.132023 0.132023 0.400000
v 0.132022 -0.132023 0.400000
vt 0.075184 0.075186
vt 0.075184 0.002938
vt 0.039062 0.039068
vt 0.002940 0.075186
vt 0.002940 0.002938
vt 0.002940 0.075186
vt 0.075184 0.075186
vt 0.002940 0.002938
vt 0.075184 0.002938
vt 0.568842 0.294914
vt 0.568890 0.226902
vt 0.611240 0.260908
vt 0.599618 0.341586
vt 0.599618 0.319446
vt 0.537514 0.341350
vt 0.568842 0.294914
vt 0.611240 0.260908
vt 0.568890 0.226902
vt 0.692458 0.171644
vt 0.657126 0.171644
vt 0.657126 0.284996
vt 0.692458 0.284996
vt 0.693340 0.171644
vt 0.523754 0.171644
vt 0.523754 0.284996
vt 0.693340 0.284996
vt 0.599618 0.341586
vt 0.599618 0.319446
vt 0.537514 0.341350
vt 0.599618 0.319446
vt 0.599618 0.319446
vt 0.615474 0.308090
vt 0.615474 0.138062
vt 0.530680 0.138062
vt 0.530680 0.166400
vt 0.530680 0.279752
vt 0.530680 0.308090
vt 0.615474 0.308090
vt 0.615474 0.138062
vt 0.611240 0.260908
vt 0.568890 0.226902
vt 0.568890 0.226902
vt 0.611240 0.260908
vt 0.075184 0.075186
vt 0.075184 0.002938
vt 0.039062 0.039068
vt 0.002940 0.075186
vt 0.002940 0.002938
vt 0.002940 0.075186
vt 0.075184 0.075186
vt 0.002940 0.002938
vt 0.075184 0.002938
vt 0.426912 0.340250
vt 0.459278 0.453910
vt 0.448194 0.444484
vt 0.424022 0.345760
vt 0.896872 0.594072
vt 0.851786 0.574346
vt 0.830320 0.555562
vt 0.830320 0.548970
vt 0.915208 0.548970
vt 0.915208 0.610116
vt 0.851786 0.574346
vt 0.896872 0.594072
vt 0.915208 0.610116
vt 0.915208 0.548970
vt 0.830320 0.548970
vt 0.830320 0.555562
vt 0.868432 0.614258
vt 0.868012 0.548970
vt 0.911860 0.548970
vt 0.912278 0.614258
vt 0.456624 0.099506
vt 0.455712 0.099506
vt 0.455712 0.098596
vt 0.456624 0.098596
vt 0.301866 0.456508
vt 0.269500 0.342848
vt 0.280586 0.352274
vt 0.304756 0.450996
vt 0.356242 0.339050
vt 0.410188 0.345052
vt 0.372536 0.457710
vt 0.430220 0.446886
vt 0.456624 0.099506
vt 0.455712 0.099506
vt 0.455712 0.098596
vt 0.456624 0.098596
vt 0.318590 0.451708
vt 0.298556 0.349874
vt 0.456624 0.099506
vt 0.455712 0.099506
vt 0.455712 0.098596
vt 0.456624 0.098596
vt 0.456624 0.099506
vt 0.455712 0.099506
vt 0.455712 0.098596
vt 0.456624 0.098596
vt 0.456624 0.099506
vt 0.455712 0.099506
vt 0.456624 0.098596
vt 0.456624 0.099506
vt 0.455712 0.099506
vt 0.455712 0.098596
vt 0.456624 0.099506
vt 0.455712 0.099506
vt 0.455712 0.098596
vt 0.456624 0.098596
vt 0.456624 0.099506
vt 0.455712 0.099506
vt 0.456624 0.098596
vt 0.456624 0.099506
vt 0.455712 0.099506
vt 0.455712 0.098596
vt 0.456624 0.099506
vt 0.455712 0.099506
vt 0.455712 0.098596
vt 0.456624 0.098596
vt 0.653970 0.481942
vt 0.535006 0.481942
vt 0.535006 0.418704
vt 0.653970 0.418704
vt 0.653970 0.411300
vt 0.535006 0.411300
vt 0.535006 0.374026
vt 0.653970 0.374026
vt 0.653970 0.526620
vt 0.535006 0.526620
vt 0.535006 0.489346
vt 0.653970 0.489346
vt 0.599618 0.341586
vt 0.599618 0.319446
vt 0.684632 0.319506
vt 0.684632 0.341586
vt 0.599618 0.319446
vt 0.599618 0.341558
vt 0.684632 0.341558
vt 0.684632 0.319506
vt 0.599618 0.319476
vt 0.684632 0.319476
vt 0.684632 0.319506
vt 0.599618 0.319446
vt 0.653970 0.418704
vt 0.653970 0.481942
vt 0.781970 0.537468
vt 0.876110 0.537468
vt 0.876110 0.537468
vt 0.781970 0.537468
vt 0.653970 0.489346
vt 0.653970 0.526620
vt 0.876110 0.451530
vt 0.781970 0.451530
vt 0.781970 0.459120
vt 0.876110 0.459120
vt 0.989978 0.352898
vt 0.989978 0.349968
vt 0.993326 0.352898
vt 0.989978 0.447038
vt 0.993326 0.447038
vt 0.989978 0.449968
vt 0.876110 0.462468
vt 0.879040 0.461082
vt 0.779040 0.461082
vt 0.781970 0.462468
vt 0.879040 0.451530
vt 0.876110 0.448182
vt 0.653970 0.374026
vt 0.653970 0.370324
vt 0.657674 0.379262
vt 0.882388 0.447038
vt 0.882388 0.449968
vt 0.879040 0.447038
vt 0.781970 0.534538
vt 0.779040 0.530396
vt 0.989978 0.399968
vt 0.535006 0.526620
vt 0.653970 0.530324
vt 0.535006 0.530324
vt 0.657674 0.486246
vt 0.657674 0.528790
vt 0.535006 0.489346
vt 0.531304 0.528790
vt 0.531304 0.486246
vt 0.882388 0.352898
vt 0.882388 0.399968
vt 0.879040 0.352898
vt 0.882388 0.452898
vt 0.882388 0.461254
vt 0.879040 0.459538
vt 0.879040 0.452898
vt 0.912278 0.610116
vt 0.911860 0.548970
vt 0.915208 0.548970
vt 0.912872 0.614258
vt 0.653970 0.411300
vt 0.657674 0.415002
vt 0.914790 0.548970
vt 0.535006 0.374026
vt 0.535006 0.411300
vt 0.531304 0.415002
vt 0.531304 0.379262
vt 0.876110 0.534538
vt 0.989978 0.452898
vt 0.882388 0.349968
vt 0.882388 0.461254
vt 0.882388 0.452898
vt 0.535006 0.418704
vt 0.535006 0.481942
vt 0.531304 0.485044
vt 0.657674 0.485044
vn 0.0000 -0.6038 0.7971
vn 0.0000 0.6038 0.7971
vn 0.6038 -0.0000 0.7971
vn -0.6038 -0.0000 0.7971
vn -1.0000 0.0000 0.0000
vn 0.0000 1.0000 0.0000
vn 1.0000 -0.0000 0.0000
vn 0.0000 -1.0000 -0.0000
vn 0.0000 0.0000 -1.0000
vn 0.0000 0.7071 0.7071
vn 0.0000 0.7075 0.7067
vn 0.0000 -0.7971 -0.6038
vn 0.0000 -0.7971 0.6038
vn 0.6038 -0.7971 0.0000
vn -0.6038 -0.7971 0.0000
vn 0.0000 -0.0000 1.0000
vn 0.0048 -1.0000 -0.0000
vn -0.0006 -0.2137 -0.9769
vn -0.0048 -1.0000 -0.0000
vn 0.0000 -1.0000 -0.0048
vn -0.0003 -1.0000 0.0009
vn -0.0002 -1.0000 0.0001
vn -0.9989 -0.0468 -0.0000
vn 0.0004 -1.0000 -0.0002
vn -0.0003 -1.0000 0.0088
vn 0.0003 -1.0000 -0.0009
vn -0.0000 -1.0000 -0.0002
vn 0.9989 -0.0468 -0.0000
vn -0.0006 -0.2135 -0.9770
vn 0.0006 -0.2138 0.9769
vn -0.0016 -1.0000 0.0001
vn 0.9988 -0.0481 0.0000
vn -0.9990 -0.0455 -0.0000
vn 0.0000 -0.2135 0.9769
vn -0.7071 0.0000 -0.7071
vn 0.7071 0.0000 -0.7071
vn -0.4008 0.7447 -0.5336
vn -0.3571 0.7558 -0.5489
vn -0.3376 0.8633 -0.3751
vn 0.3376 0.8633 -0.3751
vn 0.3050 0.5996 -0.7399
vn -0.8539 0.4397 -0.2785
vn 0.3416 -0.3416 -0.8756
vn -0.3416 -0.3416 -0.8756
vn -0.3468 0.1610 -0.9240
vn 0.3468 0.1610 -0.9240
vn 0.4606 -0.7588 0.4606
vn 0.7588 -0.4606 0.4606
vn 0.4606 -0.4606 0.7588
vn -0.4606 -0.7588 0.4606
vn -0.4606 -0.4606 0.7588
vn -0.7588 -0.4606 0.4606
vn 0.6704 0.2886 -0.6835
vn -0.6704 0.2886 -0.6835
vn -0.3050 0.5996 -0.7399
vn 0.7588 -0.4606 -0.4606
vn 0.4606 -0.7588 -0.4606
vn 0.5658 0.6823 0.4630
vn 0.9314 0.3293 0.1550
vn -0.4606 -0.7588 -0.4606
vn -0.7588 -0.4606 -0.4606
vn -0.5658 0.6823 0.4630
vn -0.9314 0.3293 0.1550
vn 0.0000 -0.7071 0.7071
vn 0.6974 0.5799 -0.4212
vn 0.3571 0.7558 -0.5489
vn -0.6974 0.5799 -0.4212
vn 0.0000 -0.7071 -0.7071
vn 0.7257 0.5593 -0.4007
vn 0.4008 0.7447 -0.5336
vn -0.7257 0.5593 -0.4007
vn 0.8539 0.4397 -0.2784
usemtl Material_Corp_Main.png.000
s off
f 88/1/1 89/2/1 90/3/1
f 91/4/2 90/3/2 92/5/2
f 90/3/3 89/2/3 92/5/3
f 91/4/4 88/1/4 90/3/4
f 88/1/5 91/4/5 93/6/5 94/7/5
f 91/4/6 92/5/6 95/8/6 93/6/6
f 92/5/7 89/2/7 96/9/7 95/8/7
f 89/2/8 88/1/8 94/7/8 96/9/8
usemtl Material.003
f 1/10/5 2/11/5 3/12/5
f 4/13/6 5/14/6 6/15/6
f 7/16/7 8/17/7 9/18/7
f 6/19/6 5/20/6 10/21/6 11/22/6
f 5/23/9 12/24/9 13/25/9 10/26/9
f 11/27/6 10/28/6 14/29/6
f 6/15/6 7/30/6 4/13/6
f 14/29/6 1/31/6 11/27/6
f 3/32/10 8/33/10 7/34/10 6/35/10 11/36/10 1/37/10
f 8/33/11 3/32/11 15/38/11 16/39/11
f 9/18/7 8/17/7 16/40/7 17/41/7
f 3/12/5 2/11/5 18/42/5 15/43/5
f 19/44/12 20/45/12 21/46/12
f 22/47/13 21/46/13 23/48/13
f 21/46/14 20/45/14 23/48/14
f 22/47/15 19/44/15 21/46/15
f 19/44/5 22/47/5 24/49/5 25/50/5
f 22/47/16 23/48/16 26/51/16 24/49/16
f 23/48/7 20/45/7 27/52/7 26/51/7
f 20/45/9 19/44/9 25/50/9 27/52/9
f 28/53/17 29/54/17 30/55/17 31/56/17
f 32/57/5 33/58/5 34/59/5 35/60/5 36/61/5 37/62/5
f 38/63/7 39/64/7 40/65/7 41/66/7 42/67/7 43/68/7
f 44/69/16 45/70/16 46/71/16 47/72/16
f 30/73/18 48/74/18 49/75/18 50/76/18
f 51/77/19 52/78/19 53/79/19 54/80/19
f 55/81/20 28/53/20 31/56/20 56/82/20
f 29/54/21 57/83/21 48/84/21 30/55/21
f 57/83/22 55/81/22 56/82/22 48/84/22
f 58/85/23 59/86/23 60/87/23 61/88/23
f 55/81/24 57/83/24 59/89/24 58/90/24
f 57/83/25 51/77/25 54/80/25 59/89/25
f 52/78/26 55/81/26 58/90/26 53/79/26
f 61/91/27 60/92/27 62/93/27 63/94/27
f 54/95/28 53/96/28 63/97/28 62/98/28
f 59/99/29 54/100/29 62/93/29 60/101/29
f 53/102/30 58/103/30 61/104/30 63/94/30
f 50/105/31 49/106/31 64/107/31 65/108/31
f 48/109/32 56/110/32 64/107/32 49/111/32
f 31/112/33 30/113/33 50/114/33 65/108/33
f 56/115/34 31/116/34 65/117/34 64/118/34
f 66/119/6 67/120/6 68/121/6 69/122/6
f 69/123/6 68/124/6 70/125/6 71/126/6
f 72/127/6 73/128/6 67/129/6 66/130/6
s 1
f 74/131/35 2/132/5 1/133/5 14/134/35
f 9/135/7 75/136/36 4/137/36 7/138/7
f 75/136/36 12/139/9 5/140/9 4/137/36
f 10/141/9 13/142/9 74/131/35 14/134/35
f 76/143/37 77/144/38 66/119/5 69/122/5
f 78/145/39 79/146/40 71/147/35 70/148/36
f 77/149/38 80/150/41 72/127/42 66/130/5
f 81/151/43 82/152/44 83/153/45 84/154/46
f 29/155/47 41/156/48 46/157/49
f 51/158/50 45/159/51 36/160/52
f 84/154/46 80/161/41 43/162/53
f 83/153/45 34/163/54 85/164/55
f 81/151/43 42/165/56 28/166/57
f 79/167/40 47/168/58 40/169/59
f 52/170/60 35/171/61 82/172/44
f 44/173/62 78/145/39 37/174/63
f 51/158/50 57/175/64 29/155/47 46/157/49 45/159/51
f 85/176/55 80/150/41 84/177/46 83/178/45
f 80/150/41 77/149/38 38/179/65 43/180/53
f 86/181/66 85/176/55 34/182/54 33/183/67
f 28/184/57 55/185/68 52/170/60 82/172/44 81/186/43
f 35/187/61 34/188/54 83/189/45 82/190/44
f 37/191/63 36/192/52 45/193/51 44/194/62
f 76/195/37 79/167/40 40/169/59 39/196/69
f 47/72/58 46/71/49 41/197/48 40/65/59
f 78/198/39 87/199/70 32/200/71 37/201/63
f 44/173/62 47/202/58 79/146/40 78/145/39
f 36/203/52 35/187/61 52/170/60 51/158/50
f 29/155/47 28/184/57 42/204/56 41/156/48
f 81/151/43 84/154/46 43/205/53 42/206/56
f 87/207/70 86/208/66 33/209/67 32/200/71
f 77/144/38 76/143/37 39/196/69 38/210/65
f 86/208/66 87/207/70 68/121/7 67/120/7
f 87/199/70 78/198/39 70/125/36 68/124/7
f 85/176/55 86/181/66 67/129/7 73/128/72
f 80/150/41 85/176/55 73/128/72 72/127/42
f 79/167/40 76/195/37 69/123/5 71/126/35
