# Blender v2.79 (sub 0) OBJ File: ''
# www.blender.org
mtllib HEp_shaftmidt.mtl
o the_node.019_tri_420_geometry.021
v 0.281319 -0.500641 -0.211030
v 0.281319 0.436559 -0.211030
v 0.281319 0.436559 -0.000161
v 0.281319 -0.500641 -0.000160
v 0.281319 0.436559 0.210709
v 0.281319 -0.500641 0.210709
v 0.211029 -0.500641 -0.281320
v 0.000159 -0.500641 -0.281320
v 0.000159 0.436559 -0.281320
v 0.211029 0.436559 -0.281320
v -0.210710 -0.500641 -0.281320
v -0.210711 0.436559 -0.281320
v -0.281000 -0.500641 -0.211030
v -0.281000 -0.500641 -0.000160
v -0.281000 0.436558 -0.000161
v -0.281000 0.436558 -0.211030
v -0.281000 -0.500641 0.210709
v -0.281001 0.436558 0.210709
v 0.211029 -0.500641 0.280999
v 0.211029 0.436559 0.280999
v 0.000159 0.436559 0.280999
v 0.000159 -0.500641 0.280999
v -0.210711 0.436559 0.280999
v -0.210710 -0.500641 0.280999
v -0.281001 0.436558 0.280999
v -0.281000 -0.500641 0.280999
v 0.281319 0.436559 0.280999
v 0.281319 -0.500641 0.280999
v -0.281000 -0.500641 -0.281320
v -0.281000 0.436558 -0.281320
v 0.281319 -0.500641 -0.281320
v 0.281319 0.436559 -0.281320
v -0.374720 0.500321 -0.374720
v -0.374720 -0.374399 0.281319
v -0.374720 0.500320 0.281320
v 0.375039 0.500321 -0.374720
v 0.375039 -0.374399 0.281319
v 0.281319 -0.374399 0.281319
v -0.281001 -0.374399 0.281319
v 0.375039 -0.374399 0.375039
v 0.281319 -0.374399 0.375039
v 0.375039 0.500321 0.281320
v -0.281001 -0.374399 0.375039
v 0.281319 0.500320 0.375040
v -0.281001 0.500320 0.375040
v -0.374720 -0.374399 0.375039
v 0.375039 0.500320 0.375040
v -0.374721 0.500320 0.375040
vt 0.288922 0.637136
vt 0.288924 0.906440
vt 0.345122 0.906442
vt 0.345118 0.637136
vt 0.372314 0.906442
vt 0.372312 0.637136
vt 0.223228 0.637136
vt 0.167028 0.637136
vt 0.167028 0.906442
vt 0.223230 0.906442
vt 0.139832 0.637138
vt 0.139832 0.906444
vt 0.153172 0.637138
vt 0.204484 0.637138
vt 0.204486 0.906444
vt 0.153174 0.906444
vt 0.244830 0.637138
vt 0.244832 0.906444
vt 0.358972 0.637136
vt 0.358972 0.906442
vt 0.307660 0.906442
vt 0.307660 0.637136
vt 0.267314 0.906444
vt 0.267312 0.637138
vt 0.400156 0.809578
vt 0.403662 0.885926
vt 0.337044 0.864578
vt 0.667904 0.170814
vt 0.634946 0.305360
vt 0.611690 0.305360
vt 0.566932 0.305360
vt 0.564484 0.305358
vt 0.611692 0.170812
vt 0.611688 0.305360
vt 0.588432 0.305360
vt 0.337048 0.723648
vt 0.403666 0.744998
vt 0.400156 0.661996
vt 0.556942 0.305360
vt 0.403666 0.838030
vt 0.337048 0.816680
vt 0.337046 0.879660
vt 0.403664 0.901008
vt 0.555480 0.305358
vt 0.256072 0.906444
vt 0.256072 0.637138
vt 0.378400 0.906442
vt 0.378398 0.637136
vt 0.133746 0.637138
vt 0.133746 0.906444
vt 0.256076 0.637136
vt 0.256078 0.906440
vt 0.337048 0.770166
vt 0.403666 0.791516
vt 0.403662 0.903934
vt 0.337044 0.882588
vn 1.0000 0.0000 0.0000
vn 0.0000 0.0000 -1.0000
vn -1.0000 0.0000 0.0000
vn 0.0000 -0.0000 1.0000
vn 0.0000 -0.6000 -0.8000
vn 0.0000 -1.0000 0.0000
vn -0.7071 -0.0000 0.7071
vn 0.7071 -0.0000 0.7071
vn -0.7071 0.0000 -0.7071
vn 0.7071 0.0000 -0.7071
usemtl Material.008
s off
f 1/1/1 2/2/1 3/3/1 4/4/1
f 4/4/1 3/3/1 5/5/1 6/6/1
f 7/7/2 8/8/2 9/9/2 10/10/2
f 8/8/2 11/11/2 12/12/2 9/9/2
f 13/13/3 14/14/3 15/15/3 16/16/3
f 14/14/3 17/17/3 18/18/3 15/15/3
f 19/19/4 20/20/4 21/21/4 22/22/4
f 22/22/4 21/21/4 23/23/4 24/24/4
f 33/25/3 34/26/3 35/27/3
f 36/28/5 37/29/5 38/30/5 39/31/5 34/32/5 33/33/5
f 40/34/6 41/35/6 38/30/6 37/29/6
f 42/36/1 37/37/1 36/38/1
f 38/30/6 41/35/6 43/39/6 39/31/6
f 41/40/4 44/41/4 45/42/4 43/43/4
f 39/31/6 43/39/6 46/44/6 34/32/6
s 1
f 24/24/4 23/23/4 25/45/7 26/46/7
f 17/17/3 26/46/7 25/45/7 18/18/3
f 6/6/1 5/5/1 27/47/8 28/48/8
f 11/11/2 29/49/9 30/50/9 12/12/2
f 31/51/10 32/52/10 2/2/1 1/1/1
f 31/51/10 7/7/2 10/10/2 32/52/10
f 29/49/9 13/13/3 16/16/3 30/50/9
f 28/48/8 27/47/8 20/20/4 19/19/4
f 47/53/8 40/54/8 37/37/1 42/36/1
f 47/53/8 44/41/4 41/40/4 40/54/8
f 35/27/3 34/26/3 46/55/7 48/56/7
f 43/43/4 45/42/4 48/56/7 46/55/7
