# Blender v2.79 (sub 0) OBJ File: ''
# www.blender.org
mtllib HEp_shaftbottom.mtl
o the_node.006_tri_420_geometry.001
v -0.327860 -0.000321 0.327859
v -0.437200 -0.000321 0.327859
v -0.437200 -0.000321 0.437199
v -0.327860 -0.000321 0.437199
v 0.437519 -0.500160 -0.328180
v 0.437519 -0.000320 -0.328180
v 0.437519 -0.000320 -0.000160
v 0.437519 -0.500160 -0.000160
v -0.327860 -0.000321 -0.328180
v -0.437200 -0.000321 -0.328180
v -0.437200 -0.000321 -0.000160
v -0.327860 -0.000321 -0.000160
v -0.437200 -0.500160 -0.328180
v -0.437200 -0.500160 -0.000160
v -0.327860 -0.000321 -0.437520
v -0.437200 -0.000321 -0.437520
v 0.437519 -0.000320 0.327859
v 0.437519 -0.500160 0.327860
v -0.437200 -0.500160 0.327860
v 0.328179 -0.000320 -0.000160
v 0.000160 -0.000321 -0.000160
v 0.000160 -0.000321 0.327859
v 0.328179 -0.000320 0.327859
v 0.328179 -0.000320 -0.437520
v 0.000160 -0.000321 -0.437520
v 0.000160 -0.000321 -0.328180
v 0.328179 -0.000320 -0.328180
v 0.375039 -0.500160 -0.437520
v 0.000160 -0.300160 -0.437520
v 0.375039 -0.500160 0.437200
v 0.328179 -0.000320 0.437199
v 0.000160 -0.000320 0.437199
v 0.000160 -0.300160 0.437200
v 0.437519 -0.000320 0.437199
v 0.437519 -0.000320 -0.437520
v -0.374720 -0.500160 -0.437520
v -0.374720 -0.500160 0.437200
v -0.437200 -0.500160 -0.437520
v -0.437200 -0.500160 0.437200
v 0.437519 -0.500160 0.437200
v 0.437519 -0.500160 -0.437520
vt 0.661742 0.244448
vt 0.673390 0.231214
vt 0.680350 0.244440
vt 0.673386 0.257668
vt 0.323132 0.715150
vt 0.408926 0.715150
vt 0.408926 0.678692
vt 0.323132 0.678692
vt 0.619686 0.202918
vt 0.632684 0.186832
vt 0.657792 0.204344
vt 0.643494 0.219416
vt 0.323132 0.884222
vt 0.323132 0.834082
vt 0.408926 0.834082
vt 0.408926 0.884224
vt 0.606136 0.190876
vt 0.618408 0.184282
vt 0.408926 0.670728
vt 0.323132 0.670728
vt 0.323132 0.796136
vt 0.408926 0.796136
vt 0.594692 0.267760
vt 0.619414 0.244446
vt 0.643488 0.269464
vt 0.619678 0.285966
vt 0.562914 0.231050
vt 0.580834 0.206314
vt 0.594698 0.221108
vt 0.574616 0.244430
vt 0.323132 0.838356
vt 0.323132 0.893478
vt 0.408926 0.893478
vt 0.323132 0.680024
vt 0.408926 0.738088
vt 0.323132 0.738088
vt 0.657786 0.284542
vt 0.632668 0.302052
vt 0.606122 0.298008
vt 0.618394 0.304604
vt 0.562922 0.257812
vt 0.580826 0.282562
vt 0.555552 0.244436
vt 0.323132 0.902096
vt 0.323132 0.780486
vt 0.245858 0.678362
vt 0.226784 0.678362
vt 0.211744 0.681154
vt 0.338360 0.794624
vt 0.340674 0.775980
vt 0.338364 0.757334
vt 0.303644 0.701230
vt 0.141922 0.792386
vt 0.163926 0.841566
vt 0.211728 0.870784
vt 0.226768 0.873578
vt 0.245844 0.873582
vt 0.141924 0.759540
vt 0.140674 0.775964
vt 0.408926 0.901442
vt 0.408926 0.857020
vt 0.408926 0.776034
vt 0.408926 0.687946
vt 0.323132 0.786084
vt 0.408926 0.786084
vt 0.408926 0.669304
vt 0.323132 0.669304
vt 0.323132 0.902866
vt 0.408926 0.902866
vt 0.323132 0.786084
vt 0.408926 0.786086
vn 0.0000 1.0000 0.0000
vn 1.0000 0.0000 0.0000
vn -1.0000 0.0000 0.0000
vn 0.0000 0.0000 -1.0000
vn 0.0000 0.0000 1.0000
vn -0.0000 -1.0000 -0.0000
vn -0.7071 0.0000 0.7071
vn 0.7071 0.0000 0.7071
vn -0.7071 0.0000 -0.7071
vn 0.7071 0.0000 -0.7071
usemtl Material.010
s off
f 1/1/1 2/2/1 3/3/1 4/4/1
f 5/5/2 6/6/2 7/7/2 8/8/2
f 9/9/1 10/10/1 11/11/1 12/12/1
f 13/13/3 14/14/3 11/15/3 10/16/3
f 15/17/1 16/18/1 10/10/1 9/9/1
f 8/8/2 7/7/2 17/19/2 18/20/2
f 12/12/1 11/11/1 2/2/1 1/1/1
f 14/14/3 19/21/3 2/22/3 11/15/3
f 20/23/1 21/24/1 22/25/1 23/26/1
f 24/27/1 25/28/1 26/29/1 27/30/1
f 27/30/1 26/29/1 21/24/1 20/23/1
f 28/31/4 29/32/4 25/33/4
f 30/34/5 32/35/5 33/36/5
f 23/26/1 22/25/1 32/37/1 31/38/1
f 17/39/1 23/26/1 31/38/1 34/40/1
f 6/41/1 27/30/1 20/23/1 7/42/1
f 35/43/1 24/27/1 27/30/1 6/41/1
f 7/42/1 20/23/1 23/26/1 17/39/1
f 21/24/1 12/12/1 1/1/1 22/25/1
f 25/28/1 15/17/1 9/9/1 26/29/1
f 26/29/1 9/9/1 12/12/1 21/24/1
f 29/32/4 36/44/4 25/33/4
f 33/36/5 32/35/5 37/45/5
f 22/25/1 1/1/1 4/4/1 32/37/1
f 13/46/6 38/47/6 36/48/6 37/49/6 39/50/6 19/51/6 14/52/6
f 5/53/6 8/54/6 18/55/6 40/56/6 30/57/6 28/58/6 41/59/6
f 25/33/4 36/44/4 15/60/4
f 25/33/4 24/61/4 28/31/4
f 37/45/5 32/35/5 4/62/5
f 32/35/5 30/34/5 31/63/5
s 1
f 19/21/3 39/64/7 3/65/7 2/22/3
f 18/20/2 17/19/2 34/66/8 40/67/8
f 37/45/5 4/62/5 3/65/7 39/64/7
f 36/44/4 38/68/9 16/69/9 15/60/4
f 38/68/9 13/13/3 10/16/3 16/69/9
f 41/70/10 35/71/10 6/6/2 5/5/2
f 40/67/8 34/66/8 31/63/5 30/34/5
f 41/70/10 28/31/4 24/61/4 35/71/10
