# Blender v2.80 (sub 74) OBJ File: 'piston.blend'
# www.blender.org
mtllib piston_shaft.mtl
o Cylinder.006_Cylinder.011
v 0.000000 -0.375000 -0.440000
v 0.000000 0.375000 -0.440000
v 0.220000 -0.375000 -0.381051
v 0.220000 0.375000 -0.381051
v 0.381051 -0.375000 -0.220000
v 0.381051 0.375000 -0.220000
v 0.440000 -0.375000 0.000000
v 0.440000 0.375000 0.000000
v 0.381051 -0.375000 0.220000
v 0.381051 0.375000 0.220000
v 0.220000 -0.375000 0.381051
v 0.220000 0.375000 0.381051
v 0.000000 -0.375000 0.440000
v 0.000000 0.375000 0.440000
v -0.220000 -0.375000 0.381051
v -0.220000 0.375000 0.381051
v -0.381051 -0.375000 0.220000
v -0.381051 0.375000 0.220000
v -0.440000 -0.375000 0.000000
v -0.440000 0.375000 0.000000
v -0.381051 -0.375000 -0.220000
v -0.381051 0.375000 -0.220000
v -0.220000 -0.375000 -0.381051
v -0.220000 0.375000 -0.381051
v 0.000000 0.337500 -0.440000
v 0.220000 0.337500 -0.381051
v 0.381051 0.337500 -0.220000
v 0.440000 0.337500 0.000000
v 0.381051 0.337500 0.220000
v 0.220000 0.337500 0.381051
v 0.000000 0.337500 0.440000
v -0.220000 0.337500 0.381051
v -0.381051 0.337500 0.220000
v -0.440000 0.337500 0.000000
v -0.381051 0.337500 -0.220000
v -0.220000 0.337500 -0.381051
vt 0.335203 0.641094
vt 0.337665 0.642200
vt 0.337665 0.642200
vt 0.335203 0.641094
vt 0.337665 0.642200
vt 0.335203 0.641094
vt 0.337665 0.642200
vt 0.335203 0.641094
vt 0.337665 0.642200
vt 0.335203 0.641094
vt 0.337665 0.642200
vt 0.335203 0.641094
vt 0.337665 0.642200
vt 0.335203 0.641094
vt 0.337665 0.642200
vt 0.335203 0.641094
vt 0.337665 0.642200
vt 0.335203 0.641094
vt 0.337665 0.642200
vt 0.335203 0.641094
vt 0.337665 0.642200
vt 0.335203 0.641094
vt 0.338045 0.642303
vt 0.338045 0.642303
vt 0.338045 0.642303
vt 0.338045 0.642303
vt 0.338045 0.642303
vt 0.338045 0.642303
vt 0.338045 0.642303
vt 0.338045 0.642303
vt 0.338045 0.642303
vt 0.338045 0.642303
vt 0.338045 0.642303
vt 0.338045 0.642303
vt 0.337665 0.642200
vt 0.335203 0.641094
vt 0.288411 0.620074
vt 0.288411 0.620074
vt 0.288411 0.620074
vt 0.288411 0.620074
vt 0.288411 0.620074
vt 0.288411 0.620074
vt 0.288411 0.620074
vt 0.288411 0.620074
vt 0.288411 0.620074
vt 0.288411 0.620074
vt 0.288411 0.620074
vt 0.288411 0.620074
vn -0.0000 0.0000 -1.0000
vn -0.0000 0.6532 -0.7572
vn 0.3786 0.6532 -0.6557
vn 0.5000 0.0000 -0.8660
vn 0.6557 0.6532 -0.3786
vn 0.8660 0.0000 -0.5000
vn 0.7572 0.6532 0.0000
vn 1.0000 0.0000 0.0000
vn 0.6557 0.6532 0.3786
vn 0.8660 0.0000 0.5000
vn 0.3786 0.6532 0.6557
vn 0.5000 0.0000 0.8660
vn 0.0000 0.6532 0.7572
vn 0.0000 0.0000 1.0000
vn -0.3786 0.6532 0.6557
vn -0.5000 0.0000 0.8660
vn -0.6557 0.6532 0.3786
vn -0.8660 0.0000 0.5000
vn -0.7572 0.6532 0.0000
vn -1.0000 0.0000 0.0000
vn -0.6557 0.6532 -0.3786
vn -0.8660 0.0000 -0.5000
vn -0.3786 0.6532 -0.6557
vn -0.5000 0.0000 -0.8660
usemtl Material
s 1
f 25/1/1 2/2/2 4/3/3 26/4/4
f 26/4/4 4/3/3 6/5/5 27/6/6
f 27/6/6 6/5/5 8/7/7 28/8/8
f 28/8/8 8/7/7 10/9/9 29/10/10
f 29/10/10 10/9/9 12/11/11 30/12/12
f 30/12/12 12/11/11 14/13/13 31/14/14
f 31/14/14 14/13/13 16/15/15 32/16/16
f 32/16/16 16/15/15 18/17/17 33/18/18
f 33/18/18 18/17/17 20/19/19 34/20/20
f 34/20/20 20/19/19 22/21/21 35/22/22
f 4/23/3 2/24/2 24/25/23 22/26/21 20/27/19 18/28/17 16/29/15 14/30/13 12/31/11 10/32/9 8/33/7 6/34/5
f 35/22/22 22/21/21 24/35/23 36/36/24
f 36/36/24 24/35/23 2/2/2 25/1/1
f 23/37/24 36/36/24 25/1/1 1/38/1
f 21/39/22 35/22/22 36/36/24 23/37/24
f 19/40/20 34/20/20 35/22/22 21/39/22
f 17/41/18 33/18/18 34/20/20 19/40/20
f 15/42/16 32/16/16 33/18/18 17/41/18
f 13/43/14 31/14/14 32/16/16 15/42/16
f 11/44/12 30/12/12 31/14/14 13/43/14
f 9/45/10 29/10/10 30/12/12 11/44/12
f 7/46/8 28/8/8 29/10/10 9/45/10
f 5/47/6 27/6/6 28/8/8 7/46/8
f 3/48/4 26/4/4 27/6/6 5/47/6
f 1/38/1 25/1/1 26/4/4 3/48/4
