#
#
#

mtllib piston_shaft.mtl


#
#  Mesh
#
g  Mesh


#
#  Mesh_None
#
usemtl  Mesh_None

v 0.000000 0.337500 -0.440000
v 0.000000 0.375000 -0.440000
v 0.220000 0.375000 -0.381051
v 0.220000 0.337500 -0.381051
v 0.381051 0.375000 -0.220000
v 0.381051 0.337500 -0.220000
v 0.440000 0.375000 0.000000
v 0.440000 0.337500 0.000000
v 0.381051 0.375000 0.220000
v 0.381051 0.337500 0.220000
v 0.220000 0.375000 0.381051
v 0.220000 0.337500 0.381051
v 0.000000 0.375000 0.440000
v 0.000000 0.337500 0.440000
v -0.220000 0.375000 0.381051
v -0.220000 0.337500 0.381051
v -0.381051 0.375000 0.220000
v -0.381051 0.337500 0.220000
v -0.440000 0.375000 0.000000
v -0.440000 0.337500 0.000000
v -0.381051 0.375000 -0.220000
v -0.381051 0.337500 -0.220000
v -0.220000 0.375000 -0.381051
v -0.220000 0.337500 -0.381051
v -0.220000 -0.375000 -0.381051
v 0.000000 -0.375000 -0.440000
v -0.381051 -0.375000 -0.220000
v -0.440000 -0.375000 0.000000
v -0.381051 -0.375000 0.220000
v -0.220000 -0.375000 0.381051
v 0.000000 -0.375000 0.440000
v 0.220000 -0.375000 0.381051
v 0.381051 -0.375000 0.220000
v 0.440000 -0.375000 0.000000
v 0.381051 -0.375000 -0.220000
v 0.220000 -0.375000 -0.381051
vn 0.000000 0.000000 -1.000000
vn 0.000000 0.653193 -0.757192
vn 0.378609 0.653216 -0.655716
vn 0.500011 0.000000 -0.866019
vn 0.655716 0.653216 -0.378609
vn 0.866019 0.000000 -0.500011
vn 0.757192 0.653193 0.000000
vn 1.000000 0.000000 0.000000
vn 0.655716 0.653216 0.378609
vn 0.866019 0.000000 0.500011
vn 0.378609 0.653216 0.655716
vn 0.500011 0.000000 0.866019
vn 0.000000 0.653193 0.757192
vn 0.000000 0.000000 1.000000
vn -0.378609 0.653216 0.655716
vn -0.500011 0.000000 0.866019
vn -0.655716 0.653216 0.378609
vn -0.866019 0.000000 0.500011
vn -0.757192 0.653193 0.000000
vn -1.000000 0.000000 0.000000
vn -0.655716 0.653216 -0.378609
vn -0.866019 0.000000 -0.500011
vn -0.378609 0.653216 -0.655716
vn -0.500011 0.000000 -0.866019
vt 0.197199 0.764407
vt 0.198704 0.766648
vt 0.198972 0.766936
vt 0.168610 0.721817
f 1/1/1 2/2/2 3/2/3 4/1/4
f 4/1/4 3/2/3 5/2/5 6/1/6
f 6/1/6 5/2/5 7/2/7 8/1/8
f 8/1/8 7/2/7 9/2/9 10/1/10
f 10/1/10 9/2/9 11/2/11 12/1/12
f 12/1/12 11/2/11 13/2/13 14/1/14
f 14/1/14 13/2/13 15/2/15 16/1/16
f 16/1/16 15/2/15 17/2/17 18/1/18
f 18/1/18 17/2/17 19/2/19 20/1/20
f 20/1/20 19/2/19 21/2/21 22/1/22
f 3/3/3 2/3/2 23/3/23 21/3/21 19/3/19 17/3/17 15/3/15 13/3/13 11/3/11 9/3/9 7/3/7 5/3/5
f 22/1/22 21/2/21 23/2/23 24/1/24
f 24/1/24 23/2/23 2/2/2 1/1/1
f 25/4/24 24/1/24 1/1/1 26/4/1
f 27/4/22 22/1/22 24/1/24 25/4/24
f 28/4/20 20/1/20 22/1/22 27/4/22
f 29/4/18 18/1/18 20/1/20 28/4/20
f 30/4/16 16/1/16 18/1/18 29/4/18
f 31/4/14 14/1/14 16/1/16 30/4/16
f 32/4/12 12/1/12 14/1/14 31/4/14
f 33/4/10 10/1/10 12/1/12 32/4/12
f 34/4/8 8/1/8 10/1/10 33/4/10
f 35/4/6 6/1/6 8/1/8 34/4/8
f 36/4/4 4/1/4 6/1/6 35/4/6
f 26/4/1 1/1/1 4/1/4 36/4/4
