# Blender v2.81 (sub 16) OBJ File: ''
# www.blender.org
mtllib HEps_shaft_2.mtl
o Cube.047_Cube.088
v -0.380000 -0.100000 -0.340000
v -0.380000 1.100000 -0.340000
v -0.430000 1.100000 -0.460000
v -0.430000 -0.100000 -0.460000
v -0.200000 0.560000 -0.460000
v -0.150000 0.510000 -0.460000
v 0.150000 0.510000 -0.460000
v 0.200000 0.560000 -0.460000
v 0.430000 1.110000 -0.460000
v 0.430000 -0.090000 -0.460000
v 0.380000 1.110000 -0.340000
v 0.380000 -0.090000 -0.340000
v 0.200000 0.500000 -0.340000
v 0.150000 0.450000 -0.340000
v -0.150000 0.450000 -0.340000
v -0.200000 0.500000 -0.340000
v 0.150000 0.550000 -0.320000
v -0.150000 0.550000 -0.320000
v -0.200000 0.500000 -0.320000
v -0.150000 0.450000 -0.320000
v 0.150000 0.450000 -0.320000
v 0.200000 0.500000 -0.320000
v -0.150000 0.550000 -0.340000
v 0.150000 0.550000 -0.340000
v 0.150000 0.610000 -0.460000
v 0.200000 0.560000 -0.480000
v 0.150000 0.610000 -0.480000
v -0.150000 0.610000 -0.460000
v -0.150000 0.510000 -0.480000
v 0.150000 0.510000 -0.480000
v -0.200000 0.560000 -0.480000
v -0.150000 0.610000 -0.480000
vt 0.582403 0.129905
vt 0.626581 0.129905
vt 0.626581 0.174082
vt 0.582403 0.174082
vt 0.607192 0.189182
vt 0.605046 0.190853
vt 0.605001 0.201304
vt 0.606460 0.203481
vt 0.626581 0.218264
vt 0.582403 0.218264
vt 0.626581 0.262441
vt 0.582403 0.262441
vt 0.604403 0.273184
vt 0.602578 0.275983
vt 0.602677 0.293561
vt 0.604472 0.296474
vt 0.626581 0.306618
vt 0.582403 0.306618
vt 0.606322 0.275622
vt 0.606693 0.292879
vt 0.604472 0.296474
vt 0.602677 0.293561
vt 0.602578 0.275983
vt 0.604403 0.273184
vt 0.606693 0.292879
vt 0.606322 0.275622
vt 0.607672 0.200988
vt 0.606460 0.203481
vt 0.607672 0.200988
vt 0.607420 0.192046
vt 0.605046 0.190853
vt 0.605001 0.201304
vt 0.606450 0.190888
vt 0.607420 0.192046
vt 0.607192 0.189182
vn -0.9231 -0.0000 0.3846
vn 0.0000 0.0000 -1.0000
vn 0.9231 -0.0000 0.3846
vn 0.0000 -0.0000 1.0000
vn 0.0000 1.0000 0.0000
vn -0.7071 -0.7071 0.0000
vn 0.7071 -0.7071 0.0000
vn 0.7071 0.7071 0.0000
vn -0.7071 0.7071 0.0000
vn 0.0000 -1.0000 0.0000
usemtl Default_OBJ
s 1
f 1/1/1 2/2/1 3/3/1 4/4/1
f 4/4/2 3/3/2 5/5/2 6/6/2 7/7/2 8/8/2 9/9/2 10/10/2
f 10/10/3 9/9/3 11/11/3 12/12/3
f 12/12/4 13/13/4 14/14/4 15/15/4 16/16/4 2/17/4 1/18/4
f 17/19/4 18/20/4 19/21/4 20/22/4 21/23/4 22/24/4
f 2/17/4 16/16/4 23/25/4 24/26/4 13/13/4 12/12/4 11/11/4
f 24/26/5 23/25/5 18/20/5 17/19/5
f 16/16/6 15/15/6 20/22/6 19/21/6
f 14/14/7 13/13/7 22/24/7 21/23/7
f 13/13/8 24/26/8 17/19/8 22/24/8
f 23/25/9 16/16/9 19/21/9 18/20/9
f 15/15/10 14/14/10 21/23/10 20/22/10
f 25/27/8 8/8/8 26/28/8 27/29/8
f 9/9/2 8/8/2 25/27/2 28/30/2 5/5/2 3/3/2
f 7/7/10 6/6/10 29/31/10 30/32/10
f 31/33/2 32/34/2 27/29/2 26/28/2 30/32/2 29/31/2
f 5/5/9 28/30/9 32/34/9 31/35/9
f 6/6/6 5/5/6 31/35/6 29/31/6
f 8/8/7 7/7/7 30/32/7 26/28/7
f 28/30/5 25/27/5 27/29/5 32/34/5
