# Blender v2.81 (sub 16) OBJ File: ''
# www.blender.org
mtllib HEps_base.mtl
o Cube.045_Cube.086
v 0.400000 -0.500000 -0.500000
v 0.500000 -0.400000 -0.400000
v 0.400000 -0.500000 -0.400000
v -0.400000 -0.500000 -0.400000
v -0.500000 -0.400000 -0.500000
v -0.400000 -0.500000 -0.500000
v 0.300000 0.400000 -0.400000
v 0.300000 0.400000 -0.300000
v 0.400000 0.500000 -0.300000
v -0.400000 -0.400000 -0.300000
v -0.500000 -0.400000 -0.400000
v 0.400000 -0.400000 -0.300000
v 0.500000 -0.100000 -0.400000
v 0.450000 -0.100000 -0.500000
v 0.450000 -0.100000 -0.400000
v 0.400000 0.500000 -0.500000
v 0.500000 0.500000 -0.400000
v 0.500000 0.500000 -0.500000
v -0.400000 0.500000 -0.500000
v -0.500000 0.500000 -0.400000
v -0.400000 0.500000 -0.300000
v 0.500000 0.100000 -0.400000
v -0.350000 0.450000 -0.450000
v -0.300000 0.400000 -0.400000
v -0.300000 0.400000 -0.300000
v -0.350000 0.450000 -0.500000
v -0.150000 0.510000 -0.450000
v -0.150000 0.510000 -0.500000
v 0.150000 0.510000 -0.450000
v 0.150000 0.650000 -0.500000
v 0.150000 0.650000 -0.450000
v 0.350000 0.450000 -0.500000
v 0.150000 0.510000 -0.500000
v 0.450000 0.100000 -0.400000
v 0.450000 0.100000 -0.500000
v -0.400000 0.100000 -0.300000
v -0.500000 0.100000 -0.400000
v 0.500000 -0.400000 -0.500000
v 0.500000 -0.100000 -0.500000
v -0.500000 0.100000 -0.500000
v -0.500000 -0.100000 -0.400000
v -0.450000 -0.100000 -0.400000
v -0.450000 -0.100000 -0.500000
v -0.500000 -0.100000 -0.500000
v -0.450000 0.100000 -0.400000
v 0.400000 -0.100000 -0.300000
v -0.400000 -0.100000 -0.300000
v -0.450000 0.100000 -0.500000
v -0.500000 0.500000 -0.500000
v 0.400000 0.100000 -0.300000
v 0.000000 0.700000 -0.450000
v 0.000000 0.700000 -0.500000
v -0.150000 0.650000 -0.500000
v -0.150000 0.650000 -0.450000
v 0.350000 0.450000 -0.450000
v 0.500000 0.100000 -0.500000
v 0.131977 -0.131974 -0.500507
v -0.000023 0.000023 -0.600507
v 0.131977 0.132019 -0.500507
v -0.132023 -0.131974 -0.500507
v -0.132023 0.132019 -0.500507
v -0.150000 0.133333 -0.425000
v 0.150000 0.133333 -0.425000
v 0.000000 0.333333 -0.425000
v -0.150000 0.133333 -0.375000
v 0.150000 0.133333 -0.375000
v 0.000000 0.333333 -0.375000
vt 0.174117 0.307686
vt 0.186510 0.320079
vt 0.174117 0.307686
vt 0.074976 0.307686
vt 0.062583 0.320079
vt 0.074976 0.307686
vt 0.161725 0.419221
vt 0.161725 0.419221
vt 0.174117 0.431614
vt 0.074976 0.320079
vt 0.062583 0.320079
vt 0.174117 0.320079
vt 0.186510 0.357257
vt 0.180314 0.357257
vt 0.180314 0.357257
vt 0.174117 0.431614
vt 0.186510 0.431614
vt 0.186510 0.431614
vt 0.074976 0.431614
vt 0.062583 0.431614
vt 0.074976 0.431614
vt 0.511125 0.691018
vt 0.591322 0.670969
vt 0.591322 0.691018
vt 0.081172 0.425417
vt 0.087368 0.419221
vt 0.087368 0.419221
vt 0.081172 0.425417
vt 0.105957 0.425417
vt 0.105957 0.425417
vt 0.143136 0.425417
vt 0.143136 0.413025
vt 0.143136 0.413025
vt 0.167921 0.425417
vt 0.143136 0.425417
vt 0.186510 0.382043
vt 0.180314 0.382043
vt 0.180314 0.382043
vt 0.511125 0.711067
vt 0.591322 0.691018
vt 0.511125 0.691018
vt 0.788042 0.690403
vt 0.727895 0.710452
vt 0.788042 0.710452
vt 0.105958 0.405887
vt 0.143136 0.405887
vt 0.062583 0.362511
vt 0.788042 0.690403
vt 0.727895 0.710452
vt 0.727895 0.690403
vt 0.068779 0.357257
vt 0.068779 0.357257
vt 0.062583 0.357257
vt 0.440416 0.361164
vt 0.440416 0.323985
vt 0.428024 0.311593
vt 0.727895 0.670354
vt 0.727895 0.690403
vt 0.727895 0.670354
vt 0.657945 0.294152
vt 0.657945 0.269367
vt 0.657945 0.294152
vt 0.546410 0.294152
vt 0.546410 0.269367
vt 0.546410 0.269367
vt 0.651749 0.269367
vt 0.657945 0.269367
vt 0.552607 0.269367
vt 0.062583 0.382043
vt 0.068779 0.382043
vt 0.068779 0.382043
vt 0.591322 0.670969
vt 0.511125 0.711067
vt 0.074976 0.382043
vt 0.074976 0.357257
vt 0.174117 0.382043
vt 0.124546 0.406828
vt 0.124547 0.406828
vt 0.105957 0.413025
vt 0.105957 0.413025
vt 0.186510 0.320079
vt 0.167921 0.425417
vt 0.174117 0.357257
vt 0.186510 0.357257
vt 0.062583 0.431614
vt 0.511125 0.670969
vt 0.124546 0.419221
vt 0.186510 0.382043
vt 0.591322 0.711067
vt 0.316489 0.385949
vt 0.316489 0.435520
vt 0.335078 0.429324
vt 0.328882 0.435520
vt 0.440416 0.435520
vt 0.440416 0.385949
vt 0.421827 0.429324
vt 0.186510 0.362511
vt 0.397042 0.429324
vt 0.428024 0.435520
vt 0.378453 0.410735
vt 0.397042 0.416931
vt 0.359864 0.416931
vt 0.359864 0.429324
vt 0.788042 0.710452
vt 0.062583 0.357257
vt 0.174118 0.306710
vt 0.074976 0.306710
vt 0.186510 0.356281
vt 0.328882 0.311593
vt 0.316489 0.323985
vt 0.316489 0.361164
vt 0.062583 0.356281
vt 0.788042 0.670354
vt 0.788042 0.670354
vt 0.546410 0.294152
vt 0.651749 0.294152
vt 0.552607 0.294152
vt 0.062583 0.382043
vt 0.511125 0.670969
vt 0.591322 0.711067
vt 0.104700 0.169033
vt 0.104700 0.169033
vt 0.104700 0.169033
vt 0.104700 0.169033
vt 0.104700 0.169033
vt 0.104700 0.169033
vt 0.075842 0.002428
vt 0.040163 0.038106
vt 0.075842 0.073784
vt 0.004485 0.002428
vt 0.004485 0.073784
vn 0.7071 -0.7071 0.0000
vn -0.7071 -0.7071 0.0000
vn -0.7071 0.7071 0.0000
vn 0.0000 -1.0000 0.0000
vn -0.5774 -0.5774 0.5774
vn 0.5774 -0.5774 0.5774
vn 0.0000 -0.7071 0.7071
vn 0.0000 1.0000 0.0000
vn 1.0000 0.0000 0.0000
vn 0.7071 0.7071 0.0000
vn -0.2873 0.9578 0.0000
vn 0.2873 0.9578 0.0000
vn -0.7071 -0.0000 0.7071
vn 0.0000 0.0000 -1.0000
vn -1.0000 0.0000 0.0000
vn 0.7071 -0.0000 0.7071
vn 0.8944 0.0000 0.4472
vn -0.8944 -0.0000 0.4472
vn 0.0000 -0.0000 1.0000
vn 0.3162 0.9487 0.0000
vn -0.3162 0.9487 0.0000
vn 0.8000 0.6000 0.0000
vn -0.8000 0.6000 0.0000
vn 0.6039 0.0000 -0.7971
vn 0.0000 -0.6039 -0.7971
vn -0.6039 0.0000 -0.7971
vn 0.0000 0.6039 -0.7971
usemtl Default_OBJ
s off
f 1/1/1 2/2/1 3/3/1
f 4/4/2 5/5/2 6/6/2
f 7/7/3 8/8/3 9/9/3
f 1/1/4 4/4/4 6/6/4
f 10/10/5 11/11/5 4/4/5
f 12/12/6 3/3/6 2/2/6
f 10/10/7 3/3/7 12/12/7
f 13/13/8 14/14/8 15/15/8
f 16/16/8 17/17/8 18/18/8
f 19/19/8 20/20/8 21/21/8
f 22/22/9 18/23/9 17/24/9
f 23/25/10 21/21/10 24/26/10
f 8/8/8 24/26/8 25/27/8
f 26/28/11 27/29/11 28/30/11
f 29/31/9 30/32/9 31/33/9
f 29/31/12 32/34/12 33/35/12
f 22/36/4 34/37/4 35/38/4
f 36/39/13 20/40/13 37/41/13
f 13/42/9 38/43/9 39/44/9
f 28/45/14 33/46/14 40/47/14
f 41/48/15 5/49/15 11/50/15
f 42/51/8 43/52/8 44/53/8
f 39/54/14 38/55/14 1/56/14
f 13/42/16 12/57/16 2/58/16
f 10/59/13 41/48/13 11/50/13
f 34/60/9 14/61/9 35/62/9
f 45/63/15 43/64/15 42/65/15
f 43/64/14 35/62/14 14/61/14
f 34/60/17 46/66/17 15/67/17
f 47/68/18 45/63/18 42/65/18
f 40/69/4 48/70/4 45/71/4
f 49/72/15 37/41/15 20/40/15
f 17/24/16 50/73/16 22/22/16
f 36/74/19 47/75/19 50/76/19
f 51/77/20 30/32/20 52/78/20
f 51/77/21 53/79/21 54/80/21
f 27/29/15 53/79/15 28/30/15
f 1/1/1 38/81/1 2/2/1
f 4/4/2 11/11/2 5/5/2
f 9/9/3 16/16/3 55/82/3
f 16/16/3 32/34/3 55/82/3
f 55/82/3 7/7/3 9/9/3
f 1/1/4 3/3/4 4/4/4
f 10/10/7 4/4/7 3/3/7
f 15/15/8 46/83/8 13/13/8
f 13/13/8 39/84/8 14/14/8
f 16/16/8 9/9/8 17/17/8
f 19/19/8 49/85/8 20/20/8
f 22/22/9 56/86/9 18/23/9
f 23/25/10 26/28/10 19/19/10
f 19/19/10 21/21/10 23/25/10
f 21/21/10 25/27/10 24/26/10
f 8/8/8 7/87/8 24/26/8
f 26/28/11 23/25/11 27/29/11
f 29/31/9 33/35/9 30/32/9
f 29/31/12 55/82/12 32/34/12
f 35/38/4 56/88/4 22/36/4
f 22/36/4 50/76/4 34/37/4
f 36/39/13 21/89/13 20/40/13
f 13/42/9 2/58/9 38/43/9
f 40/90/14 49/91/14 26/92/14
f 49/91/14 19/93/14 26/92/14
f 18/94/14 56/95/14 32/96/14
f 56/97/14 40/47/14 33/46/14
f 32/96/14 56/95/14 33/98/14
f 32/96/14 16/99/14 18/94/14
f 52/100/14 30/101/14 33/98/14
f 53/102/14 52/100/14 28/103/14
f 52/100/14 33/98/14 28/103/14
f 40/90/14 26/92/14 28/103/14
f 41/48/15 44/104/15 5/49/15
f 44/53/8 41/105/8 42/51/8
f 41/105/8 47/75/8 42/51/8
f 1/106/14 6/107/14 39/108/14
f 6/109/14 5/110/14 44/111/14
f 39/108/14 6/107/14 44/112/14
f 13/42/16 46/113/16 12/57/16
f 10/59/13 47/114/13 41/48/13
f 34/60/9 15/67/9 14/61/9
f 45/63/15 48/115/15 43/64/15
f 43/64/14 48/115/14 35/62/14
f 34/60/17 50/116/17 46/66/17
f 47/68/18 36/117/18 45/63/18
f 36/74/4 37/118/4 45/71/4
f 37/118/4 40/69/4 45/71/4
f 49/72/15 40/119/15 37/41/15
f 17/24/16 9/120/16 50/73/16
f 12/12/19 46/83/19 10/10/19
f 46/83/19 50/76/19 47/75/19
f 10/10/19 46/83/19 47/75/19
f 50/76/19 9/9/19 8/8/19
f 25/27/19 21/21/19 36/74/19
f 50/76/19 8/8/19 25/27/19
f 25/27/19 36/74/19 50/76/19
f 51/77/20 31/33/20 30/32/20
f 51/77/21 52/78/21 53/79/21
f 27/29/15 54/80/15 53/79/15
f 62/121/14 64/122/14 63/123/14
f 65/124/19 66/125/19 67/126/19
f 63/123/22 64/122/22 67/126/22 66/125/22
f 62/121/4 63/123/4 66/125/4 65/124/4
f 64/122/23 62/121/23 65/124/23 67/126/23
s 1
f 57/127/24 58/128/24 59/129/24
f 57/127/25 60/130/25 58/128/25
f 58/128/26 60/130/26 61/131/26
f 61/131/27 59/129/27 58/128/27
