# Blender v2.81 (sub 16) OBJ File: ''
# www.blender.org
mtllib HEps_deco_shaft.mtl
o Cube.009_Cube.035
v -0.390000 -0.500000 -0.320000
v -0.390000 0.450000 -0.320000
v -0.490000 0.450000 -0.480000
v -0.490000 -0.500000 -0.480000
v -0.300000 0.450000 -0.480000
v -0.250000 0.400000 -0.480000
v 0.250000 0.400000 -0.480000
v 0.300000 0.450000 -0.480000
v 0.490000 0.450000 -0.480000
v 0.490000 -0.500000 -0.480000
v 0.390000 0.450000 -0.320000
v 0.390000 -0.500000 -0.320000
v 0.300000 0.450000 -0.320000
v 0.250000 0.400000 -0.320000
v -0.250000 0.400000 -0.320000
v -0.300000 0.450000 -0.320000
v 0.490000 0.500000 -0.480000
v 0.390000 0.500000 -0.320000
v -0.300000 0.500000 -0.480000
v -0.300000 0.500000 -0.320000
v 0.300000 0.500000 -0.480000
v 0.300000 0.500000 -0.320000
v -0.490000 0.500000 -0.480000
v -0.390000 0.500000 -0.320000
v 0.380000 0.500000 -0.340000
v -0.380000 0.500000 -0.340000
v -0.380000 0.400000 -0.340000
v 0.380000 0.400000 -0.340000
v -0.470000 0.500000 -0.460000
v 0.470000 0.500000 -0.460000
v 0.470000 0.400000 -0.460000
v -0.470000 0.400000 -0.460000
vt 0.254015 0.819449
vt 0.392785 0.819449
vt 0.392785 0.834056
vt 0.254015 0.834056
vt 0.392785 0.806302
vt 0.385481 0.798999
vt 0.385481 0.725962
vt 0.392785 0.718659
vt 0.392785 0.690905
vt 0.254015 0.690905
vt 0.392785 0.705512
vt 0.254015 0.705512
vt 0.392785 0.718659
vt 0.385481 0.725962
vt 0.385481 0.798999
vt 0.392785 0.806302
vt 0.400088 0.690905
vt 0.400088 0.705512
vt 0.400088 0.806302
vt 0.400088 0.806302
vt 0.400088 0.718659
vt 0.400088 0.718659
vt 0.400088 0.834056
vt 0.400088 0.819449
vt 0.618232 0.270435
vt 0.636096 0.270435
vt 0.636096 0.270435
vt 0.618232 0.270435
vt 0.582502 0.270435
vt 0.600368 0.270435
vt 0.600368 0.270435
vt 0.582502 0.270435
vt 0.564638 0.270435
vt 0.564638 0.270435
vn -0.8480 -0.0000 0.5300
vn 0.0000 0.0000 -1.0000
vn 0.8480 -0.0000 0.5300
vn 0.0000 -0.0000 1.0000
vn 0.7071 0.7071 0.0000
vn 1.0000 0.0000 0.0000
vn 0.0000 1.0000 0.0000
vn -0.7071 0.7071 0.0000
vn -1.0000 0.0000 0.0000
vn -0.8000 -0.0000 0.6000
vn 0.8000 -0.0000 0.6000
usemtl Default_OBJ
s 1
f 1/1/1 2/2/1 3/3/1 4/4/1
f 4/4/2 3/3/2 5/5/2 6/6/2 7/7/2 8/8/2 9/9/2 10/10/2
f 10/10/3 9/9/3 11/11/3 12/12/3
f 12/12/4 11/11/4 13/13/4 14/14/4 15/15/4 16/16/4 2/2/4 1/1/4
f 11/11/3 9/9/3 17/17/3 18/18/3
f 15/15/5 6/6/5 5/5/5 16/16/5
f 16/16/6 5/5/6 19/19/6 20/20/6
f 14/14/7 7/7/7 6/6/7 15/15/7
f 13/13/8 8/8/8 7/7/8 14/14/8
f 17/17/7 21/21/7 22/22/7 18/18/7
f 20/20/7 19/19/7 23/23/7 24/24/7
f 5/5/2 3/3/2 23/23/2 19/19/2
f 3/3/1 2/2/1 24/24/1 23/23/1
f 2/2/4 16/16/4 20/20/4 24/24/4
f 8/8/9 13/13/9 22/22/9 21/21/9
f 13/13/4 11/11/4 18/18/4 22/22/4
f 9/9/2 8/8/2 21/21/2 17/17/2
f 25/25/4 26/26/4 27/27/4 28/28/4
f 29/29/2 30/30/2 31/31/2 32/32/2
f 26/33/10 29/29/10 32/32/10 27/34/10
f 30/30/11 25/25/11 28/28/11 31/31/11
